<?xml version="1.0" encoding="UTF-8" standalone="no"?><svg xmlns="http://www.w3.org/2000/svg" xmlns:xlink="http://www.w3.org/1999/xlink" clip-rule="evenodd" stroke-miterlimit="4.00" viewBox="0 0 780 540"><desc>SVG generated by Keynote</desc><defs><linearGradient id="gradSh1.26" x1="0.0" y1="0.0" x2="100.0" y2="0.0" gradientUnits="userSpaceOnUse" gradientTransform="matrix(4.50, -4.50, -4.50, -4.50, 165.1, 489.3)"><stop offset="0.00000" stop-color="#58DCDC"></stop><stop offset="0.01466" stop-color="#58DDDD"></stop><stop offset="1.00000" stop-color="#66FFFF"></stop></linearGradient></defs><g transform="matrix(1.00, 0.00, -0.00, -1.00, 0.0, 540.0)"><path d="M 0.0 540.0 L 780.0 540.0 L 780.0 0.0 L 0.0 0.0 Z M 0.0 540.0 " fill="#FFFFFF"></path><image xlink:href="../../ECCF905B-E605-4604-BF46-AE14DB3CB00F/assets/60C09DDEC613CB6AA74768EBB3504F63.png" width="780.00" height="619.00" transform="matrix(1.00, 0.00, -0.00, -0.87, 0.0, 540.0)"></image><image xlink:href="../../ECCF905B-E605-4604-BF46-AE14DB3CB00F/assets/AFED87C6F3479549274DF9D7FF144B7A.jpeg" width="138.00" height="82.00" transform="matrix(0.99, 0.00, -0.00, -1.00, 643.0, 82.0)"></image><text xml:space="preserve" font-family="Verdana-Bold" font-weight="bold" font-size="40.0" fill="#FF9933" transform="matrix(1.00, 0.00, -0.00, -1.00, 196.0, 475.0)">A</text><text xml:space="preserve" font-family="Verdana-Bold" font-weight="bold" font-size="40.0" fill="#FF9933" transform="matrix(1.00, 0.00, -0.00, -1.00, 227.1, 475.0)">g</text><text xml:space="preserve" font-family="Verdana-Bold" font-weight="bold" font-size="40.0" fill="#FF9933" transform="matrix(1.00, 0.00, -0.00, -1.00, 255.0, 475.0)">r</text><text xml:space="preserve" font-family="Verdana-Bold" font-weight="bold" font-size="40.0" fill="#FF9933" transform="matrix(1.00, 0.00, -0.00, -1.00, 274.9, 475.0)">a</text><text xml:space="preserve" font-family="Verdana-Bold" font-weight="bold" font-size="40.0" fill="#FF9933" transform="matrix(1.00, 0.00, -0.00, -1.00, 301.7, 475.0)">d</text><text xml:space="preserve" font-family="Verdana-Bold" font-weight="bold" font-size="40.0" fill="#FF9933" transform="matrix(1.00, 0.00, -0.00, -1.00, 329.6, 475.0)">e</text><text xml:space="preserve" font-family="Verdana-Bold" font-weight="bold" font-size="40.0" fill="#FF9933" transform="matrix(1.00, 0.00, -0.00, -1.00, 356.2, 475.0)">c</text><text xml:space="preserve" font-family="Verdana-Bold" font-weight="bold" font-size="40.0" fill="#FF9933" transform="matrix(1.00, 0.00, -0.00, -1.00, 379.7, 475.0)">i</text><text xml:space="preserve" font-family="Verdana-Bold" font-weight="bold" font-size="40.0" fill="#FF9933" transform="matrix(1.00, 0.00, -0.00, -1.00, 393.4, 475.0)">m</text><text xml:space="preserve" font-family="Verdana-Bold" font-weight="bold" font-size="40.0" fill="#FF9933" transform="matrix(1.00, 0.00, -0.00, -1.00, 435.7, 475.0)">i</text><text xml:space="preserve" font-family="Verdana-Bold" font-weight="bold" font-size="40.0" fill="#FF9933" transform="matrix(1.00, 0.00, -0.00, -1.00, 449.4, 475.0)">e</text><text xml:space="preserve" font-family="Verdana-Bold" font-weight="bold" font-size="40.0" fill="#FF9933" transform="matrix(1.00, 0.00, -0.00, -1.00, 476.0, 475.0)">n</text><text xml:space="preserve" font-family="Verdana-Bold" font-weight="bold" font-size="40.0" fill="#FF9933" transform="matrix(1.00, 0.00, -0.00, -1.00, 504.5, 475.0)">t</text><text xml:space="preserve" font-family="Verdana-Bold" font-weight="bold" font-size="40.0" fill="#FF9933" transform="matrix(1.00, 0.00, -0.00, -1.00, 522.7, 475.0)">o</text><text xml:space="preserve" font-family="Verdana-Bold" font-weight="bold" font-size="40.0" fill="#FF9933" transform="matrix(1.00, 0.00, -0.00, -1.00, 550.1, 475.0)">s</text><g><clipPath id="clip-255"><path d="M 82.9 110.6 L 708.1 110.6 L 708.1 407.1 L 82.9 407.1 Z M 82.9 110.6 "></path></clipPath><g clip-path="url(#clip-255)"><image xlink:href="13A20C0F795A1AEC641C31F32E55CD68.png" width="622.00" height="294.00" transform="matrix(1.00, 0.00, -0.00, -1.00, 84.9, 405.1)"></image></g></g><g><clipPath id="clip-256"><path d="M 83.9 406.1 L 696.1 406.1 L 696.1 122.6 L 83.9 122.6 Z M 83.9 406.1 "></path></clipPath><g clip-path="url(#clip-256)"><g><clipPath id="clip-257"><path d="M 82.9 110.6 L 708.1 110.6 L 708.1 407.1 L 82.9 407.1 Z M 82.9 110.6 "></path></clipPath><g clip-path="url(#clip-257)"><path d="M 82.9 110.6 L 708.1 110.6 L 708.1 407.1 L 82.9 407.1 Z M 82.9 110.6 " fill="url(#gradSh1.26)"></path></g></g></g></g><g><clipPath id="clip-258"><path d="M 80.3 146.9 L 699.7 146.9 L 699.7 376.0 L 80.3 376.0 Z M 80.3 146.9 "></path></clipPath><g clip-path="url(#clip-258)"><text xml:space="preserve" font-family="Verdana-Bold" font-weight="bold" font-size="24.0" fill="#CC0000" transform="matrix(1.00, 0.00, -0.00, -1.00, 107.0, 345.0)">E</text><text xml:space="preserve" font-family="Verdana-Bold" font-weight="bold" font-size="24.0" fill="#CC0000" transform="matrix(1.00, 0.00, -0.00, -1.00, 123.4, 345.0)">s</text><text xml:space="preserve" font-family="Verdana-Bold" font-weight="bold" font-size="24.0" fill="#CC0000" transform="matrix(1.00, 0.00, -0.00, -1.00, 137.6, 345.0)">t</text><text xml:space="preserve" font-family="Verdana-Bold" font-weight="bold" font-size="24.0" fill="#CC0000" transform="matrix(1.00, 0.00, -0.00, -1.00, 148.6, 345.0)">a</text><text xml:space="preserve" font-family="Verdana-Bold" font-weight="bold" font-size="24.0" fill="#CC0000" transform="matrix(1.00, 0.00, -0.00, -1.00, 164.6, 345.0)"> </text><text xml:space="preserve" font-family="Verdana-Bold" font-weight="bold" font-size="24.0" fill="#CC0000" transform="matrix(1.00, 0.00, -0.00, -1.00, 172.8, 345.0)">p</text><text xml:space="preserve" font-family="Verdana-Bold" font-weight="bold" font-size="24.0" fill="#CC0000" transform="matrix(1.00, 0.00, -0.00, -1.00, 189.6, 345.0)">r</text><text xml:space="preserve" font-family="Verdana-Bold" font-weight="bold" font-size="24.0" fill="#CC0000" transform="matrix(1.00, 0.00, -0.00, -1.00, 201.5, 345.0)">e</text><text xml:space="preserve" font-family="Verdana-Bold" font-weight="bold" font-size="24.0" fill="#CC0000" transform="matrix(1.00, 0.00, -0.00, -1.00, 217.5, 345.0)">s</text><text xml:space="preserve" font-family="Verdana-Bold" font-weight="bold" font-size="24.0" fill="#CC0000" transform="matrix(1.00, 0.00, -0.00, -1.00, 231.7, 345.0)">e</text><text xml:space="preserve" font-family="Verdana-Bold" font-weight="bold" font-size="24.0" fill="#CC0000" transform="matrix(1.00, 0.00, -0.00, -1.00, 247.6, 345.0)">n</text><text xml:space="preserve" font-family="Verdana-Bold" font-weight="bold" font-size="24.0" fill="#CC0000" transform="matrix(1.00, 0.00, -0.00, -1.00, 264.7, 345.0)">t</text><text xml:space="preserve" font-family="Verdana-Bold" font-weight="bold" font-size="24.0" fill="#CC0000" transform="matrix(1.00, 0.00, -0.00, -1.00, 275.7, 345.0)">a</text><text xml:space="preserve" font-family="Verdana-Bold" font-weight="bold" font-size="24.0" fill="#CC0000" transform="matrix(1.00, 0.00, -0.00, -1.00, 291.7, 345.0)">c</text><text xml:space="preserve" font-family="Verdana-Bold" font-weight="bold" font-size="24.0" fill="#CC0000" transform="matrix(1.00, 0.00, -0.00, -1.00, 305.8, 345.0)">i</text><text xml:space="preserve" font-family="Verdana-Bold" font-weight="bold" font-size="24.0" fill="#CC0000" transform="matrix(1.00, 0.00, -0.00, -1.00, 314.0, 345.0)">ó</text><text xml:space="preserve" font-family="Verdana-Bold" font-weight="bold" font-size="24.0" fill="#CC0000" transform="matrix(1.00, 0.00, -0.00, -1.00, 330.5, 345.0)">n</text><text xml:space="preserve" font-family="Verdana-Bold" font-weight="bold" font-size="24.0" fill="#CC0000" transform="matrix(1.00, 0.00, -0.00, -1.00, 347.6, 345.0)"> </text><text xml:space="preserve" font-family="Verdana-Bold" font-weight="bold" font-size="24.0" fill="#CC0000" transform="matrix(1.00, 0.00, -0.00, -1.00, 355.8, 345.0)">e</text><text xml:space="preserve" font-family="Verdana-Bold" font-weight="bold" font-size="24.0" fill="#CC0000" transform="matrix(1.00, 0.00, -0.00, -1.00, 371.7, 345.0)">s</text><text xml:space="preserve" font-family="Verdana-Bold" font-weight="bold" font-size="24.0" fill="#CC0000" transform="matrix(1.00, 0.00, -0.00, -1.00, 386.0, 345.0)">t</text><text xml:space="preserve" font-family="Verdana-Bold" font-weight="bold" font-size="24.0" fill="#CC0000" transform="matrix(1.00, 0.00, -0.00, -1.00, 396.9, 345.0)">á</text><text xml:space="preserve" font-family="Verdana-Bold" font-weight="bold" font-size="24.0" fill="#CC0000" transform="matrix(1.00, 0.00, -0.00, -1.00, 412.9, 345.0)"> </text><text xml:space="preserve" font-family="Verdana-Bold" font-weight="bold" font-size="24.0" fill="#CC0000" transform="matrix(1.00, 0.00, -0.00, -1.00, 421.1, 345.0)">d</text><text xml:space="preserve" font-family="Verdana-Bold" font-weight="bold" font-size="24.0" fill="#CC0000" transform="matrix(1.00, 0.00, -0.00, -1.00, 437.9, 345.0)">e</text><text xml:space="preserve" font-family="Verdana-Bold" font-weight="bold" font-size="24.0" fill="#CC0000" transform="matrix(1.00, 0.00, -0.00, -1.00, 453.9, 345.0)">d</text><text xml:space="preserve" font-family="Verdana-Bold" font-weight="bold" font-size="24.0" fill="#CC0000" transform="matrix(1.00, 0.00, -0.00, -1.00, 470.7, 345.0)">i</text><text xml:space="preserve" font-family="Verdana-Bold" font-weight="bold" font-size="24.0" fill="#CC0000" transform="matrix(1.00, 0.00, -0.00, -1.00, 478.9, 345.0)">c</text><text xml:space="preserve" font-family="Verdana-Bold" font-weight="bold" font-size="24.0" fill="#CC0000" transform="matrix(1.00, 0.00, -0.00, -1.00, 493.0, 345.0)">a</text><text xml:space="preserve" font-family="Verdana-Bold" font-weight="bold" font-size="24.0" fill="#CC0000" transform="matrix(1.00, 0.00, -0.00, -1.00, 509.0, 345.0)">d</text><text xml:space="preserve" font-family="Verdana-Bold" font-weight="bold" font-size="24.0" fill="#CC0000" transform="matrix(1.00, 0.00, -0.00, -1.00, 525.8, 345.0)">a</text><text xml:space="preserve" font-family="Verdana-Bold" font-weight="bold" font-size="24.0" fill="#CC0000" transform="matrix(1.00, 0.00, -0.00, -1.00, 541.8, 345.0)"> </text><text xml:space="preserve" font-family="Verdana-Bold" font-weight="bold" font-size="24.0" fill="#CC0000" transform="matrix(1.00, 0.00, -0.00, -1.00, 550.0, 345.0)">a</text><text xml:space="preserve" font-family="Verdana-Bold" font-weight="bold" font-size="24.0" fill="#CC0000" transform="matrix(1.00, 0.00, -0.00, -1.00, 566.1, 345.0)">l</text><text xml:space="preserve" font-family="Verdana-Bold" font-weight="bold" font-size="24.0" fill="#CC0000" transform="matrix(1.00, 0.00, -0.00, -1.00, 574.3, 345.0)"> </text><text xml:space="preserve" font-family="Verdana-Bold" font-weight="bold" font-size="24.0" fill="#CC0000" transform="matrix(1.00, 0.00, -0.00, -1.00, 582.5, 345.0)">e</text><text xml:space="preserve" font-family="Verdana-Bold" font-weight="bold" font-size="24.0" fill="#CC0000" transform="matrix(1.00, 0.00, -0.00, -1.00, 598.4, 345.0)">q</text><text xml:space="preserve" font-family="Verdana-Bold" font-weight="bold" font-size="24.0" fill="#CC0000" transform="matrix(1.00, 0.00, -0.00, -1.00, 615.2, 345.0)">u</text><text xml:space="preserve" font-family="Verdana-Bold" font-weight="bold" font-size="24.0" fill="#CC0000" transform="matrix(1.00, 0.00, -0.00, -1.00, 632.3, 345.0)">i</text><text xml:space="preserve" font-family="Verdana-Bold" font-weight="bold" font-size="24.0" fill="#CC0000" transform="matrix(1.00, 0.00, -0.00, -1.00, 640.5, 345.0)">p</text><text xml:space="preserve" font-family="Verdana-Bold" font-weight="bold" font-size="24.0" fill="#CC0000" transform="matrix(1.00, 0.00, -0.00, -1.00, 657.3, 345.0)">o</text><text xml:space="preserve" font-family="Verdana-Bold" font-weight="bold" font-size="24.0" fill="#CC0000" transform="matrix(1.00, 0.00, -0.00, -1.00, 673.7, 345.0)"> </text><text xml:space="preserve" font-family="Verdana-Bold" font-weight="bold" font-size="24.0" fill="#CC0000" transform="matrix(1.00, 0.00, -0.00, -1.00, 142.0, 310.0)">d</text><text xml:space="preserve" font-family="Verdana-Bold" font-weight="bold" font-size="24.0" fill="#CC0000" transform="matrix(1.00, 0.00, -0.00, -1.00, 158.8, 310.0)">e</text><text xml:space="preserve" font-family="Verdana-Bold" font-weight="bold" font-size="24.0" fill="#CC0000" transform="matrix(1.00, 0.00, -0.00, -1.00, 174.7, 310.0)"> </text><text xml:space="preserve" font-family="Verdana-Bold" font-weight="bold" font-size="24.0" fill="#CC0000" transform="matrix(1.00, 0.00, -0.00, -1.00, 182.9, 310.0)">C</text><text xml:space="preserve" font-family="Verdana-Bold" font-weight="bold" font-size="24.0" fill="#CC0000" transform="matrix(1.00, 0.00, -0.00, -1.00, 200.3, 310.0)">A</text><text xml:space="preserve" font-family="Verdana-Bold" font-weight="bold" font-size="24.0" fill="#CC0000" transform="matrix(1.00, 0.00, -0.00, -1.00, 218.9, 310.0)">S</text><text xml:space="preserve" font-family="Verdana-Bold" font-weight="bold" font-size="24.0" fill="#CC0000" transform="matrix(1.00, 0.00, -0.00, -1.00, 236.0, 310.0)">E</text><text xml:space="preserve" font-family="Verdana-Bold" font-weight="bold" font-size="24.0" fill="#CC0000" transform="matrix(1.00, 0.00, -0.00, -1.00, 252.4, 310.0)">R</text><text xml:space="preserve" font-family="Verdana-Bold" font-weight="bold" font-size="24.0" fill="#CC0000" transform="matrix(1.00, 0.00, -0.00, -1.00, 271.2, 310.0)"> </text><text xml:space="preserve" font-family="Verdana-Bold" font-weight="bold" font-size="24.0" fill="#CC0000" transform="matrix(1.00, 0.00, -0.00, -1.00, 279.4, 310.0)">e</text><text xml:space="preserve" font-family="Verdana-Bold" font-weight="bold" font-size="24.0" fill="#CC0000" transform="matrix(1.00, 0.00, -0.00, -1.00, 295.3, 310.0)">n</text><text xml:space="preserve" font-family="Verdana-Bold" font-weight="bold" font-size="24.0" fill="#CC0000" transform="matrix(1.00, 0.00, -0.00, -1.00, 312.4, 310.0)"> </text><text xml:space="preserve" font-family="Verdana-Bold" font-weight="bold" font-size="24.0" fill="#CC0000" transform="matrix(1.00, 0.00, -0.00, -1.00, 320.6, 310.0)">T</text><text xml:space="preserve" font-family="Verdana-Bold" font-weight="bold" font-size="24.0" fill="#CC0000" transform="matrix(1.00, 0.00, -0.00, -1.00, 337.0, 310.0)">i</text><text xml:space="preserve" font-family="Verdana-Bold" font-weight="bold" font-size="24.0" fill="#CC0000" transform="matrix(1.00, 0.00, -0.00, -1.00, 345.2, 310.0)">s</text><text xml:space="preserve" font-family="Verdana-Bold" font-weight="bold" font-size="24.0" fill="#CC0000" transform="matrix(1.00, 0.00, -0.00, -1.00, 359.4, 310.0)">s</text><text xml:space="preserve" font-family="Verdana-Bold" font-weight="bold" font-size="24.0" fill="#CC0000" transform="matrix(1.00, 0.00, -0.00, -1.00, 373.6, 310.0)">a</text><text xml:space="preserve" font-family="Verdana-Bold" font-weight="bold" font-size="24.0" fill="#CC0000" transform="matrix(1.00, 0.00, -0.00, -1.00, 389.7, 310.0)">t</text><text xml:space="preserve" font-family="Verdana-Bold" font-weight="bold" font-size="24.0" fill="#CC0000" transform="matrix(1.00, 0.00, -0.00, -1.00, 400.6, 310.0)">,</text><text xml:space="preserve" font-family="Verdana-Bold" font-weight="bold" font-size="24.0" fill="#CC0000" transform="matrix(1.00, 0.00, -0.00, -1.00, 409.3, 310.0)"> </text><text xml:space="preserve" font-family="Verdana-Bold" font-weight="bold" font-size="24.0" fill="#CC0000" transform="matrix(1.00, 0.00, -0.00, -1.00, 417.5, 310.0)">s</text><text xml:space="preserve" font-family="Verdana-Bold" font-weight="bold" font-size="24.0" fill="#CC0000" transform="matrix(1.00, 0.00, -0.00, -1.00, 431.7, 310.0)">i</text><text xml:space="preserve" font-family="Verdana-Bold" font-weight="bold" font-size="24.0" fill="#CC0000" transform="matrix(1.00, 0.00, -0.00, -1.00, 439.9, 310.0)">n</text><text xml:space="preserve" font-family="Verdana-Bold" font-weight="bold" font-size="24.0" fill="#CC0000" transform="matrix(1.00, 0.00, -0.00, -1.00, 457.0, 310.0)"> </text><text xml:space="preserve" font-family="Verdana-Bold" font-weight="bold" font-size="24.0" fill="#CC0000" transform="matrix(1.00, 0.00, -0.00, -1.00, 465.2, 310.0)">l</text><text xml:space="preserve" font-family="Verdana-Bold" font-weight="bold" font-size="24.0" fill="#CC0000" transform="matrix(1.00, 0.00, -0.00, -1.00, 473.4, 310.0)">o</text><text xml:space="preserve" font-family="Verdana-Bold" font-weight="bold" font-size="24.0" fill="#CC0000" transform="matrix(1.00, 0.00, -0.00, -1.00, 489.9, 310.0)">s</text><text xml:space="preserve" font-family="Verdana-Bold" font-weight="bold" font-size="24.0" fill="#CC0000" transform="matrix(1.00, 0.00, -0.00, -1.00, 504.1, 310.0)"> </text><text xml:space="preserve" font-family="Verdana-Bold" font-weight="bold" font-size="24.0" fill="#CC0000" transform="matrix(1.00, 0.00, -0.00, -1.00, 512.3, 310.0)">c</text><text xml:space="preserve" font-family="Verdana-Bold" font-weight="bold" font-size="24.0" fill="#CC0000" transform="matrix(1.00, 0.00, -0.00, -1.00, 526.5, 310.0)">u</text><text xml:space="preserve" font-family="Verdana-Bold" font-weight="bold" font-size="24.0" fill="#CC0000" transform="matrix(1.00, 0.00, -0.00, -1.00, 543.6, 310.0)">a</text><text xml:space="preserve" font-family="Verdana-Bold" font-weight="bold" font-size="24.0" fill="#CC0000" transform="matrix(1.00, 0.00, -0.00, -1.00, 559.6, 310.0)">l</text><text xml:space="preserve" font-family="Verdana-Bold" font-weight="bold" font-size="24.0" fill="#CC0000" transform="matrix(1.00, 0.00, -0.00, -1.00, 567.8, 310.0)">e</text><text xml:space="preserve" font-family="Verdana-Bold" font-weight="bold" font-size="24.0" fill="#CC0000" transform="matrix(1.00, 0.00, -0.00, -1.00, 583.7, 310.0)">s</text><text xml:space="preserve" font-family="Verdana-Bold" font-weight="bold" font-size="24.0" fill="#CC0000" transform="matrix(1.00, 0.00, -0.00, -1.00, 598.0, 310.0)"> </text><text xml:space="preserve" font-family="Verdana-Bold" font-weight="bold" font-size="24.0" fill="#CC0000" transform="matrix(1.00, 0.00, -0.00, -1.00, 606.2, 310.0)">W</text><text xml:space="preserve" font-family="Verdana-Bold" font-weight="bold" font-size="24.0" fill="#CC0000" transform="matrix(1.00, 0.00, -0.00, -1.00, 633.3, 310.0)">A</text><text xml:space="preserve" font-family="Verdana-Bold" font-weight="bold" font-size="24.0" fill="#CC0000" transform="matrix(1.00, 0.00, -0.00, -1.00, 651.9, 310.0)">M</text><text xml:space="preserve" font-family="Verdana-Bold" font-weight="bold" font-size="24.0" fill="#CC0000" transform="matrix(1.00, 0.00, -0.00, -1.00, 674.7, 310.0)"> </text><text xml:space="preserve" font-family="Verdana-Bold" font-weight="bold" font-size="24.0" fill="#CC0000" transform="matrix(1.00, 0.00, -0.00, -1.00, 247.0, 275.0)">n</text><text xml:space="preserve" font-family="Verdana-Bold" font-weight="bold" font-size="24.0" fill="#CC0000" transform="matrix(1.00, 0.00, -0.00, -1.00, 264.1, 275.0)">o</text><text xml:space="preserve" font-family="Verdana-Bold" font-weight="bold" font-size="24.0" fill="#CC0000" transform="matrix(1.00, 0.00, -0.00, -1.00, 280.6, 275.0)"> </text><text xml:space="preserve" font-family="Verdana-Bold" font-weight="bold" font-size="24.0" fill="#CC0000" transform="matrix(1.00, 0.00, -0.00, -1.00, 288.8, 275.0)">h</text><text xml:space="preserve" font-family="Verdana-Bold" font-weight="bold" font-size="24.0" fill="#CC0000" transform="matrix(1.00, 0.00, -0.00, -1.00, 305.9, 275.0)">u</text><text xml:space="preserve" font-family="Verdana-Bold" font-weight="bold" font-size="24.0" fill="#CC0000" transform="matrix(1.00, 0.00, -0.00, -1.00, 323.0, 275.0)">b</text><text xml:space="preserve" font-family="Verdana-Bold" font-weight="bold" font-size="24.0" fill="#CC0000" transform="matrix(1.00, 0.00, -0.00, -1.00, 339.8, 275.0)">i</text><text xml:space="preserve" font-family="Verdana-Bold" font-weight="bold" font-size="24.0" fill="#CC0000" transform="matrix(1.00, 0.00, -0.00, -1.00, 348.0, 275.0)">e</text><text xml:space="preserve" font-family="Verdana-Bold" font-weight="bold" font-size="24.0" fill="#CC0000" transform="matrix(1.00, 0.00, -0.00, -1.00, 363.9, 275.0)">r</text><text xml:space="preserve" font-family="Verdana-Bold" font-weight="bold" font-size="24.0" fill="#CC0000" transform="matrix(1.00, 0.00, -0.00, -1.00, 375.8, 275.0)">a</text><text xml:space="preserve" font-family="Verdana-Bold" font-weight="bold" font-size="24.0" fill="#CC0000" transform="matrix(1.00, 0.00, -0.00, -1.00, 391.9, 275.0)"> </text><text xml:space="preserve" font-family="Verdana-Bold" font-weight="bold" font-size="24.0" fill="#CC0000" transform="matrix(1.00, 0.00, -0.00, -1.00, 400.1, 275.0)">s</text><text xml:space="preserve" font-family="Verdana-Bold" font-weight="bold" font-size="24.0" fill="#CC0000" transform="matrix(1.00, 0.00, -0.00, -1.00, 414.3, 275.0)">i</text><text xml:space="preserve" font-family="Verdana-Bold" font-weight="bold" font-size="24.0" fill="#CC0000" transform="matrix(1.00, 0.00, -0.00, -1.00, 422.5, 275.0)">d</text><text xml:space="preserve" font-family="Verdana-Bold" font-weight="bold" font-size="24.0" fill="#CC0000" transform="matrix(1.00, 0.00, -0.00, -1.00, 439.3, 275.0)">o</text><text xml:space="preserve" font-family="Verdana-Bold" font-weight="bold" font-size="24.0" fill="#CC0000" transform="matrix(1.00, 0.00, -0.00, -1.00, 455.8, 275.0)"> </text><text xml:space="preserve" font-family="Verdana-Bold" font-weight="bold" font-size="24.0" fill="#CC0000" transform="matrix(1.00, 0.00, -0.00, -1.00, 464.0, 275.0)">p</text><text xml:space="preserve" font-family="Verdana-Bold" font-weight="bold" font-size="24.0" fill="#CC0000" transform="matrix(1.00, 0.00, -0.00, -1.00, 480.7, 275.0)">o</text><text xml:space="preserve" font-family="Verdana-Bold" font-weight="bold" font-size="24.0" fill="#CC0000" transform="matrix(1.00, 0.00, -0.00, -1.00, 497.2, 275.0)">s</text><text xml:space="preserve" font-family="Verdana-Bold" font-weight="bold" font-size="24.0" fill="#CC0000" transform="matrix(1.00, 0.00, -0.00, -1.00, 511.5, 275.0)">i</text><text xml:space="preserve" font-family="Verdana-Bold" font-weight="bold" font-size="24.0" fill="#CC0000" transform="matrix(1.00, 0.00, -0.00, -1.00, 519.7, 275.0)">b</text><text xml:space="preserve" font-family="Verdana-Bold" font-weight="bold" font-size="24.0" fill="#CC0000" transform="matrix(1.00, 0.00, -0.00, -1.00, 536.4, 275.0)">l</text><text xml:space="preserve" font-family="Verdana-Bold" font-weight="bold" font-size="24.0" fill="#CC0000" transform="matrix(1.00, 0.00, -0.00, -1.00, 544.6, 275.0)">e</text><text xml:space="preserve" font-family="Verdana-Bold" font-weight="bold" font-size="24.0" fill="#CC0000" transform="matrix(1.00, 0.00, -0.00, -1.00, 560.6, 275.0)">.</text><text xml:space="preserve" font-family="Verdana-Bold" font-weight="bold" font-size="24.0" fill="#CC0000" transform="matrix(1.00, 0.00, -0.00, -1.00, 569.3, 275.0)"> </text><text xml:space="preserve" font-family="Verdana-Bold" font-weight="bold" font-size="24.0" fill="#CC0000" transform="matrix(1.00, 0.00, -0.00, -1.00, 577.5, 275.0)"> </text><text xml:space="preserve" font-family="Verdana-Bold" font-weight="bold" font-size="24.0" fill="#CC0000" transform="matrix(1.00, 0.00, -0.00, -1.00, 104.0, 235.0)">A</text><text xml:space="preserve" font-family="Verdana-Bold" font-weight="bold" font-size="24.0" fill="#CC0000" transform="matrix(1.00, 0.00, -0.00, -1.00, 122.6, 235.0)"> </text><text xml:space="preserve" font-family="Verdana-Bold" font-weight="bold" font-size="24.0" fill="#CC0000" transform="matrix(1.00, 0.00, -0.00, -1.00, 130.8, 235.0)">t</text><text xml:space="preserve" font-family="Verdana-Bold" font-weight="bold" font-size="24.0" fill="#CC0000" transform="matrix(1.00, 0.00, -0.00, -1.00, 141.8, 235.0)">o</text><text xml:space="preserve" font-family="Verdana-Bold" font-weight="bold" font-size="24.0" fill="#CC0000" transform="matrix(1.00, 0.00, -0.00, -1.00, 158.2, 235.0)">d</text><text xml:space="preserve" font-family="Verdana-Bold" font-weight="bold" font-size="24.0" fill="#CC0000" transform="matrix(1.00, 0.00, -0.00, -1.00, 175.0, 235.0)">o</text><text xml:space="preserve" font-family="Verdana-Bold" font-weight="bold" font-size="24.0" fill="#CC0000" transform="matrix(1.00, 0.00, -0.00, -1.00, 191.5, 235.0)">s</text><text xml:space="preserve" font-family="Verdana-Bold" font-weight="bold" font-size="24.0" fill="#CC0000" transform="matrix(1.00, 0.00, -0.00, -1.00, 205.7, 235.0)"> </text><text xml:space="preserve" font-family="Verdana-Bold" font-weight="bold" font-size="24.0" fill="#CC0000" transform="matrix(1.00, 0.00, -0.00, -1.00, 213.9, 235.0)">e</text><text xml:space="preserve" font-family="Verdana-Bold" font-weight="bold" font-size="24.0" fill="#CC0000" transform="matrix(1.00, 0.00, -0.00, -1.00, 229.9, 235.0)">l</text><text xml:space="preserve" font-family="Verdana-Bold" font-weight="bold" font-size="24.0" fill="#CC0000" transform="matrix(1.00, 0.00, -0.00, -1.00, 238.1, 235.0)">l</text><text xml:space="preserve" font-family="Verdana-Bold" font-weight="bold" font-size="24.0" fill="#CC0000" transform="matrix(1.00, 0.00, -0.00, -1.00, 246.3, 235.0)">o</text><text xml:space="preserve" font-family="Verdana-Bold" font-weight="bold" font-size="24.0" fill="#CC0000" transform="matrix(1.00, 0.00, -0.00, -1.00, 262.7, 235.0)">s</text><text xml:space="preserve" font-family="Verdana-Bold" font-weight="bold" font-size="24.0" fill="#CC0000" transform="matrix(1.00, 0.00, -0.00, -1.00, 277.0, 235.0)">,</text><text xml:space="preserve" font-family="Verdana-Bold" font-weight="bold" font-size="24.0" fill="#CC0000" transform="matrix(1.00, 0.00, -0.00, -1.00, 285.6, 235.0)"> </text><text xml:space="preserve" font-family="Verdana-Bold" font-weight="bold" font-size="24.0" fill="#CC0000" transform="matrix(1.00, 0.00, -0.00, -1.00, 293.8, 235.0)">g</text><text xml:space="preserve" font-family="Verdana-Bold" font-weight="bold" font-size="24.0" fill="#CC0000" transform="matrix(1.00, 0.00, -0.00, -1.00, 310.6, 235.0)">r</text><text xml:space="preserve" font-family="Verdana-Bold" font-weight="bold" font-size="24.0" fill="#CC0000" transform="matrix(1.00, 0.00, -0.00, -1.00, 322.6, 235.0)">a</text><text xml:space="preserve" font-family="Verdana-Bold" font-weight="bold" font-size="24.0" fill="#CC0000" transform="matrix(1.00, 0.00, -0.00, -1.00, 338.6, 235.0)">c</text><text xml:space="preserve" font-family="Verdana-Bold" font-weight="bold" font-size="24.0" fill="#CC0000" transform="matrix(1.00, 0.00, -0.00, -1.00, 352.7, 235.0)">i</text><text xml:space="preserve" font-family="Verdana-Bold" font-weight="bold" font-size="24.0" fill="#CC0000" transform="matrix(1.00, 0.00, -0.00, -1.00, 360.9, 235.0)">a</text><text xml:space="preserve" font-family="Verdana-Bold" font-weight="bold" font-size="24.0" fill="#CC0000" transform="matrix(1.00, 0.00, -0.00, -1.00, 377.0, 235.0)">s</text><text xml:space="preserve" font-family="Verdana-Bold" font-weight="bold" font-size="24.0" fill="#CC0000" transform="matrix(1.00, 0.00, -0.00, -1.00, 391.2, 235.0)"> </text><text xml:space="preserve" font-family="Verdana-Bold" font-weight="bold" font-size="24.0" fill="#CC0000" transform="matrix(1.00, 0.00, -0.00, -1.00, 399.4, 235.0)">p</text><text xml:space="preserve" font-family="Verdana-Bold" font-weight="bold" font-size="24.0" fill="#CC0000" transform="matrix(1.00, 0.00, -0.00, -1.00, 416.2, 235.0)">o</text><text xml:space="preserve" font-family="Verdana-Bold" font-weight="bold" font-size="24.0" fill="#CC0000" transform="matrix(1.00, 0.00, -0.00, -1.00, 432.7, 235.0)">r</text><text xml:space="preserve" font-family="Verdana-Bold" font-weight="bold" font-size="24.0" fill="#CC0000" transform="matrix(1.00, 0.00, -0.00, -1.00, 444.6, 235.0)"> </text><text xml:space="preserve" font-family="Verdana-Bold" font-weight="bold" font-size="24.0" fill="#CC0000" transform="matrix(1.00, 0.00, -0.00, -1.00, 452.8, 235.0)">s</text><text xml:space="preserve" font-family="Verdana-Bold" font-weight="bold" font-size="24.0" fill="#CC0000" transform="matrix(1.00, 0.00, -0.00, -1.00, 467.0, 235.0)">u</text><text xml:space="preserve" font-family="Verdana-Bold" font-weight="bold" font-size="24.0" fill="#CC0000" transform="matrix(1.00, 0.00, -0.00, -1.00, 484.1, 235.0)"> </text><text xml:space="preserve" font-family="Verdana-Bold" font-weight="bold" font-size="24.0" fill="#CC0000" transform="matrix(1.00, 0.00, -0.00, -1.00, 492.3, 235.0)">t</text><text xml:space="preserve" font-family="Verdana-Bold" font-weight="bold" font-size="24.0" fill="#CC0000" transform="matrix(1.00, 0.00, -0.00, -1.00, 503.3, 235.0)">r</text><text xml:space="preserve" font-family="Verdana-Bold" font-weight="bold" font-size="24.0" fill="#CC0000" transform="matrix(1.00, 0.00, -0.00, -1.00, 515.2, 235.0)">a</text><text xml:space="preserve" font-family="Verdana-Bold" font-weight="bold" font-size="24.0" fill="#CC0000" transform="matrix(1.00, 0.00, -0.00, -1.00, 531.2, 235.0)">b</text><text xml:space="preserve" font-family="Verdana-Bold" font-weight="bold" font-size="24.0" fill="#CC0000" transform="matrix(1.00, 0.00, -0.00, -1.00, 548.0, 235.0)">a</text><text xml:space="preserve" font-family="Verdana-Bold" font-weight="bold" font-size="24.0" fill="#CC0000" transform="matrix(1.00, 0.00, -0.00, -1.00, 564.0, 235.0)">j</text><text xml:space="preserve" font-family="Verdana-Bold" font-weight="bold" font-size="24.0" fill="#CC0000" transform="matrix(1.00, 0.00, -0.00, -1.00, 573.7, 235.0)">o</text><text xml:space="preserve" font-family="Verdana-Bold" font-weight="bold" font-size="24.0" fill="#CC0000" transform="matrix(1.00, 0.00, -0.00, -1.00, 590.2, 235.0)"> </text><text xml:space="preserve" font-family="Verdana-Bold" font-weight="bold" font-size="24.0" fill="#CC0000" transform="matrix(1.00, 0.00, -0.00, -1.00, 598.4, 235.0)">y</text><text xml:space="preserve" font-family="Verdana-Bold" font-weight="bold" font-size="24.0" fill="#CC0000" transform="matrix(1.00, 0.00, -0.00, -1.00, 614.0, 235.0)">,</text><text xml:space="preserve" font-family="Verdana-Bold" font-weight="bold" font-size="24.0" fill="#CC0000" transform="matrix(1.00, 0.00, -0.00, -1.00, 622.7, 235.0)"> </text><text xml:space="preserve" font-family="Verdana-Bold" font-weight="bold" font-size="24.0" fill="#CC0000" transform="matrix(1.00, 0.00, -0.00, -1.00, 630.9, 235.0)">p</text><text xml:space="preserve" font-family="Verdana-Bold" font-weight="bold" font-size="24.0" fill="#CC0000" transform="matrix(1.00, 0.00, -0.00, -1.00, 647.6, 235.0)">o</text><text xml:space="preserve" font-family="Verdana-Bold" font-weight="bold" font-size="24.0" fill="#CC0000" transform="matrix(1.00, 0.00, -0.00, -1.00, 664.1, 235.0)">r</text><text xml:space="preserve" font-family="Verdana-Bold" font-weight="bold" font-size="24.0" fill="#CC0000" transform="matrix(1.00, 0.00, -0.00, -1.00, 676.0, 235.0)"> </text><text xml:space="preserve" font-family="Verdana-Bold" font-weight="bold" font-size="24.0" fill="#CC0000" transform="matrix(1.00, 0.00, -0.00, -1.00, 131.0, 200.0)">h</text><text xml:space="preserve" font-family="Verdana-Bold" font-weight="bold" font-size="24.0" fill="#CC0000" transform="matrix(1.00, 0.00, -0.00, -1.00, 148.1, 200.0)">a</text><text xml:space="preserve" font-family="Verdana-Bold" font-weight="bold" font-size="24.0" fill="#CC0000" transform="matrix(1.00, 0.00, -0.00, -1.00, 164.1, 200.0)">b</text><text xml:space="preserve" font-family="Verdana-Bold" font-weight="bold" font-size="24.0" fill="#CC0000" transform="matrix(1.00, 0.00, -0.00, -1.00, 180.9, 200.0)">e</text><text xml:space="preserve" font-family="Verdana-Bold" font-weight="bold" font-size="24.0" fill="#CC0000" transform="matrix(1.00, 0.00, -0.00, -1.00, 196.9, 200.0)">r</text><text xml:space="preserve" font-family="Verdana-Bold" font-weight="bold" font-size="24.0" fill="#CC0000" transform="matrix(1.00, 0.00, -0.00, -1.00, 208.8, 200.0)"> </text><text xml:space="preserve" font-family="Verdana-Bold" font-weight="bold" font-size="24.0" fill="#CC0000" transform="matrix(1.00, 0.00, -0.00, -1.00, 217.0, 200.0)">c</text><text xml:space="preserve" font-family="Verdana-Bold" font-weight="bold" font-size="24.0" fill="#CC0000" transform="matrix(1.00, 0.00, -0.00, -1.00, 231.1, 200.0)">o</text><text xml:space="preserve" font-family="Verdana-Bold" font-weight="bold" font-size="24.0" fill="#CC0000" transform="matrix(1.00, 0.00, -0.00, -1.00, 247.6, 200.0)">n</text><text xml:space="preserve" font-family="Verdana-Bold" font-weight="bold" font-size="24.0" fill="#CC0000" transform="matrix(1.00, 0.00, -0.00, -1.00, 264.7, 200.0)">f</text><text xml:space="preserve" font-family="Verdana-Bold" font-weight="bold" font-size="24.0" fill="#CC0000" transform="matrix(1.00, 0.00, -0.00, -1.00, 274.8, 200.0)">i</text><text xml:space="preserve" font-family="Verdana-Bold" font-weight="bold" font-size="24.0" fill="#CC0000" transform="matrix(1.00, 0.00, -0.00, -1.00, 283.0, 200.0)">a</text><text xml:space="preserve" font-family="Verdana-Bold" font-weight="bold" font-size="24.0" fill="#CC0000" transform="matrix(1.00, 0.00, -0.00, -1.00, 299.1, 200.0)">d</text><text xml:space="preserve" font-family="Verdana-Bold" font-weight="bold" font-size="24.0" fill="#CC0000" transform="matrix(1.00, 0.00, -0.00, -1.00, 315.9, 200.0)">o</text><text xml:space="preserve" font-family="Verdana-Bold" font-weight="bold" font-size="24.0" fill="#CC0000" transform="matrix(1.00, 0.00, -0.00, -1.00, 332.3, 200.0)"> </text><text xml:space="preserve" font-family="Verdana-Bold" font-weight="bold" font-size="24.0" fill="#CC0000" transform="matrix(1.00, 0.00, -0.00, -1.00, 340.5, 200.0)">s</text><text xml:space="preserve" font-family="Verdana-Bold" font-weight="bold" font-size="24.0" fill="#CC0000" transform="matrix(1.00, 0.00, -0.00, -1.00, 354.8, 200.0)">i</text><text xml:space="preserve" font-family="Verdana-Bold" font-weight="bold" font-size="24.0" fill="#CC0000" transform="matrix(1.00, 0.00, -0.00, -1.00, 363.0, 200.0)">e</text><text xml:space="preserve" font-family="Verdana-Bold" font-weight="bold" font-size="24.0" fill="#CC0000" transform="matrix(1.00, 0.00, -0.00, -1.00, 378.9, 200.0)">m</text><text xml:space="preserve" font-family="Verdana-Bold" font-weight="bold" font-size="24.0" fill="#CC0000" transform="matrix(1.00, 0.00, -0.00, -1.00, 404.3, 200.0)">p</text><text xml:space="preserve" font-family="Verdana-Bold" font-weight="bold" font-size="24.0" fill="#CC0000" transform="matrix(1.00, 0.00, -0.00, -1.00, 421.1, 200.0)">r</text><text xml:space="preserve" font-family="Verdana-Bold" font-weight="bold" font-size="24.0" fill="#CC0000" transform="matrix(1.00, 0.00, -0.00, -1.00, 433.0, 200.0)">e</text><text xml:space="preserve" font-family="Verdana-Bold" font-weight="bold" font-size="24.0" fill="#CC0000" transform="matrix(1.00, 0.00, -0.00, -1.00, 449.0, 200.0)"> </text><text xml:space="preserve" font-family="Verdana-Bold" font-weight="bold" font-size="24.0" fill="#CC0000" transform="matrix(1.00, 0.00, -0.00, -1.00, 457.2, 200.0)">e</text><text xml:space="preserve" font-family="Verdana-Bold" font-weight="bold" font-size="24.0" fill="#CC0000" transform="matrix(1.00, 0.00, -0.00, -1.00, 473.1, 200.0)">n</text><text xml:space="preserve" font-family="Verdana-Bold" font-weight="bold" font-size="24.0" fill="#CC0000" transform="matrix(1.00, 0.00, -0.00, -1.00, 490.2, 200.0)"> </text><text xml:space="preserve" font-family="Verdana-Bold" font-weight="bold" font-size="24.0" fill="#CC0000" transform="matrix(1.00, 0.00, -0.00, -1.00, 498.4, 200.0)">m</text><text xml:space="preserve" font-family="Verdana-Bold" font-weight="bold" font-size="24.0" fill="#CC0000" transform="matrix(1.00, 0.00, -0.00, -1.00, 523.8, 200.0)">í</text><text xml:space="preserve" font-family="Verdana-Bold" font-weight="bold" font-size="24.0" fill="#CC0000" transform="matrix(1.00, 0.00, -0.00, -1.00, 532.0, 200.0)">,</text><text xml:space="preserve" font-family="Verdana-Bold" font-weight="bold" font-size="24.0" fill="#CC0000" transform="matrix(1.00, 0.00, -0.00, -1.00, 540.7, 200.0)"> </text><text xml:space="preserve" font-family="Verdana-Bold" font-weight="bold" font-size="24.0" fill="#CC0000" transform="matrix(1.00, 0.00, -0.00, -1.00, 548.9, 200.0)">i</text><text xml:space="preserve" font-family="Verdana-Bold" font-weight="bold" font-size="24.0" fill="#CC0000" transform="matrix(1.00, 0.00, -0.00, -1.00, 557.1, 200.0)">n</text><text xml:space="preserve" font-family="Verdana-Bold" font-weight="bold" font-size="24.0" fill="#CC0000" transform="matrix(1.00, 0.00, -0.00, -1.00, 574.2, 200.0)">c</text><text xml:space="preserve" font-family="Verdana-Bold" font-weight="bold" font-size="24.0" fill="#CC0000" transform="matrix(1.00, 0.00, -0.00, -1.00, 588.3, 200.0)">l</text><text xml:space="preserve" font-family="Verdana-Bold" font-weight="bold" font-size="24.0" fill="#CC0000" transform="matrix(1.00, 0.00, -0.00, -1.00, 596.5, 200.0)">u</text><text xml:space="preserve" font-family="Verdana-Bold" font-weight="bold" font-size="24.0" fill="#CC0000" transform="matrix(1.00, 0.00, -0.00, -1.00, 613.6, 200.0)">s</text><text xml:space="preserve" font-family="Verdana-Bold" font-weight="bold" font-size="24.0" fill="#CC0000" transform="matrix(1.00, 0.00, -0.00, -1.00, 627.9, 200.0)">o</text><text xml:space="preserve" font-family="Verdana-Bold" font-weight="bold" font-size="24.0" fill="#CC0000" transform="matrix(1.00, 0.00, -0.00, -1.00, 644.3, 200.0)"> </text><text xml:space="preserve" font-family="Verdana-Bold" font-weight="bold" font-size="24.0" fill="#CC0000" transform="matrix(1.00, 0.00, -0.00, -1.00, 652.5, 200.0)">e</text><text xml:space="preserve" font-family="Verdana-Bold" font-weight="bold" font-size="24.0" fill="#CC0000" transform="matrix(1.00, 0.00, -0.00, -1.00, 668.5, 200.0)">n</text><text xml:space="preserve" font-family="Verdana-Bold" font-weight="bold" font-size="24.0" fill="#CC0000" transform="matrix(1.00, 0.00, -0.00, -1.00, 685.6, 200.0)"> </text><text xml:space="preserve" font-family="Verdana-Bold" font-weight="bold" font-size="24.0" fill="#CC0000" transform="matrix(1.00, 0.00, -0.00, -1.00, 253.0, 165.0)">l</text><text xml:space="preserve" font-family="Verdana-Bold" font-weight="bold" font-size="24.0" fill="#CC0000" transform="matrix(1.00, 0.00, -0.00, -1.00, 261.2, 165.0)">o</text><text xml:space="preserve" font-family="Verdana-Bold" font-weight="bold" font-size="24.0" fill="#CC0000" transform="matrix(1.00, 0.00, -0.00, -1.00, 277.7, 165.0)">s</text><text xml:space="preserve" font-family="Verdana-Bold" font-weight="bold" font-size="24.0" fill="#CC0000" transform="matrix(1.00, 0.00, -0.00, -1.00, 291.9, 165.0)"> </text><text xml:space="preserve" font-family="Verdana-Bold" font-weight="bold" font-size="24.0" fill="#CC0000" transform="matrix(1.00, 0.00, -0.00, -1.00, 300.1, 165.0)">m</text><text xml:space="preserve" font-family="Verdana-Bold" font-weight="bold" font-size="24.0" fill="#CC0000" transform="matrix(1.00, 0.00, -0.00, -1.00, 325.5, 165.0)">o</text><text xml:space="preserve" font-family="Verdana-Bold" font-weight="bold" font-size="24.0" fill="#CC0000" transform="matrix(1.00, 0.00, -0.00, -1.00, 342.0, 165.0)">m</text><text xml:space="preserve" font-family="Verdana-Bold" font-weight="bold" font-size="24.0" fill="#CC0000" transform="matrix(1.00, 0.00, -0.00, -1.00, 367.4, 165.0)">e</text><text xml:space="preserve" font-family="Verdana-Bold" font-weight="bold" font-size="24.0" fill="#CC0000" transform="matrix(1.00, 0.00, -0.00, -1.00, 383.3, 165.0)">n</text><text xml:space="preserve" font-family="Verdana-Bold" font-weight="bold" font-size="24.0" fill="#CC0000" transform="matrix(1.00, 0.00, -0.00, -1.00, 400.4, 165.0)">t</text><text xml:space="preserve" font-family="Verdana-Bold" font-weight="bold" font-size="24.0" fill="#CC0000" transform="matrix(1.00, 0.00, -0.00, -1.00, 411.4, 165.0)">o</text><text xml:space="preserve" font-family="Verdana-Bold" font-weight="bold" font-size="24.0" fill="#CC0000" transform="matrix(1.00, 0.00, -0.00, -1.00, 427.8, 165.0)">s</text><text xml:space="preserve" font-family="Verdana-Bold" font-weight="bold" font-size="24.0" fill="#CC0000" transform="matrix(1.00, 0.00, -0.00, -1.00, 442.1, 165.0)"> </text><text xml:space="preserve" font-family="Verdana-Bold" font-weight="bold" font-size="24.0" fill="#CC0000" transform="matrix(1.00, 0.00, -0.00, -1.00, 450.3, 165.0)">d</text><text xml:space="preserve" font-family="Verdana-Bold" font-weight="bold" font-size="24.0" fill="#CC0000" transform="matrix(1.00, 0.00, -0.00, -1.00, 467.1, 165.0)">i</text><text xml:space="preserve" font-family="Verdana-Bold" font-weight="bold" font-size="24.0" fill="#CC0000" transform="matrix(1.00, 0.00, -0.00, -1.00, 475.3, 165.0)">f</text><text xml:space="preserve" font-family="Verdana-Bold" font-weight="bold" font-size="24.0" fill="#CC0000" transform="matrix(1.00, 0.00, -0.00, -1.00, 485.4, 165.0)">í</text><text xml:space="preserve" font-family="Verdana-Bold" font-weight="bold" font-size="24.0" fill="#CC0000" transform="matrix(1.00, 0.00, -0.00, -1.00, 493.6, 165.0)">c</text><text xml:space="preserve" font-family="Verdana-Bold" font-weight="bold" font-size="24.0" fill="#CC0000" transform="matrix(1.00, 0.00, -0.00, -1.00, 507.8, 165.0)">i</text><text xml:space="preserve" font-family="Verdana-Bold" font-weight="bold" font-size="24.0" fill="#CC0000" transform="matrix(1.00, 0.00, -0.00, -1.00, 516.0, 165.0)">l</text><text xml:space="preserve" font-family="Verdana-Bold" font-weight="bold" font-size="24.0" fill="#CC0000" transform="matrix(1.00, 0.00, -0.00, -1.00, 524.1, 165.0)">e</text><text xml:space="preserve" font-family="Verdana-Bold" font-weight="bold" font-size="24.0" fill="#CC0000" transform="matrix(1.00, 0.00, -0.00, -1.00, 540.1, 165.0)">s</text><text xml:space="preserve" font-family="Verdana-Bold" font-weight="bold" font-size="24.0" fill="#CC0000" transform="matrix(1.00, 0.00, -0.00, -1.00, 554.3, 165.0)">.</text></g></g></g></svg>