<svg xmlns="http://www.w3.org/2000/svg" width="1600" height="2400" viewBox="0 0 1600 2400">
  <defs>
    <linearGradient id="sky" x1="0" y1="0" x2="0" y2="1">
      <stop offset="0" stop-color="#10233f"/>
      <stop offset="0.48" stop-color="#275b78"/>
      <stop offset="1" stop-color="#d5b27c"/>
    </linearGradient>
    <linearGradient id="sea" x1="0" y1="0" x2="0" y2="1">
      <stop offset="0" stop-color="#164f6b"/>
      <stop offset="1" stop-color="#062539"/>
    </linearGradient>
    <radialGradient id="moon" cx="0.80" cy="0.22" r="0.16">
      <stop offset="0" stop-color="#fff8d8"/>
      <stop offset="1" stop-color="#fff8d8" stop-opacity="0"/>
    </radialGradient>
    <filter id="shadow" x="-20%" y="-20%" width="140%" height="140%">
      <feDropShadow dx="0" dy="18" stdDeviation="18" flood-color="#00101c" flood-opacity="0.38"/>
    </filter>
  </defs>
  <rect width="1600" height="2400" fill="url(#sky)"/>
  <rect width="1600" height="2400" fill="url(#moon)"/>
  <circle cx="1265" cy="470" r="105" fill="#f8f0cf"/>
  <path d="M0 1370 C260 1310 420 1430 640 1370 C860 1310 1040 1420 1600 1320 L1600 2400 L0 2400 Z" fill="url(#sea)" opacity="0.94"/>
  <path d="M0 1700 C260 1635 540 1735 810 1665 C1040 1608 1260 1685 1600 1580 L1600 2400 L0 2400 Z" fill="#d8b77b"/>
  <path d="M0 1820 C280 1760 520 1835 820 1770 C1060 1720 1265 1795 1600 1690" fill="none" stroke="#f8dfaa" stroke-width="8" opacity="0.7"/>

  <g filter="url(#shadow)">
    <path d="M405 930 L790 660 L1185 930 L1125 1360 L465 1360 Z" fill="#f0efe6"/>
    <path d="M500 905 L790 710 L1085 905 L1040 1315 L545 1315 Z" fill="#fbf8ec"/>
    <rect x="580" y="990" width="90" height="120" rx="8" fill="#2d75a2"/>
    <rect x="745" y="960" width="110" height="170" rx="8" fill="#2d75a2"/>
    <rect x="915" y="990" width="90" height="120" rx="8" fill="#2d75a2"/>
    <rect x="720" y="1170" width="155" height="245" rx="12" fill="#174c78"/>
    <path d="M402 930 L790 625 L1188 930" fill="none" stroke="#174c78" stroke-width="34" stroke-linejoin="round"/>
    <path d="M495 1370 L1115 1370" stroke="#174c78" stroke-width="24" stroke-linecap="round"/>
  </g>

  <g filter="url(#shadow)">
    <path d="M1220 690 L1290 690 L1325 1235 L1185 1235 Z" fill="#f5f1df"/>
    <path d="M1198 665 L1312 665 L1288 560 L1223 560 Z" fill="#143451"/>
    <rect x="1228" y="720" width="56" height="72" rx="4" fill="#f2c56b"/>
    <path d="M1160 1238 L1350 1238" stroke="#071c2d" stroke-width="28" stroke-linecap="round"/>
  </g>

  <g filter="url(#shadow)">
    <rect x="646" y="1605" width="310" height="520" rx="18" fill="#0d5e94"/>
    <path d="M646 1605 C700 1538 898 1538 956 1605" fill="#0b4168"/>
    <rect x="700" y="1665" width="202" height="450" rx="12" fill="#136fa6"/>
    <circle cx="870" cy="1880" r="14" fill="#d9c07d"/>
    <path d="M620 2125 C720 2170 865 2170 986 2125" stroke="#f2d99b" stroke-width="8" fill="none" opacity="0.65"/>
  </g>

  <path d="M1150 1835 C1192 1810 1230 1824 1248 1860 C1265 1895 1248 1940 1208 1954 C1178 1965 1144 1952 1128 1924 C1112 1895 1122 1854 1150 1835 Z" fill="#07111d"/>
  <circle cx="1199" cy="1852" r="7" fill="#f7d25f"/>
  <path d="M1185 1942 L1178 2015" stroke="#07111d" stroke-width="18" stroke-linecap="round"/>
  <path d="M1200 1940 L1238 2010" stroke="#07111d" stroke-width="18" stroke-linecap="round"/>
  <path d="M1168 1832 C1155 1800 1168 1770 1198 1762" stroke="#07111d" stroke-width="22" fill="none" stroke-linecap="round"/>

  <text x="808" y="278" text-anchor="middle" font-family="Georgia, serif" font-size="86" font-weight="700" fill="#071d32" opacity="0.42">The Moonwater Hotel</text>
  <text x="800" y="270" text-anchor="middle" font-family="Georgia, serif" font-size="86" font-weight="700" fill="#fff6dc">The Moonwater Hotel</text>
  <text x="800" y="370" text-anchor="middle" font-family="Georgia, serif" font-size="58" fill="#f3d592">The First Door</text>
  <text x="800" y="2220" text-anchor="middle" font-family="Arial, sans-serif" font-size="38" fill="#10233f" font-weight="700">A mysterious English reading adventure for families</text>
  <text x="800" y="2285" text-anchor="middle" font-family="Arial, sans-serif" font-size="34" fill="#10233f">A2+/B1 English Reader</text>
</svg>
