<?xml version="1.0" encoding="UTF-8" standalone="no"?><svg xmlns="http://www.w3.org/2000/svg" xmlns:xlink="http://www.w3.org/1999/xlink" clip-rule="evenodd" stroke-miterlimit="4.00" viewBox="0 0 720 540"><desc>SVG generated by Keynote</desc><defs></defs><g transform="matrix(1.00, 0.00, -0.00, -1.00, 0.0, 540.0)"><path d="M 0.0 540.0 L 720.0 540.0 L 720.0 0.0 L 0.0 0.0 Z M 0.0 540.0 " fill="#FFFFFF"></path><g><clipPath id="clip-27"><path d="M 54.0 24.0 L 720.0 24.0 L 720.0 201.9 L 54.0 201.9 Z M 54.0 24.0 "></path></clipPath><g clip-path="url(#clip-27)"><image xlink:href="../../8CD9ECB9-F015-49D3-B524-0FCB38A97773/assets/E989A57C148D8B26D55D21E6547D4410.jpeg" width="666.00" height="177.00" transform="matrix(1.00, 0.00, -0.00, -1.01, 54.0, 202.0)"></image></g></g><g><clipPath id="clip-28"><path d="M 54.0 474.6 L 174.0 474.6 L 174.0 516.0 L 54.0 516.0 Z M 54.0 474.6 "></path></clipPath><g clip-path="url(#clip-28)"><image xlink:href="../../8CD9ECB9-F015-49D3-B524-0FCB38A97773/assets/A8E54A60E4C88BDEBCA62791E88FE9E7.jpeg" width="120.00" height="41.00" transform="matrix(1.00, 0.00, -0.00, -1.00, 54.0, 516.0)"></image></g></g><g><clipPath id="clip-29"><path d="M 640.1 22.5 L 721.0 22.5 L 721.0 88.9 L 640.1 88.9 Z M 640.1 22.5 "></path></clipPath><g clip-path="url(#clip-29)"><path d="M 720.0 36.1 L 719.7 33.8 L 718.9 31.6 L 717.6 29.6 L 716.0 28.2 L 711.2 26.7 L 705.3 27.1 L 698.4 28.9 L 690.7 31.4 L 682.4 34.0 L 673.7 36.2 L 665.0 37.3 L 656.1 36.7 L 665.5 38.4 L 674.7 38.8 L 683.3 38.3 L 691.5 37.5 L 698.9 36.9 L 705.6 37.1 L 711.3 38.6 L 716.0 41.8 L 709.8 40.3 L 704.6 40.0 L 699.8 40.8 L 695.0 42.3 L 689.6 44.2 L 683.2 46.0 L 675.2 47.6 L 665.1 48.5 L 670.5 49.2 L 676.1 49.2 L 681.6 48.8 L 687.2 48.2 L 692.5 47.8 L 697.4 48.1 L 701.8 49.1 L 705.5 51.4 L 701.5 51.0 L 697.6 51.4 L 693.9 52.4 L 690.2 53.8 L 686.4 55.3 L 682.4 56.7 L 678.3 57.7 L 673.9 58.3 L 678.4 58.6 L 682.2 58.6 L 685.5 58.4 L 688.6 58.4 L 691.3 58.6 L 694.2 59.4 L 696.9 60.9 L 700.0 63.3 L 696.9 62.2 L 694.1 61.8 L 691.5 62.1 L 689.1 62.7 L 687.0 63.7 L 684.7 64.7 L 682.4 65.7 L 680.1 66.5 L 681.6 66.4 L 683.3 66.5 L 684.9 66.7 L 686.5 67.0 L 688.0 67.7 L 689.3 68.6 L 690.5 69.8 L 691.3 71.4 L 689.8 71.0 L 688.2 71.1 L 686.4 71.5 L 684.6 71.8 L 685.9 72.5 L 687.2 73.4 L 688.2 74.6 L 688.8 75.8 L 686.0 76.4 L 684.0 77.4 L 682.2 78.6 L 680.1 79.6 L 680.9 80.6 L 682.5 81.3 L 684.1 81.9 L 684.8 82.8 L 683.5 82.8 L 682.1 83.5 L 680.7 84.3 L 679.7 84.8 L 680.1 86.4 L 679.3 87.9 L 678.6 86.3 L 677.0 85.4 L 675.3 84.5 L 674.0 83.3 L 675.5 83.4 L 677.0 83.0 L 678.2 82.5 L 679.1 81.7 L 677.1 80.6 L 675.0 79.2 L 673.2 77.7 L 671.9 76.3 L 673.7 76.8 L 676.1 76.7 L 678.6 76.2 L 680.7 75.3 L 678.9 75.3 L 677.1 75.1 L 675.1 74.9 L 673.1 74.5 L 671.0 74.0 L 669.2 73.4 L 667.4 72.5 L 665.8 71.6 L 667.8 71.8 L 669.7 71.8 L 671.6 71.8 L 673.3 71.7 L 675.0 71.4 L 676.6 71.0 L 678.2 70.5 L 679.7 69.9 L 677.2 69.5 L 674.7 68.9 L 672.3 68.2 L 670.0 67.4 L 667.7 66.4 L 665.5 65.3 L 663.3 64.0 L 661.2 62.4 L 664.0 63.4 L 666.5 64.0 L 668.8 64.3 L 671.1 64.4 L 673.3 64.2 L 675.8 63.7 L 678.6 63.0 L 681.9 62.1 L 677.4 61.7 L 673.4 61.2 L 669.9 60.5 L 666.5 59.6 L 663.3 58.4 L 660.1 56.8 L 656.8 54.8 L 653.3 52.3 L 656.9 53.2 L 660.4 53.9 L 664.0 54.2 L 667.4 54.2 L 670.7 54.0 L 674.0 53.6 L 677.1 53.1 L 680.1 52.5 L 674.9 52.0 L 670.5 51.5 L 666.5 50.8 L 662.8 49.9 L 659.2 48.8 L 655.6 47.3 L 651.6 45.3 L 647.4 42.6 L 651.7 43.8 L 656.7 44.3 L 662.1 44.4 L 667.5 44.0 L 672.5 43.6 L 676.7 43.0 L 679.7 42.5 L 681.2 42.3 L 675.9 41.8 L 670.7 41.4 L 665.7 40.7 L 660.7 39.9 L 655.9 38.6 L 651.0 37.0 L 646.1 34.9 L 641.1 32.2 L 647.9 33.1 L 654.9 33.2 L 662.0 32.6 L 669.2 31.5 L 676.4 29.9 L 683.4 28.0 L 690.3 25.8 L 697.0 23.5 L 709.1 23.5 L 711.9 23.8 L 714.3 24.6 L 716.2 25.7 L 717.6 27.3 L 718.8 29.2 L 719.5 31.3 L 719.9 33.6 L 720.0 36.1 Z M 720.0 36.1 " fill="#0F4867"></path></g></g><g><clipPath id="clip-30"><path d="M 669.0 85.6 L 688.6 85.6 L 688.6 106.0 L 669.0 106.0 Z M 669.0 85.6 "></path></clipPath><g clip-path="url(#clip-30)"><path d="M 671.7 89.4 L 676.4 94.2 L 670.0 95.2 L 676.5 96.3 L 672.1 101.0 L 677.7 98.2 L 679.0 105.0 L 680.0 98.2 L 685.6 100.9 L 681.1 96.2 L 687.6 94.9 L 681.3 93.9 L 685.6 88.9 L 680.0 92.4 L 678.8 86.6 L 677.8 92.5 L 671.7 89.4 Z M 671.7 89.4 " fill="#D15500"></path></g></g><text xml:space="preserve" font-family="Helvetica-Bold" font-weight="bold" font-size="14.0" fill="#094B78" transform="matrix(1.00, 0.00, -0.00, -1.00, 50.0, 7.0)">V</text><text xml:space="preserve" font-family="Helvetica-Bold" font-weight="bold" font-size="14.0" fill="#094B78" transform="matrix(1.00, 0.00, -0.00, -1.00, 59.3, 7.0)"> </text><text xml:space="preserve" font-family="Helvetica-Bold" font-weight="bold" font-size="14.0" fill="#094B78" transform="matrix(1.00, 0.00, -0.00, -1.00, 63.2, 7.0)">C</text><text xml:space="preserve" font-family="Helvetica-Bold" font-weight="bold" font-size="14.0" fill="#094B78" transform="matrix(1.00, 0.00, -0.00, -1.00, 73.3, 7.0)">o</text><text xml:space="preserve" font-family="Helvetica-Bold" font-weight="bold" font-size="14.0" fill="#094B78" transform="matrix(1.00, 0.00, -0.00, -1.00, 81.9, 7.0)">n</text><text xml:space="preserve" font-family="Helvetica-Bold" font-weight="bold" font-size="14.0" fill="#094B78" transform="matrix(1.00, 0.00, -0.00, -1.00, 90.4, 7.0)">v</text><text xml:space="preserve" font-family="Helvetica-Bold" font-weight="bold" font-size="14.0" fill="#094B78" transform="matrix(1.00, 0.00, -0.00, -1.00, 98.2, 7.0)">e</text><text xml:space="preserve" font-family="Helvetica-Bold" font-weight="bold" font-size="14.0" fill="#094B78" transform="matrix(1.00, 0.00, -0.00, -1.00, 106.0, 7.0)">n</text><text xml:space="preserve" font-family="Helvetica-Bold" font-weight="bold" font-size="14.0" fill="#094B78" transform="matrix(1.00, 0.00, -0.00, -1.00, 114.6, 7.0)">c</text><text xml:space="preserve" font-family="Helvetica-Bold" font-weight="bold" font-size="14.0" fill="#094B78" transform="matrix(1.00, 0.00, -0.00, -1.00, 122.4, 7.0)">i</text><text xml:space="preserve" font-family="Helvetica-Bold" font-weight="bold" font-size="14.0" fill="#094B78" transform="matrix(1.00, 0.00, -0.00, -1.00, 126.2, 7.0)">ó</text><text xml:space="preserve" font-family="Helvetica-Bold" font-weight="bold" font-size="14.0" fill="#094B78" transform="matrix(1.00, 0.00, -0.00, -1.00, 134.8, 7.0)">n</text><text xml:space="preserve" font-family="Helvetica-Bold" font-weight="bold" font-size="14.0" fill="#094B78" transform="matrix(1.00, 0.00, -0.00, -1.00, 143.3, 7.0)">,</text><text xml:space="preserve" font-family="Helvetica-Bold" font-weight="bold" font-size="14.0" fill="#094B78" transform="matrix(1.00, 0.00, -0.00, -1.00, 147.2, 7.0)"> </text><text xml:space="preserve" font-family="Helvetica-Bold" font-weight="bold" font-size="14.0" fill="#094B78" transform="matrix(1.00, 0.00, -0.00, -1.00, 151.1, 7.0)">d</text><text xml:space="preserve" font-family="Helvetica-Bold" font-weight="bold" font-size="14.0" fill="#094B78" transform="matrix(1.00, 0.00, -0.00, -1.00, 159.7, 7.0)">i</text><text xml:space="preserve" font-family="Helvetica-Bold" font-weight="bold" font-size="14.0" fill="#094B78" transform="matrix(1.00, 0.00, -0.00, -1.00, 163.5, 7.0)">c</text><text xml:space="preserve" font-family="Helvetica-Bold" font-weight="bold" font-size="14.0" fill="#094B78" transform="matrix(1.00, 0.00, -0.00, -1.00, 171.3, 7.0)">i</text><text xml:space="preserve" font-family="Helvetica-Bold" font-weight="bold" font-size="14.0" fill="#094B78" transform="matrix(1.00, 0.00, -0.00, -1.00, 175.2, 7.0)">e</text><text xml:space="preserve" font-family="Helvetica-Bold" font-weight="bold" font-size="14.0" fill="#094B78" transform="matrix(1.00, 0.00, -0.00, -1.00, 183.0, 7.0)">m</text><text xml:space="preserve" font-family="Helvetica-Bold" font-weight="bold" font-size="14.0" fill="#094B78" transform="matrix(1.00, 0.00, -0.00, -1.00, 195.5, 7.0)">b</text><text xml:space="preserve" font-family="Helvetica-Bold" font-weight="bold" font-size="14.0" fill="#094B78" transform="matrix(1.00, 0.00, -0.00, -1.00, 204.0, 7.0)">r</text><text xml:space="preserve" font-family="Helvetica-Bold" font-weight="bold" font-size="14.0" fill="#094B78" transform="matrix(1.00, 0.00, -0.00, -1.00, 209.5, 7.0)">e</text><text xml:space="preserve" font-family="Helvetica-Bold" font-weight="bold" font-size="14.0" fill="#094B78" transform="matrix(1.00, 0.00, -0.00, -1.00, 217.3, 7.0)"> </text><text xml:space="preserve" font-family="Helvetica-Bold" font-weight="bold" font-size="14.0" fill="#094B78" transform="matrix(1.00, 0.00, -0.00, -1.00, 221.1, 7.0)">2</text><text xml:space="preserve" font-family="Helvetica-Bold" font-weight="bold" font-size="14.0" fill="#094B78" transform="matrix(1.00, 0.00, -0.00, -1.00, 228.9, 7.0)">0</text><text xml:space="preserve" font-family="Helvetica-Bold" font-weight="bold" font-size="14.0" fill="#094B78" transform="matrix(1.00, 0.00, -0.00, -1.00, 236.7, 7.0)">0</text><text xml:space="preserve" font-family="Helvetica-Bold" font-weight="bold" font-size="14.0" fill="#094B78" transform="matrix(1.00, 0.00, -0.00, -1.00, 244.5, 7.0)">2</text><text xml:space="preserve" font-family="Helvetica" font-size="32.0" fill="#172557" transform="matrix(1.00, 0.00, -0.00, -1.00, 292.6, 418.8)">•</text><text xml:space="preserve" font-family="Helvetica" font-size="32.0" fill="#172557" transform="matrix(1.00, 0.00, -0.00, -1.00, 320.0, 419.0)">¡</text><text xml:space="preserve" font-family="Helvetica" font-size="32.0" fill="#172557" transform="matrix(1.00, 0.00, -0.00, -1.00, 330.7, 419.0)">O</text><text xml:space="preserve" font-family="Helvetica" font-size="32.0" fill="#172557" transform="matrix(1.00, 0.00, -0.00, -1.00, 355.5, 419.0)">h</text><text xml:space="preserve" font-family="Helvetica" font-size="32.0" fill="#172557" transform="matrix(1.00, 0.00, -0.00, -1.00, 373.3, 419.0)">p</text><text xml:space="preserve" font-family="Helvetica" font-size="32.0" fill="#172557" transform="matrix(1.00, 0.00, -0.00, -1.00, 391.1, 419.0)">s</text><text xml:space="preserve" font-family="Helvetica" font-size="32.0" fill="#172557" transform="matrix(1.00, 0.00, -0.00, -1.00, 407.1, 419.0)">!</text><text xml:space="preserve" font-family="Helvetica" font-size="32.0" fill="#172557" transform="matrix(1.00, 0.00, -0.00, -1.00, 416.0, 419.0)"> </text><text xml:space="preserve" font-family="Helvetica" font-size="32.0" fill="#172557" transform="matrix(1.00, 0.00, -0.00, -1.00, 424.9, 419.0)">W</text><text xml:space="preserve" font-family="Helvetica" font-size="32.0" fill="#172557" transform="matrix(1.00, 0.00, -0.00, -1.00, 453.9, 419.0)">A</text><text xml:space="preserve" font-family="Helvetica" font-size="32.0" fill="#172557" transform="matrix(1.00, 0.00, -0.00, -1.00, 475.3, 419.0)">M</text><text xml:space="preserve" font-family="Helvetica" font-size="32.0" fill="#172557" transform="matrix(1.00, 0.00, -0.00, -1.00, 501.9, 419.0)"> </text><text xml:space="preserve" font-family="Helvetica" font-size="32.0" fill="#172557" transform="matrix(1.00, 0.00, -0.00, -1.00, 510.8, 419.0)">s</text><text xml:space="preserve" font-family="Helvetica" font-size="32.0" fill="#172557" transform="matrix(1.00, 0.00, -0.00, -1.00, 526.8, 419.0)">u</text><text xml:space="preserve" font-family="Helvetica" font-size="32.0" fill="#172557" transform="matrix(1.00, 0.00, -0.00, -1.00, 544.6, 419.0)">f</text><text xml:space="preserve" font-family="Helvetica" font-size="32.0" fill="#172557" transform="matrix(1.00, 0.00, -0.00, -1.00, 553.5, 419.0)">r</text><text xml:space="preserve" font-family="Helvetica" font-size="32.0" fill="#172557" transform="matrix(1.00, 0.00, -0.00, -1.00, 564.2, 419.0)">i</text><text xml:space="preserve" font-family="Helvetica" font-size="32.0" fill="#172557" transform="matrix(1.00, 0.00, -0.00, -1.00, 571.3, 419.0)">ó</text><text xml:space="preserve" font-family="Helvetica" font-size="32.0" fill="#172557" transform="matrix(1.00, 0.00, -0.00, -1.00, 589.1, 419.0)"> </text><text xml:space="preserve" font-family="Helvetica" font-size="32.0" fill="#172557" transform="matrix(1.00, 0.00, -0.00, -1.00, 598.0, 419.0)">u</text><text xml:space="preserve" font-family="Helvetica" font-size="32.0" fill="#172557" transform="matrix(1.00, 0.00, -0.00, -1.00, 615.8, 419.0)">n</text><text xml:space="preserve" font-family="Helvetica" font-size="32.0" fill="#172557" transform="matrix(1.00, 0.00, -0.00, -1.00, 633.6, 419.0)"> </text><text xml:space="preserve" font-family="Helvetica" font-size="32.0" fill="#172557" transform="matrix(1.00, 0.00, -0.00, -1.00, 320.0, 381.0)">c</text><text xml:space="preserve" font-family="Helvetica" font-size="32.0" fill="#172557" transform="matrix(1.00, 0.00, -0.00, -1.00, 336.0, 381.0)">o</text><text xml:space="preserve" font-family="Helvetica" font-size="32.0" fill="#172557" transform="matrix(1.00, 0.00, -0.00, -1.00, 353.8, 381.0)">n</text><text xml:space="preserve" font-family="Helvetica" font-size="32.0" fill="#172557" transform="matrix(1.00, 0.00, -0.00, -1.00, 371.6, 381.0)">t</text><text xml:space="preserve" font-family="Helvetica" font-size="32.0" fill="#172557" transform="matrix(1.00, 0.00, -0.00, -1.00, 380.5, 381.0)">r</text><text xml:space="preserve" font-family="Helvetica" font-size="32.0" fill="#172557" transform="matrix(1.00, 0.00, -0.00, -1.00, 391.1, 381.0)">a</text><text xml:space="preserve" font-family="Helvetica" font-size="32.0" fill="#172557" transform="matrix(1.00, 0.00, -0.00, -1.00, 409.0, 381.0)">t</text><text xml:space="preserve" font-family="Helvetica" font-size="32.0" fill="#172557" transform="matrix(1.00, 0.00, -0.00, -1.00, 417.8, 381.0)">i</text><text xml:space="preserve" font-family="Helvetica" font-size="32.0" fill="#172557" transform="matrix(1.00, 0.00, -0.00, -1.00, 425.0, 381.0)">e</text><text xml:space="preserve" font-family="Helvetica" font-size="32.0" fill="#172557" transform="matrix(1.00, 0.00, -0.00, -1.00, 442.8, 381.0)">m</text><text xml:space="preserve" font-family="Helvetica" font-size="32.0" fill="#172557" transform="matrix(1.00, 0.00, -0.00, -1.00, 469.4, 381.0)">p</text><text xml:space="preserve" font-family="Helvetica" font-size="32.0" fill="#172557" transform="matrix(1.00, 0.00, -0.00, -1.00, 487.2, 381.0)">o</text><text xml:space="preserve" font-family="Helvetica" font-size="32.0" fill="#172557" transform="matrix(1.00, 0.00, -0.00, -1.00, 505.0, 381.0)">…</text><text xml:space="preserve" font-family="Helvetica" font-size="32.0" fill="#172557" transform="matrix(1.00, 0.00, -0.00, -1.00, 537.0, 381.0)"> </text><text xml:space="preserve" font-family="Helvetica" font-size="32.0" fill="#172557" transform="matrix(1.00, 0.00, -0.00, -1.00, 545.9, 381.0)">p</text><text xml:space="preserve" font-family="Helvetica" font-size="32.0" fill="#172557" transform="matrix(1.00, 0.00, -0.00, -1.00, 563.7, 381.0)">e</text><text xml:space="preserve" font-family="Helvetica" font-size="32.0" fill="#172557" transform="matrix(1.00, 0.00, -0.00, -1.00, 581.5, 381.0)">r</text><text xml:space="preserve" font-family="Helvetica" font-size="32.0" fill="#172557" transform="matrix(1.00, 0.00, -0.00, -1.00, 592.2, 381.0)">o</text><text xml:space="preserve" font-family="Helvetica" font-size="32.0" fill="#172557" transform="matrix(1.00, 0.00, -0.00, -1.00, 610.0, 381.0)"> </text><text xml:space="preserve" font-family="Helvetica" font-size="32.0" fill="#172557" transform="matrix(1.00, 0.00, -0.00, -1.00, 320.0, 343.0)">t</text><text xml:space="preserve" font-family="Helvetica" font-size="32.0" fill="#172557" transform="matrix(1.00, 0.00, -0.00, -1.00, 328.9, 343.0)">u</text><text xml:space="preserve" font-family="Helvetica" font-size="32.0" fill="#172557" transform="matrix(1.00, 0.00, -0.00, -1.00, 346.7, 343.0)">v</text><text xml:space="preserve" font-family="Helvetica" font-size="32.0" fill="#172557" transform="matrix(1.00, 0.00, -0.00, -1.00, 362.7, 343.0)">o</text><text xml:space="preserve" font-family="Helvetica" font-size="32.0" fill="#172557" transform="matrix(1.00, 0.00, -0.00, -1.00, 380.5, 343.0)"> </text><text xml:space="preserve" font-family="Helvetica" font-size="32.0" fill="#172557" transform="matrix(1.00, 0.00, -0.00, -1.00, 389.4, 343.0)">u</text><text xml:space="preserve" font-family="Helvetica" font-size="32.0" fill="#172557" transform="matrix(1.00, 0.00, -0.00, -1.00, 407.2, 343.0)">n</text><text xml:space="preserve" font-family="Helvetica" font-size="32.0" fill="#172557" transform="matrix(1.00, 0.00, -0.00, -1.00, 425.0, 343.0)"> </text><text xml:space="preserve" font-family="Helvetica" font-size="32.0" fill="#172557" transform="matrix(1.00, 0.00, -0.00, -1.00, 433.9, 343.0)">h</text><text xml:space="preserve" font-family="Helvetica" font-size="32.0" fill="#172557" transform="matrix(1.00, 0.00, -0.00, -1.00, 451.7, 343.0)">e</text><text xml:space="preserve" font-family="Helvetica" font-size="32.0" fill="#172557" transform="matrix(1.00, 0.00, -0.00, -1.00, 469.5, 343.0)">r</text><text xml:space="preserve" font-family="Helvetica" font-size="32.0" fill="#172557" transform="matrix(1.00, 0.00, -0.00, -1.00, 480.1, 343.0)">m</text><text xml:space="preserve" font-family="Helvetica" font-size="32.0" fill="#172557" transform="matrix(1.00, 0.00, -0.00, -1.00, 506.8, 343.0)">a</text><text xml:space="preserve" font-family="Helvetica" font-size="32.0" fill="#172557" transform="matrix(1.00, 0.00, -0.00, -1.00, 524.6, 343.0)">n</text><text xml:space="preserve" font-family="Helvetica" font-size="32.0" fill="#172557" transform="matrix(1.00, 0.00, -0.00, -1.00, 542.4, 343.0)">o</text><text xml:space="preserve" font-family="Helvetica" font-size="32.0" fill="#172557" transform="matrix(1.00, 0.00, -0.00, -1.00, 560.2, 343.0)">.</text><text xml:space="preserve" font-family="Helvetica-Bold" font-weight="bold" font-size="34.0" fill="#D15400" transform="matrix(1.00, 0.00, -0.00, -1.00, 168.0, 470.0)">…</text><text xml:space="preserve" font-family="Helvetica-Bold" font-weight="bold" font-size="34.0" fill="#D15400" transform="matrix(1.00, 0.00, -0.00, -1.00, 202.0, 470.0)">¿</text><text xml:space="preserve" font-family="Helvetica-Bold" font-weight="bold" font-size="34.0" fill="#D15400" transform="matrix(1.00, 0.00, -0.00, -1.00, 222.8, 470.0)">p</text><text xml:space="preserve" font-family="Helvetica-Bold" font-weight="bold" font-size="34.0" fill="#D15400" transform="matrix(1.00, 0.00, -0.00, -1.00, 243.5, 470.0)">r</text><text xml:space="preserve" font-family="Helvetica-Bold" font-weight="bold" font-size="34.0" fill="#D15400" transform="matrix(1.00, 0.00, -0.00, -1.00, 256.8, 470.0)">i</text><text xml:space="preserve" font-family="Helvetica-Bold" font-weight="bold" font-size="34.0" fill="#D15400" transform="matrix(1.00, 0.00, -0.00, -1.00, 266.2, 470.0)">m</text><text xml:space="preserve" font-family="Helvetica-Bold" font-weight="bold" font-size="34.0" fill="#D15400" transform="matrix(1.00, 0.00, -0.00, -1.00, 296.4, 470.0)">e</text><text xml:space="preserve" font-family="Helvetica-Bold" font-weight="bold" font-size="34.0" fill="#D15400" transform="matrix(1.00, 0.00, -0.00, -1.00, 315.4, 470.0)">r</text><text xml:space="preserve" font-family="Helvetica-Bold" font-weight="bold" font-size="34.0" fill="#D15400" transform="matrix(1.00, 0.00, -0.00, -1.00, 328.6, 470.0)"> </text><text xml:space="preserve" font-family="Helvetica-Bold" font-weight="bold" font-size="34.0" fill="#D15400" transform="matrix(1.00, 0.00, -0.00, -1.00, 338.0, 470.0)">c</text><text xml:space="preserve" font-family="Helvetica-Bold" font-weight="bold" font-size="34.0" fill="#D15400" transform="matrix(1.00, 0.00, -0.00, -1.00, 356.9, 470.0)">u</text><text xml:space="preserve" font-family="Helvetica-Bold" font-weight="bold" font-size="34.0" fill="#D15400" transform="matrix(1.00, 0.00, -0.00, -1.00, 377.7, 470.0)">m</text><text xml:space="preserve" font-family="Helvetica-Bold" font-weight="bold" font-size="34.0" fill="#D15400" transform="matrix(1.00, 0.00, -0.00, -1.00, 407.9, 470.0)">p</text><text xml:space="preserve" font-family="Helvetica-Bold" font-weight="bold" font-size="34.0" fill="#D15400" transform="matrix(1.00, 0.00, -0.00, -1.00, 428.7, 470.0)">l</text><text xml:space="preserve" font-family="Helvetica-Bold" font-weight="bold" font-size="34.0" fill="#D15400" transform="matrix(1.00, 0.00, -0.00, -1.00, 438.2, 470.0)">e</text><text xml:space="preserve" font-family="Helvetica-Bold" font-weight="bold" font-size="34.0" fill="#D15400" transform="matrix(1.00, 0.00, -0.00, -1.00, 457.1, 470.0)">a</text><text xml:space="preserve" font-family="Helvetica-Bold" font-weight="bold" font-size="34.0" fill="#D15400" transform="matrix(1.00, 0.00, -0.00, -1.00, 476.0, 470.0)">ñ</text><text xml:space="preserve" font-family="Helvetica-Bold" font-weight="bold" font-size="34.0" fill="#D15400" transform="matrix(1.00, 0.00, -0.00, -1.00, 496.7, 470.0)">o</text><text xml:space="preserve" font-family="Helvetica-Bold" font-weight="bold" font-size="34.0" fill="#D15400" transform="matrix(1.00, 0.00, -0.00, -1.00, 517.5, 470.0)">s</text><text xml:space="preserve" font-family="Helvetica-Bold" font-weight="bold" font-size="34.0" fill="#D15400" transform="matrix(1.00, 0.00, -0.00, -1.00, 536.4, 470.0)">?</text><g><clipPath id="clip-31"><path d="M 30.0 298.0 L 260.0 298.0 L 260.0 456.0 L 30.0 456.0 Z M 30.0 298.0 "></path></clipPath><g clip-path="url(#clip-31)"><path d="M 245.4 321.5 L 245.2 321.5 L 244.6 321.5 L 243.7 321.4 L 242.7 321.1 L 241.7 320.7 L 240.6 320.1 L 240.0 319.3 L 239.5 318.3 L 238.9 318.2 L 238.0 319.8 L 236.6 322.5 L 234.6 326.1 L 232.5 330.1 L 230.0 333.9 L 227.2 337.3 L 224.2 339.5 L 224.4 339.4 L 224.9 339.2 L 225.8 339.0 L 226.8 338.9 L 228.2 338.9 L 229.7 339.2 L 231.3 340.0 L 233.0 341.3 L 233.5 341.8 L 234.7 342.9 L 236.1 344.5 L 237.2 346.4 L 237.5 348.2 L 236.6 349.8 L 233.8 350.9 L 228.9 351.4 L 228.6 351.3 L 228.1 351.2 L 227.2 350.9 L 226.1 350.9 L 225.0 350.9 L 224.0 351.4 L 223.1 352.1 L 222.4 353.2 L 222.2 353.6 L 221.7 354.8 L 220.9 356.5 L 219.9 358.6 L 218.7 360.7 L 217.2 362.9 L 215.7 364.8 L 214.2 366.3 L 214.1 366.7 L 213.7 367.7 L 213.0 369.3 L 212.2 371.1 L 211.3 372.9 L 210.5 374.7 L 209.6 376.1 L 208.9 376.9 L 202.9 378.4 L 206.2 377.7 L 208.8 377.6 L 210.9 377.8 L 212.2 378.4 L 213.1 378.9 L 213.7 379.5 L 213.9 379.9 L 214.0 380.2 L 214.5 381.2 L 215.0 382.2 L 215.7 383.2 L 216.4 384.1 L 217.1 384.9 L 217.6 385.6 L 218.1 386.0 L 218.2 386.1 L 220.5 389.5 L 221.6 393.4 L 221.9 397.3 L 221.5 401.3 L 220.8 404.8 L 220.0 407.6 L 219.3 409.5 L 219.0 410.2 L 219.9 414.5 L 220.3 418.3 L 220.1 421.7 L 219.7 424.6 L 218.8 427.2 L 217.6 429.4 L 216.3 431.3 L 214.9 432.9 L 213.3 434.2 L 211.8 435.2 L 210.3 436.1 L 208.9 436.7 L 207.7 437.2 L 206.8 437.4 L 206.2 437.6 L 206.0 437.6 L 199.8 440.4 L 194.1 442.2 L 188.9 442.9 L 184.2 442.9 L 180.0 442.0 L 176.4 440.7 L 173.1 438.7 L 170.3 436.5 L 167.9 434.0 L 165.9 431.5 L 164.2 429.0 L 162.8 426.7 L 161.9 424.6 L 161.3 423.0 L 160.8 421.9 L 160.7 421.6 L 160.0 418.0 L 159.9 414.6 L 160.3 411.2 L 161.3 408.1 L 162.6 405.1 L 164.3 402.3 L 166.1 399.8 L 168.2 397.4 L 170.3 395.2 L 172.3 393.4 L 174.4 391.7 L 176.1 390.3 L 177.7 389.2 L 178.9 388.4 L 179.7 387.8 L 179.9 387.7 L 179.7 387.7 L 179.3 387.6 L 178.5 387.3 L 177.6 386.9 L 176.7 386.3 L 175.9 385.2 L 175.2 384.0 L 174.8 382.4 L 174.7 382.0 L 174.2 380.7 L 173.4 378.9 L 172.2 376.4 L 170.9 373.7 L 169.3 370.6 L 167.5 367.4 L 165.4 364.2 L 163.2 361.2 L 160.7 358.5 L 158.1 356.1 L 155.4 354.3 L 152.5 353.2 L 149.5 352.8 L 146.5 353.4 L 143.4 355.1 L 143.2 355.2 L 142.9 355.7 L 142.3 356.3 L 141.5 357.1 L 140.5 358.0 L 139.4 358.9 L 138.0 359.7 L 136.4 360.5 L 134.8 361.2 L 132.8 361.5 L 130.8 361.7 L 128.5 361.4 L 126.1 360.7 L 123.5 359.6 L 120.9 357.9 L 118.1 355.7 L 118.0 355.8 L 117.7 356.1 L 117.2 356.5 L 116.5 357.0 L 115.7 357.6 L 114.8 358.0 L 113.8 358.5 L 112.8 358.8 L 112.7 359.3 L 112.2 360.5 L 111.3 362.3 L 109.8 364.6 L 107.6 367.2 L 104.4 369.9 L 100.2 372.6 L 94.9 375.1 L 94.7 350.0 L 96.5 348.3 L 98.1 346.6 L 99.5 345.2 L 100.7 343.9 L 101.6 342.8 L 102.3 342.0 L 102.7 341.6 L 102.8 341.3 L 101.3 341.1 L 99.8 340.7 L 98.4 340.0 L 97.2 339.2 L 96.1 338.4 L 95.2 337.7 L 94.8 337.3 L 94.5 337.0 L 94.7 337.6 L 94.7 338.2 L 94.7 338.7 L 94.5 339.3 L 94.3 309.2 L 95.7 308.8 L 97.3 308.4 L 99.2 308.0 L 101.2 307.7 L 103.5 307.5 L 106.0 307.3 L 108.6 307.0 L 111.5 307.0 L 114.5 307.1 L 117.8 307.4 L 121.0 307.7 L 124.6 308.4 L 128.3 309.1 L 132.0 310.1 L 135.9 311.3 L 140.0 312.8 L 140.2 312.8 L 140.6 312.8 L 141.4 312.9 L 142.5 313.0 L 143.7 313.0 L 145.2 313.1 L 146.8 313.2 L 148.5 313.3 L 150.3 313.3 L 152.0 313.5 L 153.8 313.5 L 155.6 313.6 L 157.2 313.6 L 158.8 313.6 L 160.1 313.5 L 161.4 313.3 L 161.7 313.3 L 162.5 313.6 L 163.9 313.9 L 165.6 314.5 L 167.7 315.2 L 170.2 316.1 L 172.9 317.2 L 175.9 318.7 L 178.9 320.3 L 182.0 322.5 L 185.3 324.9 L 188.3 327.6 L 191.4 330.7 L 194.3 334.2 L 197.0 338.3 L 199.5 342.7 L 199.8 342.5 L 200.4 341.8 L 201.5 340.8 L 202.6 339.5 L 203.7 338.2 L 204.7 336.9 L 205.5 335.6 L 206.0 334.6 L 206.1 334.1 L 206.3 332.8 L 206.9 330.7 L 207.8 328.4 L 209.3 325.7 L 211.2 322.9 L 213.8 320.5 L 217.2 318.3 L 217.9 318.0 L 219.5 317.0 L 221.9 315.5 L 224.8 313.8 L 227.7 311.8 L 230.6 309.7 L 232.8 307.7 L 234.2 305.9 L 234.3 305.7 L 234.9 305.0 L 235.7 304.2 L 236.9 303.3 L 238.5 302.7 L 240.4 302.5 L 242.7 302.9 L 245.4 304.1 L 245.7 304.0 L 246.6 303.9 L 248.0 303.9 L 249.6 304.2 L 251.4 304.8 L 253.3 305.9 L 255.0 307.7 L 256.5 310.3 L 256.5 311.0 L 256.3 312.9 L 255.8 315.4 L 254.9 318.0 L 253.5 320.5 L 251.6 322.2 L 248.9 322.6 L 245.4 321.5 Z M 245.4 321.5 " fill="#B77128"></path><path d="M 76.4 362.6 L 77.8 361.9 L 79.1 361.2 L 80.4 360.5 L 81.6 359.8 L 82.9 359.1 L 84.1 358.3 L 85.4 357.5 L 86.5 356.7 L 87.6 355.9 L 88.8 355.0 L 89.8 354.2 L 90.9 353.3 L 91.8 352.5 L 92.9 351.6 L 93.8 350.8 L 94.7 350.0 L 94.9 375.1 L 93.5 375.6 L 92.1 376.1 L 90.5 376.7 L 88.9 377.1 L 87.2 377.6 L 85.4 377.9 L 83.6 378.4 L 81.6 378.7 L 81.4 378.7 L 80.8 378.8 L 80.2 379.1 L 79.1 379.5 L 78.2 380.0 L 77.2 380.8 L 76.4 381.9 L 75.9 383.1 L 75.8 383.5 L 75.4 384.4 L 74.7 385.8 L 73.6 386.9 L 72.2 387.8 L 70.3 387.9 L 68.1 387.2 L 65.2 385.0 L 65.0 384.3 L 64.4 382.8 L 63.7 380.7 L 63.5 378.7 L 63.2 379.0 L 62.3 379.7 L 60.9 380.5 L 59.1 381.2 L 57.0 381.1 L 54.6 380.3 L 52.0 378.1 L 49.4 374.4 L 49.3 374.1 L 48.8 373.3 L 48.1 372.1 L 47.2 370.8 L 46.1 369.2 L 44.9 367.9 L 43.7 366.6 L 42.3 365.7 L 41.9 365.3 L 40.6 364.2 L 39.1 362.4 L 37.6 360.2 L 36.6 357.5 L 36.3 354.4 L 37.4 351.0 L 40.0 347.7 L 40.1 347.4 L 40.5 346.8 L 41.2 345.9 L 42.1 345.1 L 43.2 344.4 L 44.4 344.2 L 45.6 344.6 L 47.0 345.7 L 47.4 346.0 L 48.7 346.8 L 50.5 347.8 L 52.6 349.2 L 55.0 350.8 L 57.2 352.6 L 59.1 354.4 L 60.6 356.3 L 60.6 356.2 L 60.8 356.0 L 61.0 355.6 L 61.5 355.1 L 61.9 354.7 L 62.5 354.2 L 63.3 354.0 L 64.1 353.9 L 64.5 352.8 L 65.8 349.9 L 67.6 345.9 L 69.9 340.9 L 72.5 335.6 L 75.2 330.5 L 77.9 326.1 L 80.5 322.8 L 80.7 322.4 L 81.3 321.1 L 82.3 319.3 L 83.6 317.3 L 85.2 315.0 L 87.0 313.0 L 88.9 311.3 L 91.0 310.3 L 91.3 310.2 L 91.8 310.0 L 92.9 309.6 L 94.3 309.2 L 94.5 339.3 L 94.1 341.2 L 93.4 343.3 L 92.4 345.3 L 91.2 347.3 L 89.8 349.2 L 88.2 351.2 L 86.6 353.1 L 85.0 354.8 L 83.3 356.5 L 81.8 357.9 L 80.4 359.3 L 79.0 360.4 L 78.0 361.3 L 77.1 362.0 L 76.7 362.4 L 76.4 362.6 Z M 76.4 362.6 " fill="#B77128"></path><path d="M 107.0 308.9 L 107.3 308.9 L 108.1 309.2 L 109.5 309.4 L 111.2 309.6 L 113.2 310.1 L 115.6 310.5 L 118.2 311.1 L 120.9 311.7 L 123.8 312.3 L 126.7 313.1 L 129.5 313.9 L 132.3 314.8 L 134.8 315.8 L 137.1 316.8 L 139.2 318.0 L 140.9 319.1 L 141.3 319.1 L 142.7 319.0 L 144.8 318.9 L 147.7 318.9 L 151.1 319.0 L 155.0 319.2 L 159.3 319.7 L 163.9 320.5 L 168.6 321.6 L 173.4 323.2 L 178.2 325.1 L 182.9 327.6 L 187.3 330.6 L 191.4 334.3 L 195.1 338.6 L 198.3 343.7 L 198.2 343.4 L 197.9 342.4 L 197.5 340.9 L 196.8 338.9 L 195.7 336.6 L 194.2 334.0 L 192.2 331.2 L 189.7 328.4 L 186.5 325.4 L 182.7 322.7 L 178.1 320.1 L 172.8 317.9 L 166.6 315.8 L 159.4 314.4 L 151.4 313.5 L 142.2 313.2 L 141.9 313.2 L 141.0 313.0 L 139.6 312.8 L 137.8 312.6 L 135.7 312.2 L 133.2 311.9 L 130.4 311.5 L 127.5 311.1 L 124.6 310.6 L 121.6 310.3 L 118.7 310.0 L 115.8 309.6 L 113.1 309.4 L 110.7 309.2 L 108.7 308.9 L 107.0 308.9 Z M 107.0 308.9 " fill="#993000"></path><path d="M 74.5 367.4 L 74.7 367.2 L 75.3 366.7 L 76.1 366.1 L 77.3 365.0 L 78.8 363.9 L 80.4 362.7 L 82.3 361.4 L 84.2 360.1 L 86.4 358.7 L 88.5 357.5 L 90.8 356.3 L 93.0 355.3 L 95.2 354.7 L 97.3 354.1 L 99.3 354.0 L 101.2 354.1 L 101.2 353.6 L 101.3 352.5 L 101.6 350.9 L 102.0 349.0 L 102.7 347.3 L 103.8 345.7 L 105.4 344.8 L 107.5 344.6 L 107.2 344.4 L 106.8 344.0 L 106.0 343.6 L 104.9 343.4 L 103.5 343.6 L 101.9 344.3 L 100.1 346.0 L 98.1 348.6 L 97.8 348.8 L 97.0 349.2 L 95.9 350.0 L 94.4 351.0 L 92.6 352.3 L 90.6 353.6 L 88.4 355.2 L 86.3 356.8 L 84.1 358.4 L 82.0 360.1 L 79.9 361.7 L 78.2 363.1 L 76.7 364.5 L 75.5 365.7 L 74.7 366.7 L 74.5 367.4 Z M 74.5 367.4 " fill="#993000"></path><path d="M 210.6 329.9 L 211.0 329.7 L 212.0 329.1 L 213.2 328.5 L 214.8 328.0 L 216.5 328.0 L 218.0 328.8 L 219.1 330.6 L 219.7 333.7 L 219.5 333.4 L 219.0 332.9 L 218.2 332.1 L 217.1 331.2 L 215.7 330.4 L 214.1 329.8 L 212.4 329.6 L 210.6 329.9 Z M 210.6 329.9 " fill="#993000"></path><path d="M 54.0 363.5 L 54.2 363.0 L 54.9 361.9 L 55.5 360.3 L 55.6 358.4 L 55.0 356.5 L 53.4 354.9 L 50.3 353.8 L 45.4 353.3 L 45.6 353.1 L 46.3 352.4 L 47.3 351.6 L 48.9 351.0 L 51.0 350.8 L 53.6 351.4 L 56.6 352.7 L 60.1 355.3 L 60.1 355.9 L 59.9 357.2 L 59.7 359.2 L 59.1 361.2 L 58.4 363.0 L 57.3 364.1 L 55.8 364.5 L 54.0 363.5 Z M 54.0 363.5 " fill="#993000"></path><path d="M 189.4 437.9 L 189.8 437.5 L 190.8 436.4 L 192.3 435.0 L 194.1 433.8 L 195.9 433.0 L 197.6 432.9 L 199.0 434.0 L 200.0 436.7 L 200.4 436.7 L 201.7 436.8 L 203.5 436.9 L 205.5 436.9 L 207.7 436.8 L 209.7 436.6 L 211.2 436.0 L 212.1 435.1 L 211.9 435.2 L 211.2 435.7 L 210.2 436.2 L 208.8 437.0 L 207.1 437.9 L 205.2 438.8 L 203.2 439.9 L 200.8 440.8 L 198.4 441.6 L 195.8 442.3 L 193.3 442.8 L 190.7 443.0 L 188.2 443.0 L 185.7 442.7 L 183.3 441.9 L 181.2 440.8 L 181.4 440.7 L 182.1 440.4 L 183.1 440.1 L 184.4 439.7 L 185.7 439.2 L 187.1 438.7 L 188.3 438.3 L 189.4 437.9 Z M 189.4 437.9 " fill="#340600"></path><path d="M 189.7 434.6 L 189.9 434.1 L 190.4 433.1 L 190.8 431.5 L 191.0 429.8 L 190.9 427.9 L 190.0 426.3 L 188.4 425.0 L 185.6 424.3 L 185.8 424.3 L 186.3 424.4 L 187.0 424.6 L 187.6 425.0 L 188.1 425.5 L 188.2 426.3 L 187.9 427.4 L 186.8 428.9 L 186.8 429.1 L 186.7 429.8 L 186.6 430.7 L 186.7 431.7 L 187.0 432.8 L 187.5 433.7 L 188.4 434.3 L 189.7 434.6 Z M 189.7 434.6 " fill="#340600"></path><path d="M 196.5 441.7 L 196.9 441.9 L 197.9 442.3 L 199.4 442.8 L 201.2 443.1 L 203.0 442.9 L 204.7 442.2 L 206.1 440.5 L 206.9 437.8 L 206.9 438.1 L 206.8 438.5 L 206.5 439.2 L 206.1 439.9 L 205.5 440.3 L 204.7 440.3 L 203.6 440.0 L 202.1 438.8 L 201.9 438.8 L 201.2 438.7 L 200.3 438.6 L 199.3 438.7 L 198.3 439.0 L 197.4 439.5 L 196.7 440.4 L 196.5 441.7 Z M 196.5 441.7 " fill="#340600"></path><path d="M 167.5 435.7 L 167.0 435.7 L 165.9 435.7 L 164.3 435.6 L 162.5 435.1 L 160.9 434.2 L 159.7 432.9 L 159.1 430.8 L 159.4 428.0 L 159.3 428.2 L 159.3 428.7 L 159.2 429.4 L 159.3 430.2 L 159.7 430.8 L 160.5 431.2 L 161.6 431.3 L 163.4 430.8 L 163.6 430.8 L 164.2 431.1 L 165.1 431.4 L 166.0 431.8 L 166.8 432.4 L 167.5 433.3 L 167.7 434.3 L 167.5 435.7 Z M 167.5 435.7 " fill="#340600"></path><path d="M 164.1 429.9 L 163.7 429.9 L 162.7 429.7 L 161.4 429.3 L 160.0 428.5 L 158.6 427.3 L 157.9 425.5 L 157.6 423.0 L 158.3 419.9 L 158.2 420.1 L 158.1 420.7 L 158.0 421.5 L 158.0 422.4 L 158.1 423.2 L 158.6 423.7 L 159.7 423.9 L 161.3 423.7 L 161.5 423.8 L 161.9 424.1 L 162.6 424.6 L 163.4 425.3 L 164.0 426.1 L 164.4 427.2 L 164.5 428.5 L 164.1 429.9 Z M 164.1 429.9 " fill="#340600"></path><path d="M 176.0 441.8 L 175.5 441.9 L 174.5 441.9 L 173.0 441.9 L 171.4 441.4 L 170.0 440.7 L 169.0 439.2 L 168.6 437.0 L 169.2 433.9 L 169.1 434.1 L 169.0 434.7 L 168.8 435.5 L 168.8 436.4 L 169.1 437.2 L 169.6 437.8 L 170.6 438.1 L 172.1 437.8 L 172.3 437.8 L 173.0 437.8 L 173.8 437.9 L 174.7 438.3 L 175.5 438.7 L 176.1 439.4 L 176.3 440.4 L 176.0 441.8 Z M 176.0 441.8 " fill="#340600"></path><path d="M 182.9 443.4 L 182.5 443.5 L 181.5 443.8 L 180.2 444.0 L 178.7 443.9 L 177.3 443.2 L 176.3 441.9 L 175.9 439.5 L 176.3 436.0 L 176.3 436.2 L 176.2 436.9 L 176.1 437.8 L 176.1 438.7 L 176.3 439.6 L 176.9 440.2 L 177.8 440.3 L 179.1 439.7 L 179.4 439.7 L 179.9 439.6 L 180.7 439.6 L 181.5 439.7 L 182.3 440.1 L 182.9 440.7 L 183.1 441.8 L 182.9 443.4 Z M 182.9 443.4 " fill="#340600"></path><path d="M 191.6 439.1 L 191.5 438.5 L 191.0 436.9 L 190.1 434.7 L 189.0 432.2 L 187.4 429.7 L 185.3 427.4 L 182.8 426.0 L 179.7 425.5 L 179.5 425.1 L 178.9 423.7 L 178.2 421.9 L 177.7 419.9 L 177.4 417.7 L 177.8 415.9 L 178.8 414.6 L 181.0 414.0 L 180.8 413.9 L 180.6 413.7 L 180.3 413.3 L 179.8 413.0 L 179.3 412.8 L 178.6 412.7 L 177.9 412.7 L 177.1 413.0 L 177.4 412.4 L 178.2 411.0 L 178.9 409.1 L 178.9 407.5 L 178.7 407.7 L 178.0 408.5 L 177.0 409.3 L 175.6 410.3 L 173.9 411.0 L 172.2 411.3 L 170.3 411.0 L 168.3 410.0 L 167.8 408.9 L 167.0 406.3 L 166.5 403.0 L 166.8 399.7 L 166.6 399.9 L 166.0 400.5 L 165.2 401.5 L 164.2 402.7 L 163.2 404.4 L 162.2 406.5 L 161.1 408.7 L 160.5 411.3 L 159.9 414.1 L 159.8 417.2 L 160.1 420.4 L 161.0 424.1 L 162.5 427.8 L 164.8 431.6 L 167.8 435.7 L 171.8 439.9 L 172.0 440.0 L 172.8 440.3 L 174.0 440.9 L 175.6 441.6 L 177.4 442.2 L 179.5 442.9 L 181.5 443.6 L 183.7 444.2 L 185.7 444.6 L 187.6 444.8 L 189.3 444.8 L 190.7 444.5 L 191.7 443.8 L 192.3 442.7 L 192.3 441.1 L 191.6 439.1 Z M 191.6 439.1 " fill="#340600"></path><path d="M 209.5 437.6 L 210.2 437.4 L 211.8 436.5 L 214.1 434.9 L 216.5 432.5 L 218.8 429.3 L 220.4 425.0 L 220.9 419.7 L 220.0 413.1 L 220.1 413.9 L 220.4 416.0 L 220.5 419.1 L 220.3 422.8 L 219.2 426.9 L 217.3 430.9 L 214.1 434.7 L 209.5 437.6 Z M 209.5 437.6 " fill="#000000"></path><path d="M 221.5 406.6 L 221.7 406.0 L 222.2 404.4 L 222.7 402.1 L 223.1 399.1 L 223.0 395.7 L 222.3 392.2 L 220.7 388.9 L 218.1 385.6 L 218.3 385.9 L 219.1 387.0 L 220.0 388.7 L 221.0 391.2 L 221.8 394.2 L 222.3 397.8 L 222.3 401.9 L 221.5 406.6 Z M 221.5 406.6 " fill="#000000"></path><path d="M 219.1 414.9 L 218.9 414.8 L 218.2 414.5 L 217.3 413.9 L 216.4 413.1 L 215.5 412.1 L 214.9 410.7 L 214.7 409.1 L 215.0 407.1 L 215.0 407.4 L 214.9 408.0 L 215.0 408.9 L 215.3 410.1 L 215.6 411.4 L 216.4 412.7 L 217.5 413.9 L 219.1 414.9 Z M 219.1 414.9 " fill="#000000"></path><path d="M 218.2 401.3 L 218.3 401.2 L 218.4 400.7 L 218.6 400.0 L 218.4 399.2 L 218.1 398.2 L 217.3 397.2 L 215.9 396.1 L 214.0 394.9 L 214.2 395.2 L 214.8 395.7 L 215.6 396.6 L 216.5 397.7 L 217.3 398.7 L 218.0 399.8 L 218.3 400.6 L 218.2 401.3 Z M 218.2 401.3 " fill="#000000"></path><path d="M 212.4 395.1 L 212.1 394.9 L 211.4 394.9 L 210.6 395.6 L 210.3 397.4 L 210.3 396.9 L 210.4 395.6 L 211.1 394.7 L 212.4 395.1 Z M 212.4 395.1 " fill="#000000"></path><path d="M 221.7 410.6 L 221.5 410.5 L 221.0 410.2 L 220.5 410.1 L 219.8 410.4 L 219.7 410.5 L 219.3 410.7 L 218.9 411.1 L 218.3 411.3 L 217.5 411.3 L 216.7 411.1 L 215.9 410.5 L 215.0 409.4 L 215.2 409.5 L 215.4 410.0 L 215.7 410.5 L 216.2 411.1 L 216.9 411.5 L 217.6 411.8 L 218.6 411.6 L 219.6 411.2 L 219.8 411.0 L 220.3 410.6 L 220.9 410.3 L 221.7 410.6 Z M 221.7 410.6 " fill="#000000"></path><path d="M 216.5 406.6 L 216.1 406.8 L 215.6 407.4 L 215.3 408.1 L 215.2 409.1 L 215.3 410.1 L 215.6 410.9 L 216.1 411.4 L 216.5 411.6 L 217.1 411.4 L 217.5 410.9 L 217.9 410.1 L 218.0 409.1 L 217.9 408.1 L 217.5 407.4 L 217.1 406.8 L 216.5 406.6 Z M 216.5 406.6 " fill="#000000"></path><path d="M 200.5 404.0 L 199.9 404.2 L 199.3 404.8 L 198.8 405.7 L 198.7 406.7 L 198.8 407.7 L 199.3 408.6 L 199.9 409.2 L 200.5 409.4 L 201.2 409.2 L 201.8 408.6 L 202.1 407.7 L 202.2 406.7 L 202.1 405.7 L 201.8 404.8 L 201.2 404.2 L 200.5 404.0 Z M 200.5 404.0 " fill="#000000"></path><path d="M 180.6 396.0 L 180.7 395.7 L 180.8 395.3 L 181.0 394.5 L 181.1 393.7 L 180.8 392.8 L 180.3 392.0 L 179.3 391.3 L 177.7 391.0 L 177.3 391.0 L 176.4 391.2 L 175.3 391.8 L 174.5 392.8 L 174.6 392.7 L 174.8 392.6 L 175.3 392.3 L 175.9 392.1 L 176.5 391.9 L 177.2 391.9 L 177.9 392.0 L 178.6 392.5 L 179.0 392.7 L 179.8 393.4 L 180.5 394.5 L 180.6 396.0 Z M 180.6 396.0 " fill="#000000"></path><path d="M 172.7 394.0 L 172.3 394.3 L 171.3 394.9 L 170.0 396.1 L 168.6 397.5 L 167.5 399.6 L 166.9 401.9 L 167.0 404.8 L 168.2 408.0 L 168.0 407.6 L 167.7 406.3 L 167.4 404.5 L 167.4 402.4 L 167.6 400.1 L 168.5 397.8 L 170.1 395.7 L 172.7 394.0 Z M 172.7 394.0 " fill="#000000"></path><path d="M 179.1 404.7 L 179.0 405.1 L 178.6 406.3 L 177.9 407.9 L 177.0 409.6 L 175.6 411.1 L 173.9 411.9 L 171.9 411.6 L 169.4 410.2 L 169.7 410.3 L 170.6 410.6 L 171.9 411.0 L 173.5 411.1 L 175.1 410.6 L 176.7 409.6 L 178.1 407.7 L 179.1 404.7 Z M 179.1 404.7 " fill="#000000"></path><path d="M 206.8 409.1 L 206.7 408.9 L 206.2 408.8 L 205.3 408.7 L 203.7 409.1 L 203.5 409.1 L 202.8 409.1 L 201.9 408.9 L 200.8 408.8 L 199.5 408.4 L 198.4 407.8 L 197.4 406.8 L 196.7 405.6 L 196.7 405.8 L 196.8 406.3 L 197.1 407.1 L 197.6 408.0 L 198.4 408.9 L 199.6 409.6 L 201.2 410.0 L 203.4 410.0 L 203.5 410.0 L 203.6 409.8 L 203.9 409.6 L 204.4 409.5 L 204.8 409.3 L 205.5 409.2 L 206.1 409.1 L 206.8 409.1 Z M 206.8 409.1 " fill="#000000"></path><path d="M 202.6 415.8 L 202.4 415.9 L 201.8 415.9 L 201.0 416.0 L 199.9 415.8 L 198.6 415.4 L 197.4 414.5 L 196.0 413.0 L 194.7 410.9 L 194.8 411.1 L 195.2 411.6 L 195.9 412.4 L 196.9 413.3 L 198.1 414.2 L 199.4 415.0 L 200.9 415.6 L 202.6 415.8 Z M 202.6 415.8 " fill="#000000"></path><path d="M 216.6 386.9 L 216.4 386.8 L 215.9 386.7 L 215.3 386.5 L 214.4 386.3 L 213.3 386.0 L 212.3 385.8 L 211.5 385.8 L 210.7 385.8 L 211.0 385.7 L 211.4 385.4 L 212.2 385.0 L 213.1 384.7 L 214.1 384.7 L 215.0 384.9 L 215.9 385.6 L 216.6 386.9 Z M 216.6 386.9 " fill="#000000"></path><path d="M 173.3 407.5 L 173.5 407.5 L 173.9 407.4 L 174.7 407.1 L 175.5 406.8 L 176.2 406.2 L 176.8 405.4 L 177.0 404.4 L 176.8 403.1 L 176.5 402.5 L 176.2 401.3 L 176.4 399.9 L 177.7 399.0 L 177.2 399.0 L 176.2 399.5 L 175.5 400.5 L 175.6 402.5 L 175.7 402.7 L 176.0 403.2 L 176.3 403.9 L 176.4 404.8 L 176.3 405.6 L 175.9 406.5 L 174.8 407.0 L 173.3 407.5 Z M 173.3 407.5 " fill="#000000"></path><path d="M 177.7 399.0 L 177.7 398.6 L 177.7 397.5 L 177.2 396.5 L 176.2 396.3 L 176.0 396.8 L 175.6 398.0 L 175.5 399.2 L 176.0 400.2 L 177.7 399.0 Z M 177.7 399.0 " fill="#000000"></path><path d="M 209.4 388.2 L 209.5 388.3 L 209.8 388.4 L 210.2 388.6 L 210.9 389.1 L 211.4 389.4 L 212.1 390.0 L 212.9 390.5 L 213.6 391.2 L 214.0 391.4 L 214.9 392.0 L 215.8 392.2 L 216.3 391.8 L 216.2 391.6 L 216.1 390.9 L 215.9 390.2 L 215.9 389.5 L 215.9 389.4 L 215.7 389.3 L 215.4 389.0 L 214.8 388.7 L 213.9 388.4 L 212.8 388.2 L 211.3 388.1 L 209.4 388.2 Z M 209.4 388.2 " fill="#000000"></path><path d="M 212.0 394.9 L 212.1 395.1 L 212.4 395.4 L 212.9 396.0 L 213.5 396.4 L 214.1 396.9 L 214.8 397.2 L 215.6 397.2 L 216.4 397.0 L 216.4 396.9 L 216.2 396.6 L 215.9 396.3 L 215.5 396.0 L 214.9 395.6 L 214.1 395.3 L 213.1 395.1 L 212.0 394.9 Z M 212.0 394.9 " fill="#000000"></path><path d="M 209.0 389.5 L 209.2 389.3 L 209.3 388.9 L 209.2 387.9 L 208.6 386.6 L 209.0 389.5 Z M 209.0 389.5 " fill="#000000"></path><path d="M 183.1 387.3 L 183.3 387.2 L 183.9 386.7 L 184.8 386.0 L 186.1 385.1 L 187.6 384.2 L 189.4 383.2 L 191.5 382.1 L 193.6 381.1 L 196.0 380.0 L 198.5 379.1 L 201.1 378.5 L 203.8 378.0 L 206.4 377.8 L 209.2 378.0 L 211.8 378.5 L 214.4 379.4 L 214.2 379.3 L 213.9 379.0 L 213.2 378.7 L 212.4 378.2 L 211.3 377.8 L 209.9 377.5 L 208.4 377.1 L 206.5 377.0 L 204.5 377.0 L 202.2 377.3 L 199.6 377.9 L 196.8 378.9 L 193.8 380.3 L 190.5 382.1 L 187.0 384.3 L 183.1 387.3 Z M 183.1 387.3 " fill="#000000"></path><path d="M 179.7 385.2 L 179.5 385.2 L 178.9 385.1 L 178.2 384.9 L 177.3 384.6 L 176.3 383.9 L 175.4 382.8 L 174.6 381.4 L 174.2 379.5 L 174.0 379.1 L 173.5 378.1 L 172.8 376.5 L 171.8 374.5 L 170.5 372.1 L 169.0 369.4 L 167.4 366.7 L 165.4 364.0 L 163.4 361.3 L 161.3 358.8 L 159.0 356.7 L 156.6 355.0 L 154.2 353.8 L 151.7 353.1 L 149.1 353.2 L 146.6 354.2 L 146.8 354.2 L 147.1 354.1 L 147.5 354.0 L 148.3 354.0 L 149.2 354.1 L 150.4 354.4 L 151.7 354.9 L 153.3 355.7 L 155.0 356.9 L 156.9 358.5 L 159.2 360.5 L 161.6 363.0 L 164.1 366.2 L 166.9 369.9 L 170.0 374.3 L 173.1 379.5 L 173.1 379.7 L 173.4 380.5 L 173.7 381.4 L 174.3 382.5 L 175.1 383.7 L 176.2 384.6 L 177.8 385.1 L 179.7 385.2 Z M 179.7 385.2 " fill="#000000"></path><path d="M 143.9 356.9 L 143.8 357.0 L 143.5 357.4 L 142.9 357.9 L 142.1 358.6 L 141.1 359.4 L 140.0 360.2 L 138.6 360.9 L 137.1 361.7 L 135.4 362.1 L 133.6 362.6 L 131.7 362.7 L 129.5 362.6 L 127.3 362.1 L 125.0 361.2 L 122.5 360.0 L 120.0 358.2 L 120.1 358.3 L 120.5 358.5 L 121.2 358.9 L 122.0 359.4 L 123.0 360.0 L 124.2 360.5 L 125.6 361.0 L 127.2 361.4 L 128.9 361.8 L 130.7 361.9 L 132.7 361.8 L 134.8 361.5 L 136.9 360.9 L 139.2 360.0 L 141.5 358.6 L 143.9 356.9 Z M 143.9 356.9 " fill="#000000"></path><path d="M 109.5 343.7 L 109.5 343.9 L 109.6 344.5 L 109.7 345.4 L 110.1 346.5 L 110.4 347.9 L 111.1 349.4 L 112.0 350.8 L 113.1 352.4 L 114.5 353.8 L 116.3 355.1 L 118.3 356.2 L 120.9 357.0 L 123.9 357.6 L 127.3 357.7 L 131.2 357.4 L 135.8 356.6 L 135.5 356.6 L 135.0 356.8 L 134.1 356.9 L 132.7 357.1 L 131.2 357.2 L 129.5 357.2 L 127.6 357.2 L 125.6 356.9 L 123.4 356.5 L 121.3 355.8 L 119.0 354.8 L 116.9 353.4 L 114.8 351.6 L 112.9 349.5 L 111.1 346.9 L 109.5 343.7 Z M 109.5 343.7 " fill="#000000"></path><path d="M 118.2 356.8 L 118.0 357.0 L 117.3 357.5 L 116.4 358.0 L 115.3 358.6 L 114.0 358.7 L 112.8 358.5 L 111.8 357.6 L 110.9 355.9 L 111.0 356.0 L 111.3 356.3 L 112.0 356.8 L 112.8 357.2 L 113.8 357.6 L 115.2 357.7 L 116.5 357.5 L 118.2 356.8 Z M 118.2 356.8 " fill="#000000"></path><path d="M 113.3 358.6 L 113.3 358.7 L 113.2 359.2 L 113.0 359.8 L 112.6 360.7 L 112.1 361.9 L 111.4 363.1 L 110.6 364.5 L 109.7 365.9 L 108.5 367.4 L 107.0 369.0 L 105.4 370.5 L 103.5 371.9 L 101.3 373.3 L 98.9 374.5 L 96.1 375.5 L 93.1 376.4 L 92.5 376.5 L 90.8 376.8 L 88.4 377.1 L 85.6 377.8 L 82.7 378.5 L 79.9 379.5 L 77.7 380.5 L 76.3 381.9 L 76.8 381.6 L 77.9 381.1 L 79.6 380.4 L 81.8 379.5 L 84.1 378.8 L 86.6 378.2 L 89.1 377.9 L 91.5 378.1 L 91.7 378.1 L 92.3 378.0 L 93.2 377.9 L 94.4 377.6 L 95.9 377.2 L 97.6 376.7 L 99.4 376.0 L 101.2 375.1 L 103.2 374.0 L 105.1 372.6 L 106.9 371.0 L 108.6 369.2 L 110.2 367.1 L 111.5 364.6 L 112.6 361.8 L 113.3 358.6 Z M 113.3 358.6 " fill="#000000"></path><path d="M 94.2 333.6 L 94.2 334.2 L 94.3 335.9 L 94.1 338.5 L 93.4 341.9 L 91.9 345.7 L 89.7 349.8 L 86.4 354.1 L 81.6 358.2 L 81.1 358.5 L 79.6 359.4 L 77.6 360.7 L 75.2 362.3 L 72.7 364.2 L 70.4 366.2 L 68.7 368.1 L 67.9 369.9 L 68.3 369.6 L 69.2 368.5 L 70.4 367.2 L 72.2 365.6 L 74.2 363.9 L 76.4 362.3 L 78.7 361.1 L 81.0 360.4 L 81.6 360.0 L 83.6 358.7 L 86.1 356.6 L 88.9 353.6 L 91.5 349.9 L 93.5 345.3 L 94.7 339.9 L 94.2 333.6 Z M 94.2 333.6 " fill="#000000"></path><path d="M 92.3 332.4 L 92.6 333.0 L 93.5 334.3 L 95.0 336.4 L 96.9 338.5 L 99.4 340.5 L 102.4 342.0 L 105.8 342.8 L 109.5 342.4 L 108.8 342.1 L 107.2 341.7 L 104.7 340.9 L 101.9 339.8 L 99.0 338.3 L 96.1 336.6 L 93.9 334.7 L 92.3 332.4 Z M 92.3 332.4 " fill="#000000"></path><path d="M 62.8 358.6 L 63.0 358.3 L 63.2 357.5 L 63.5 356.1 L 64.1 354.3 L 64.7 352.1 L 65.6 349.6 L 66.5 346.8 L 67.6 343.7 L 69.0 340.5 L 70.3 337.4 L 71.9 334.0 L 73.6 330.8 L 75.5 327.7 L 77.6 324.6 L 79.7 321.8 L 82.1 319.2 L 81.9 319.4 L 81.4 320.2 L 80.6 321.4 L 79.6 322.9 L 78.4 324.9 L 77.0 327.1 L 75.4 329.6 L 73.8 332.4 L 72.1 335.4 L 70.5 338.5 L 69.0 341.8 L 67.4 345.2 L 66.0 348.6 L 64.7 351.9 L 63.6 355.3 L 62.8 358.6 Z M 62.8 358.6 " fill="#000000"></path><path d="M 89.9 353.6 L 90.4 353.4 L 91.4 352.7 L 93.0 351.7 L 94.8 350.4 L 96.7 348.7 L 98.5 346.9 L 100.0 344.7 L 100.9 342.5 L 100.6 342.9 L 99.6 344.0 L 98.3 345.7 L 96.6 347.8 L 94.8 349.8 L 93.0 351.6 L 91.3 353.0 L 89.9 353.6 Z M 89.9 353.6 " fill="#000000"></path><path d="M 83.7 316.7 L 83.8 316.4 L 84.2 315.5 L 84.9 314.1 L 86.1 312.7 L 87.3 311.1 L 88.9 309.9 L 90.8 309.1 L 93.1 308.8 L 92.9 308.9 L 92.1 309.2 L 90.9 309.7 L 89.6 310.5 L 88.0 311.5 L 86.4 312.9 L 84.9 314.6 L 83.7 316.7 Z M 83.7 316.7 " fill="#000000"></path><path d="M 67.1 371.9 L 66.9 372.7 L 66.2 374.6 L 65.2 377.1 L 63.7 379.7 L 61.8 382.0 L 59.6 383.2 L 57.0 382.9 L 53.9 380.6 L 54.2 380.8 L 55.3 381.3 L 56.6 381.6 L 58.5 381.6 L 60.6 380.9 L 62.7 379.3 L 65.0 376.3 L 67.1 371.9 Z M 67.1 371.9 " fill="#000000"></path><path d="M 59.0 366.1 L 58.9 365.7 L 58.7 364.8 L 58.4 363.5 L 58.4 361.8 L 58.8 359.8 L 59.4 357.8 L 60.8 355.9 L 62.8 354.1 L 62.6 354.3 L 62.0 355.1 L 61.3 356.2 L 60.3 357.7 L 59.6 359.5 L 58.9 361.5 L 58.7 363.8 L 59.0 366.1 Z M 59.0 366.1 " fill="#000000"></path><path d="M 62.8 382.6 L 63.1 383.1 L 63.7 384.4 L 64.8 386.0 L 66.1 387.7 L 67.8 389.0 L 69.9 389.4 L 72.1 388.7 L 74.6 386.6 L 74.3 387.0 L 73.4 388.1 L 71.9 389.2 L 70.2 390.2 L 68.3 390.4 L 66.4 389.5 L 64.5 387.0 L 62.8 382.6 Z M 62.8 382.6 " fill="#000000"></path><path d="M 50.4 378.6 L 50.3 378.2 L 49.9 377.2 L 49.4 375.8 L 48.7 374.1 L 47.7 372.3 L 46.5 370.5 L 45.2 368.9 L 43.7 367.7 L 43.1 367.4 L 41.8 366.3 L 40.0 364.5 L 38.3 362.1 L 36.9 359.2 L 36.5 355.8 L 37.4 351.9 L 40.0 347.7 L 39.5 348.0 L 38.6 349.1 L 37.4 350.8 L 36.3 353.1 L 35.9 356.0 L 36.2 359.3 L 37.8 363.1 L 41.0 367.3 L 41.3 367.5 L 42.3 368.2 L 43.8 369.2 L 45.5 370.6 L 47.2 372.3 L 48.7 374.2 L 49.8 376.3 L 50.4 378.6 Z M 50.4 378.6 " fill="#000000"></path><path d="M 60.1 355.3 L 59.9 355.1 L 59.2 354.5 L 58.1 353.8 L 56.8 352.7 L 55.4 351.6 L 53.8 350.4 L 52.2 349.2 L 50.7 348.2 L 50.5 348.1 L 50.0 348.0 L 49.5 347.7 L 48.8 347.1 L 48.1 346.4 L 47.8 345.6 L 47.7 344.5 L 48.0 343.3 L 47.9 343.4 L 47.6 343.8 L 47.2 344.5 L 47.0 345.3 L 47.0 346.3 L 47.3 347.4 L 48.1 348.7 L 49.6 349.9 L 49.9 350.0 L 50.8 350.3 L 52.2 350.7 L 53.9 351.4 L 55.6 352.2 L 57.3 353.1 L 58.9 354.1 L 60.1 355.3 Z M 60.1 355.3 " fill="#000000"></path><path d="M 45.6 350.4 L 45.6 350.1 L 45.6 349.7 L 45.6 349.0 L 45.4 348.2 L 45.1 347.4 L 44.5 346.6 L 43.7 346.1 L 42.6 345.7 L 42.7 345.9 L 43.1 346.0 L 43.7 346.3 L 44.3 346.8 L 44.8 347.4 L 45.3 348.2 L 45.6 349.2 L 45.6 350.4 Z M 45.6 350.4 " fill="#000000"></path><path d="M 43.2 353.2 L 43.2 353.0 L 43.2 352.5 L 43.2 351.8 L 43.0 351.0 L 42.7 350.3 L 42.1 349.6 L 41.3 349.0 L 40.2 348.7 L 40.3 348.8 L 40.8 348.9 L 41.3 349.2 L 41.9 349.7 L 42.5 350.4 L 42.9 351.2 L 43.2 352.1 L 43.2 353.2 Z M 43.2 353.2 " fill="#000000"></path><path d="M 41.3 355.3 L 41.3 355.1 L 41.3 354.7 L 41.3 354.0 L 41.1 353.2 L 40.8 352.4 L 40.2 351.6 L 39.4 351.0 L 38.3 350.7 L 38.4 350.8 L 38.8 350.9 L 39.4 351.3 L 40.0 351.7 L 40.5 352.4 L 41.0 353.2 L 41.3 354.2 L 41.3 355.3 Z M 41.3 355.3 " fill="#000000"></path><path d="M 40.2 357.8 L 40.2 357.6 L 40.2 357.1 L 40.1 356.5 L 40.0 355.7 L 39.5 354.9 L 38.9 354.1 L 38.2 353.5 L 37.0 353.2 L 37.1 353.3 L 37.6 353.4 L 38.2 353.8 L 38.7 354.2 L 39.3 354.9 L 39.9 355.7 L 40.2 356.7 L 40.2 357.8 Z M 40.2 357.8 " fill="#000000"></path><path d="M 96.1 308.4 L 96.4 308.3 L 97.2 308.2 L 98.4 307.9 L 100.1 307.7 L 102.1 307.4 L 104.5 307.1 L 107.2 306.9 L 110.2 306.7 L 113.2 306.7 L 116.5 306.7 L 119.8 306.9 L 123.2 307.4 L 126.6 307.9 L 130.0 308.8 L 133.3 310.0 L 136.4 311.3 L 136.6 311.4 L 137.0 311.5 L 137.8 311.8 L 138.7 312.1 L 139.7 312.2 L 141.0 312.3 L 142.2 312.3 L 143.6 312.1 L 143.4 312.2 L 142.7 312.6 L 141.5 312.8 L 140.2 313.1 L 138.5 313.2 L 136.6 313.0 L 134.6 312.4 L 132.6 311.3 L 132.4 311.2 L 131.7 311.1 L 130.6 310.8 L 129.2 310.3 L 127.4 309.9 L 125.4 309.4 L 123.0 308.9 L 120.4 308.5 L 117.7 308.0 L 114.7 307.7 L 111.8 307.4 L 108.6 307.3 L 105.4 307.3 L 102.4 307.5 L 99.2 307.8 L 96.1 308.4 Z M 96.1 308.4 " fill="#000000"></path><path d="M 146.9 312.6 L 147.4 312.7 L 148.9 312.8 L 151.1 313.0 L 153.6 313.3 L 156.3 313.6 L 159.0 313.7 L 161.3 313.7 L 162.9 313.5 L 163.2 313.5 L 164.0 313.6 L 165.2 313.8 L 166.9 314.0 L 169.0 314.6 L 171.2 315.3 L 173.7 316.2 L 176.5 317.3 L 179.4 318.9 L 182.2 320.7 L 185.1 322.9 L 188.1 325.5 L 190.9 328.6 L 193.5 332.1 L 196.0 336.1 L 198.2 340.8 L 198.1 340.4 L 197.7 339.5 L 197.0 338.1 L 196.1 336.1 L 195.0 334.0 L 193.6 331.5 L 191.9 328.9 L 190.0 326.2 L 187.7 323.5 L 185.3 320.9 L 182.4 318.4 L 179.4 316.3 L 176.1 314.5 L 172.3 313.2 L 168.4 312.4 L 164.2 312.2 L 163.6 312.2 L 161.9 312.4 L 159.6 312.6 L 156.7 312.8 L 153.8 312.9 L 150.9 312.9 L 148.6 312.8 L 146.9 312.6 Z M 146.9 312.6 " fill="#000000"></path><path d="M 192.3 356.9 L 192.4 356.7 L 192.6 356.0 L 193.0 355.1 L 193.4 353.9 L 194.1 352.5 L 194.9 351.0 L 195.8 349.6 L 196.9 348.2 L 197.3 347.7 L 198.2 346.3 L 199.5 344.2 L 201.1 341.7 L 202.7 339.0 L 204.1 336.1 L 205.2 333.7 L 205.6 331.6 L 205.6 332.0 L 205.6 332.9 L 205.5 334.3 L 205.2 336.3 L 204.3 338.7 L 202.9 341.7 L 201.0 344.9 L 198.2 348.7 L 195.7 351.6 L 194.3 353.0 L 194.0 353.1 L 194.3 352.4 L 195.0 351.2 L 195.9 349.8 L 196.6 348.7 L 196.9 348.2 L 196.7 348.6 L 196.2 349.4 L 195.6 350.5 L 194.8 351.8 L 193.9 353.3 L 193.2 354.7 L 192.6 356.0 L 192.3 356.9 Z M 192.3 356.9 " fill="#000000"></path><path d="M 192.3 379.8 L 192.5 379.8 L 193.0 379.8 L 193.8 379.8 L 194.8 379.7 L 195.9 379.5 L 197.4 379.3 L 198.8 378.9 L 200.4 378.5 L 202.0 377.9 L 203.7 377.1 L 205.3 376.2 L 206.8 375.1 L 208.2 373.7 L 209.5 372.1 L 210.5 370.3 L 211.4 368.2 L 211.4 368.3 L 211.3 368.9 L 211.1 369.6 L 210.9 370.5 L 210.4 371.6 L 209.8 372.7 L 209.0 374.0 L 208.1 375.2 L 207.1 376.4 L 205.8 377.6 L 204.2 378.6 L 202.4 379.4 L 200.3 379.9 L 197.9 380.3 L 195.2 380.3 L 192.3 379.8 Z M 192.3 379.8 " fill="#000000"></path><path d="M 190.7 359.8 L 190.7 359.7 L 190.6 359.2 L 190.6 358.5 L 190.7 357.5 L 190.9 356.3 L 191.6 355.1 L 192.5 353.8 L 193.9 352.4 L 193.6 352.5 L 193.0 353.1 L 192.1 353.8 L 191.1 354.8 L 190.4 355.9 L 189.9 357.1 L 189.9 358.5 L 190.7 359.8 Z M 190.7 359.8 " fill="#000000"></path><path d="M 217.3 334.1 L 217.2 333.9 L 217.0 333.2 L 216.5 332.4 L 215.8 331.4 L 214.9 330.6 L 213.8 329.9 L 212.3 329.7 L 210.6 329.9 L 210.9 329.9 L 211.6 330.1 L 212.7 330.2 L 213.8 330.5 L 215.0 331.0 L 216.2 331.7 L 217.0 332.8 L 217.3 334.1 Z M 217.3 334.1 " fill="#000000"></path><path d="M 207.9 328.4 L 208.0 327.9 L 208.5 326.7 L 209.5 324.9 L 211.1 322.5 L 213.3 319.8 L 216.5 317.0 L 220.7 314.0 L 225.9 311.3 L 226.1 311.2 L 226.6 311.0 L 227.4 310.5 L 228.3 310.0 L 229.2 309.3 L 230.2 308.5 L 231.1 307.6 L 231.8 306.7 L 232.0 306.6 L 232.5 306.1 L 233.2 305.7 L 234.1 305.1 L 235.0 304.4 L 236.0 304.0 L 236.9 303.5 L 237.7 303.4 L 237.6 303.4 L 237.1 303.4 L 236.4 303.5 L 235.5 303.8 L 234.5 304.1 L 233.2 304.8 L 231.8 305.8 L 230.2 307.1 L 230.0 307.4 L 229.5 307.8 L 228.7 308.5 L 227.7 309.3 L 226.5 310.1 L 225.3 310.9 L 224.1 311.4 L 222.9 311.8 L 222.4 312.0 L 221.0 312.6 L 219.0 313.6 L 216.7 315.3 L 214.1 317.4 L 211.8 320.3 L 209.6 324.0 L 207.9 328.4 Z M 207.9 328.4 " fill="#000000"></path><path d="M 224.0 338.3 L 224.2 338.2 L 224.9 338.0 L 225.9 337.4 L 227.2 336.7 L 228.5 335.8 L 229.8 334.7 L 230.9 333.2 L 231.8 331.6 L 232.0 331.1 L 232.5 329.7 L 233.4 327.7 L 234.4 325.3 L 235.5 322.9 L 236.9 320.8 L 238.1 319.1 L 239.5 318.3 L 239.7 318.1 L 240.4 317.4 L 241.3 316.4 L 242.1 315.0 L 242.7 313.6 L 242.8 311.9 L 242.2 310.2 L 240.9 308.4 L 241.1 308.6 L 241.8 309.3 L 242.6 310.2 L 243.2 311.5 L 243.5 313.0 L 243.1 314.7 L 241.9 316.5 L 239.5 318.3 L 237.2 319.8 L 236.1 320.5 L 236.0 320.6 L 236.4 320.2 L 237.4 319.7 L 238.4 319.0 L 239.2 318.5 L 239.5 318.3 L 239.3 318.7 L 238.6 319.7 L 237.7 321.0 L 236.7 322.8 L 235.7 324.7 L 234.7 326.8 L 234.1 328.7 L 233.8 330.4 L 233.7 330.7 L 233.3 331.7 L 232.6 333.0 L 231.6 334.6 L 230.2 336.0 L 228.5 337.3 L 226.5 338.1 L 224.0 338.3 Z M 224.0 338.3 " fill="#000000"></path><path d="M 239.3 302.2 L 239.5 302.1 L 240.2 301.7 L 241.1 301.4 L 242.3 301.3 L 243.8 301.6 L 245.4 302.7 L 247.1 304.7 L 248.7 307.6 L 248.4 307.3 L 248.0 306.5 L 247.1 305.3 L 246.1 304.1 L 244.6 303.0 L 243.0 302.2 L 241.2 301.8 L 239.3 302.2 Z M 239.3 302.2 " fill="#000000"></path><path d="M 212.2 363.3 L 212.2 362.8 L 212.4 361.1 L 212.8 358.5 L 213.5 355.3 L 214.7 351.7 L 216.4 348.0 L 218.9 344.2 L 222.1 340.7 L 221.7 341.4 L 220.6 343.6 L 219.1 346.6 L 217.4 350.3 L 215.6 354.1 L 214.0 357.8 L 212.8 361.0 L 212.2 363.3 Z M 212.2 363.3 " fill="#000000"></path><path d="M 210.3 376.2 L 210.6 375.9 L 211.4 374.9 L 212.4 373.2 L 213.1 370.7 L 213.2 370.3 L 213.7 369.4 L 214.4 368.1 L 215.6 366.7 L 215.8 366.4 L 216.5 365.3 L 217.5 363.8 L 218.7 361.9 L 219.9 359.6 L 221.0 357.4 L 221.8 355.2 L 222.4 353.2 L 222.3 353.6 L 222.1 354.7 L 221.6 356.3 L 220.9 358.4 L 220.0 360.7 L 218.9 363.3 L 217.4 365.8 L 215.6 368.3 L 215.4 368.6 L 214.8 369.7 L 214.1 370.9 L 213.7 372.3 L 213.7 372.4 L 213.6 372.8 L 213.3 373.5 L 213.0 374.2 L 212.6 374.9 L 212.0 375.5 L 211.2 376.0 L 210.3 376.2 Z M 210.3 376.2 " fill="#000000"></path><path d="M 223.0 350.5 L 223.1 350.4 L 223.5 349.9 L 224.0 349.4 L 224.4 348.6 L 224.7 347.8 L 224.7 347.0 L 224.2 346.2 L 223.3 345.5 L 223.4 346.0 L 223.6 347.3 L 223.5 348.9 L 223.0 350.5 Z M 223.0 350.5 " fill="#000000"></path><path d="M 224.2 339.5 L 224.4 339.4 L 224.9 339.2 L 225.7 339.0 L 226.7 338.7 L 227.8 338.6 L 229.1 338.7 L 230.2 339.2 L 231.3 340.0 L 231.5 340.1 L 231.8 340.4 L 232.4 340.9 L 232.9 341.4 L 233.7 341.9 L 234.5 342.1 L 235.4 342.2 L 236.2 342.1 L 236.1 342.1 L 235.7 342.2 L 235.0 342.4 L 234.2 342.5 L 233.3 342.5 L 232.3 342.2 L 231.3 341.9 L 230.3 341.2 L 230.2 341.0 L 230.0 340.7 L 229.5 340.1 L 229.0 339.5 L 228.2 339.1 L 227.0 338.7 L 225.8 339.0 L 224.2 339.5 Z M 224.2 339.5 " fill="#000000"></path><path d="M 228.5 344.3 L 228.9 344.4 L 229.7 344.8 L 230.8 345.2 L 232.1 345.5 L 233.5 345.7 L 234.7 345.5 L 235.8 344.7 L 236.2 343.4 L 236.1 343.5 L 235.5 343.8 L 234.9 344.2 L 233.8 344.5 L 232.7 344.8 L 231.3 344.9 L 230.0 344.8 L 228.5 344.3 Z M 228.5 344.3 " fill="#000000"></path><path d="M 234.1 346.2 L 234.2 346.2 L 234.6 346.1 L 235.3 346.0 L 236.0 346.1 L 236.8 346.3 L 237.5 346.8 L 238.0 347.7 L 238.4 348.9 L 238.3 348.8 L 237.9 348.3 L 237.5 347.9 L 236.9 347.3 L 236.2 346.8 L 235.5 346.3 L 234.7 346.1 L 234.1 346.2 Z M 234.1 346.2 " fill="#000000"></path><path d="M 223.5 352.6 L 223.6 352.5 L 224.0 352.2 L 224.4 351.8 L 225.1 351.4 L 225.9 351.0 L 226.8 350.9 L 227.8 350.9 L 228.9 351.4 L 229.2 351.3 L 230.0 350.8 L 231.2 350.3 L 232.7 349.6 L 234.3 349.0 L 235.9 348.7 L 237.2 348.6 L 238.4 348.9 L 238.1 349.0 L 237.4 349.1 L 236.3 349.5 L 235.0 349.8 L 233.6 350.4 L 232.1 351.0 L 230.9 351.7 L 229.8 352.6 L 229.7 352.5 L 229.2 352.4 L 228.6 352.2 L 227.8 351.9 L 226.9 351.8 L 225.8 351.8 L 224.7 352.1 L 223.5 352.6 Z M 223.5 352.6 " fill="#000000"></path><path d="M 240.9 319.0 L 241.2 319.3 L 242.2 320.0 L 243.7 321.0 L 245.4 322.2 L 247.2 323.1 L 249.0 323.6 L 250.5 323.6 L 251.5 322.8 L 251.4 322.8 L 250.8 322.8 L 250.0 322.8 L 248.9 322.6 L 247.3 322.2 L 245.5 321.5 L 243.4 320.5 L 240.9 319.0 Z M 240.9 319.0 " fill="#000000"></path><path d="M 248.7 306.0 L 248.9 306.0 L 249.4 306.0 L 250.0 306.0 L 250.8 306.2 L 251.6 306.6 L 252.3 307.0 L 252.9 307.8 L 253.2 308.9 L 253.1 308.8 L 252.8 308.4 L 252.3 307.9 L 251.7 307.4 L 251.1 306.7 L 250.3 306.2 L 249.5 306.0 L 248.7 306.0 Z M 248.7 306.0 " fill="#000000"></path><path d="M 252.4 322.5 L 252.8 322.2 L 253.5 321.1 L 254.2 319.8 L 254.6 318.3 L 254.6 318.9 L 254.5 320.2 L 253.9 321.7 L 252.4 322.5 Z M 252.4 322.5 " fill="#000000"></path><path d="M 248.2 319.6 L 248.4 319.6 L 249.1 319.4 L 250.0 319.3 L 251.2 319.0 L 252.3 318.7 L 253.3 318.1 L 254.0 317.4 L 254.5 316.6 L 254.7 316.5 L 255.0 315.9 L 255.6 315.3 L 256.0 314.3 L 256.4 312.9 L 256.3 311.4 L 255.8 309.9 L 254.6 308.0 L 254.5 307.8 L 254.1 307.4 L 253.4 306.7 L 252.5 305.9 L 251.5 305.1 L 250.1 304.4 L 248.6 304.0 L 246.8 303.9 L 247.0 303.9 L 247.8 303.9 L 248.8 304.0 L 250.0 304.2 L 251.5 304.7 L 252.9 305.3 L 254.2 306.5 L 255.4 307.9 L 255.6 308.2 L 256.0 308.9 L 256.6 310.1 L 257.1 311.4 L 257.3 312.9 L 257.2 314.4 L 256.4 315.8 L 254.9 317.0 L 254.8 317.1 L 254.7 317.5 L 254.2 318.0 L 253.7 318.5 L 252.8 319.1 L 251.5 319.4 L 250.0 319.7 L 248.2 319.6 Z M 248.2 319.6 " fill="#000000"></path><path d="M 160.9 421.0 L 160.7 420.8 L 160.0 420.3 L 159.2 419.5 L 158.3 418.5 L 157.6 417.4 L 157.3 416.2 L 157.5 414.9 L 158.5 413.7 L 158.5 413.5 L 158.4 412.7 L 158.4 411.6 L 158.6 410.4 L 159.0 409.1 L 159.6 407.9 L 160.6 406.8 L 162.0 406.1 L 162.0 405.8 L 162.2 405.0 L 162.4 403.7 L 162.8 402.4 L 163.4 401.0 L 164.3 399.8 L 165.6 398.9 L 167.3 398.6 L 167.1 399.1 L 166.9 400.8 L 166.6 403.1 L 166.0 405.8 L 165.1 408.5 L 164.0 410.9 L 162.6 412.7 L 160.9 413.5 L 160.9 421.0 Z M 160.9 421.0 " fill="#340600"></path><path d="M 159.2 420.2 L 159.0 420.1 L 158.4 419.7 L 157.6 419.0 L 156.9 418.1 L 156.4 417.0 L 156.3 415.7 L 156.7 414.4 L 158.0 412.9 L 157.9 413.1 L 157.6 413.6 L 157.4 414.4 L 157.2 415.3 L 157.2 416.4 L 157.4 417.6 L 158.1 419.0 L 159.2 420.2 Z M 159.2 420.2 " fill="#000000"></path><path d="M 158.0 412.1 L 158.0 411.3 L 158.3 409.5 L 159.2 407.4 L 160.9 405.9 L 160.8 405.6 L 160.8 404.5 L 160.8 403.2 L 161.0 401.6 L 161.7 400.1 L 162.9 398.9 L 164.9 398.1 L 167.6 398.0 L 167.4 398.1 L 166.7 398.3 L 165.7 398.8 L 164.6 399.5 L 163.6 400.5 L 162.7 401.6 L 162.2 403.2 L 162.0 405.1 L 161.8 405.3 L 161.4 405.9 L 160.7 406.7 L 159.9 407.8 L 159.1 408.9 L 158.4 410.1 L 158.0 411.2 L 158.0 412.1 Z M 158.0 412.1 " fill="#000000"></path><path d="M 179.9 424.2 L 179.7 423.7 L 179.0 422.6 L 178.2 421.0 L 177.6 419.2 L 177.2 417.4 L 177.6 415.9 L 178.8 415.0 L 181.2 414.9 L 181.0 414.9 L 180.3 415.0 L 179.5 415.3 L 178.8 415.8 L 178.2 417.0 L 178.1 418.5 L 178.6 420.9 L 179.9 424.2 Z M 179.9 424.2 " fill="#000000"></path><path d="M 162.3 429.9 L 161.9 429.8 L 161.0 429.7 L 159.8 429.3 L 158.4 428.6 L 157.2 427.6 L 156.5 426.2 L 156.3 424.4 L 157.1 422.1 L 156.9 422.5 L 156.8 423.2 L 156.8 424.3 L 156.9 425.5 L 157.4 426.9 L 158.4 428.2 L 160.0 429.3 L 162.3 429.9 Z M 162.3 429.9 " fill="#000000"></path><path d="M 165.2 436.6 L 164.9 436.5 L 163.9 436.4 L 162.6 435.9 L 161.3 435.2 L 160.1 434.2 L 159.3 432.9 L 159.2 431.1 L 160.0 428.8 L 159.9 429.1 L 159.8 429.8 L 159.8 430.9 L 159.9 432.2 L 160.3 433.5 L 161.4 434.9 L 162.9 435.9 L 165.2 436.6 Z M 165.2 436.6 " fill="#000000"></path><path d="M 190.2 434.4 L 190.5 434.1 L 191.0 433.3 L 191.6 432.0 L 192.1 430.5 L 192.1 428.8 L 191.5 427.1 L 190.0 425.6 L 187.5 424.4 L 188.0 424.5 L 189.1 424.9 L 190.7 425.5 L 192.2 426.5 L 193.2 427.9 L 193.4 429.6 L 192.6 431.8 L 190.2 434.4 Z M 190.2 434.4 " fill="#000000"></path><path d="M 182.2 443.6 L 182.5 443.8 L 183.6 444.4 L 185.0 444.9 L 186.7 445.6 L 188.5 446.0 L 190.1 446.0 L 191.6 445.3 L 192.5 443.8 L 192.4 443.9 L 191.9 444.3 L 191.1 444.6 L 190.0 444.9 L 188.5 445.1 L 186.7 444.9 L 184.7 444.5 L 182.2 443.6 Z M 182.2 443.6 " fill="#000000"></path><path d="M 196.8 443.2 L 197.3 443.4 L 198.3 443.6 L 199.9 443.8 L 201.6 443.8 L 203.4 443.6 L 205.1 442.9 L 206.2 441.8 L 206.9 440.0 L 206.8 440.2 L 206.5 440.7 L 206.1 441.3 L 205.3 442.0 L 203.9 442.7 L 202.2 443.1 L 199.9 443.4 L 196.8 443.2 Z M 196.8 443.2 " fill="#000000"></path><path d="M 205.2 437.7 L 205.6 437.9 L 206.7 438.4 L 208.1 438.8 L 209.9 439.2 L 211.8 439.0 L 213.5 438.3 L 214.8 436.6 L 215.6 433.9 L 215.6 434.1 L 215.5 434.6 L 215.3 435.2 L 214.8 435.9 L 214.2 436.4 L 213.5 436.4 L 212.3 436.0 L 210.9 434.9 L 210.6 434.9 L 209.9 434.8 L 209.0 434.7 L 208.0 434.8 L 207.0 435.0 L 206.1 435.6 L 205.4 436.5 L 205.2 437.7 Z M 205.2 437.7 " fill="#340600"></path><path d="M 205.4 439.3 L 205.9 439.4 L 206.9 439.6 L 208.5 439.9 L 210.3 439.9 L 212.1 439.6 L 213.7 439.0 L 214.9 437.8 L 215.5 436.0 L 215.4 436.2 L 215.2 436.7 L 214.7 437.4 L 213.9 438.1 L 212.6 438.7 L 210.9 439.2 L 208.5 439.4 L 205.4 439.3 Z M 205.4 439.3 " fill="#000000"></path><path d="M 168.2 436.7 L 168.2 437.0 L 168.3 437.9 L 168.6 439.1 L 169.2 440.3 L 170.1 441.6 L 171.3 442.5 L 173.0 442.9 L 175.4 442.6 L 175.0 442.7 L 173.9 442.8 L 172.5 442.9 L 170.8 442.8 L 169.3 442.2 L 168.2 441.1 L 167.7 439.3 L 168.2 436.7 Z M 168.2 436.7 " fill="#000000"></path></g></g><text xml:space="preserve" font-family="Arial-Black" font-weight="bold" font-size="20.0" fill="#000000" transform="matrix(0.94, 0.33, 0.33, -0.94, 124.6, 318.0)">W</text><text xml:space="preserve" font-family="Arial-Black" font-weight="bold" font-size="20.0" fill="#000000" transform="matrix(0.94, 0.33, 0.33, -0.94, 143.5, 324.6)">A</text><text xml:space="preserve" font-family="Arial-Black" font-weight="bold" font-size="24.0" fill="#000000" transform="matrix(0.94, 0.33, 0.33, -0.94, 158.2, 329.7)">M</text><text xml:space="preserve" font-family="Helvetica" font-size="32.0" fill="#172557" transform="matrix(1.00, 0.00, -0.00, -1.00, 32.6, 260.8)">•</text><text xml:space="preserve" font-family="Helvetica" font-size="32.0" fill="#172557" transform="matrix(1.00, 0.00, -0.00, -1.00, 60.0, 261.0)">W</text><text xml:space="preserve" font-family="Helvetica" font-size="32.0" fill="#172557" transform="matrix(1.00, 0.00, -0.00, -1.00, 89.0, 261.0)">A</text><text xml:space="preserve" font-family="Helvetica" font-size="32.0" fill="#172557" transform="matrix(1.00, 0.00, -0.00, -1.00, 110.4, 261.0)">M</text><text xml:space="preserve" font-family="Helvetica" font-size="32.0" fill="#172557" transform="matrix(1.00, 0.00, -0.00, -1.00, 137.0, 261.0)">v</text><text xml:space="preserve" font-family="Helvetica" font-size="32.0" fill="#172557" transform="matrix(1.00, 0.00, -0.00, -1.00, 153.0, 261.0)">2</text><text xml:space="preserve" font-family="Helvetica" font-size="32.0" fill="#172557" transform="matrix(1.00, 0.00, -0.00, -1.00, 170.8, 261.0)"> </text><text xml:space="preserve" font-family="Helvetica" font-size="32.0" fill="#172557" transform="matrix(1.00, 0.00, -0.00, -1.00, 179.7, 261.0)">n</text><text xml:space="preserve" font-family="Helvetica" font-size="32.0" fill="#172557" transform="matrix(1.00, 0.00, -0.00, -1.00, 197.5, 261.0)">a</text><text xml:space="preserve" font-family="Helvetica" font-size="32.0" fill="#172557" transform="matrix(1.00, 0.00, -0.00, -1.00, 215.3, 261.0)">c</text><text xml:space="preserve" font-family="Helvetica" font-size="32.0" fill="#172557" transform="matrix(1.00, 0.00, -0.00, -1.00, 231.3, 261.0)">i</text><text xml:space="preserve" font-family="Helvetica" font-size="32.0" fill="#172557" transform="matrix(1.00, 0.00, -0.00, -1.00, 238.4, 261.0)">ó</text><text xml:space="preserve" font-family="Helvetica" font-size="32.0" fill="#172557" transform="matrix(1.00, 0.00, -0.00, -1.00, 256.2, 261.0)"> </text><text xml:space="preserve" font-family="Helvetica" font-size="32.0" fill="#172557" transform="matrix(1.00, 0.00, -0.00, -1.00, 265.1, 261.0)">p</text><text xml:space="preserve" font-family="Helvetica" font-size="32.0" fill="#172557" transform="matrix(1.00, 0.00, -0.00, -1.00, 282.9, 261.0)">o</text><text xml:space="preserve" font-family="Helvetica" font-size="32.0" fill="#172557" transform="matrix(1.00, 0.00, -0.00, -1.00, 300.7, 261.0)">c</text><text xml:space="preserve" font-family="Helvetica" font-size="32.0" fill="#172557" transform="matrix(1.00, 0.00, -0.00, -1.00, 316.7, 261.0)">o</text><text xml:space="preserve" font-family="Helvetica" font-size="32.0" fill="#172557" transform="matrix(1.00, 0.00, -0.00, -1.00, 334.5, 261.0)"> </text><text xml:space="preserve" font-family="Helvetica" font-size="32.0" fill="#172557" transform="matrix(1.00, 0.00, -0.00, -1.00, 343.4, 261.0)">d</text><text xml:space="preserve" font-family="Helvetica" font-size="32.0" fill="#172557" transform="matrix(1.00, 0.00, -0.00, -1.00, 361.2, 261.0)">e</text><text xml:space="preserve" font-family="Helvetica" font-size="32.0" fill="#172557" transform="matrix(1.00, 0.00, -0.00, -1.00, 379.0, 261.0)">s</text><text xml:space="preserve" font-family="Helvetica" font-size="32.0" fill="#172557" transform="matrix(1.00, 0.00, -0.00, -1.00, 395.0, 261.0)">p</text><text xml:space="preserve" font-family="Helvetica" font-size="32.0" fill="#172557" transform="matrix(1.00, 0.00, -0.00, -1.00, 412.8, 261.0)">u</text><text xml:space="preserve" font-family="Helvetica" font-size="32.0" fill="#172557" transform="matrix(1.00, 0.00, -0.00, -1.00, 430.6, 261.0)">é</text><text xml:space="preserve" font-family="Helvetica" font-size="32.0" fill="#172557" transform="matrix(1.00, 0.00, -0.00, -1.00, 448.4, 261.0)">s</text><text xml:space="preserve" font-family="Helvetica" font-size="32.0" fill="#172557" transform="matrix(1.00, 0.00, -0.00, -1.00, 464.4, 261.0)">,</text><text xml:space="preserve" font-family="Helvetica" font-size="32.0" fill="#172557" transform="matrix(1.00, 0.00, -0.00, -1.00, 473.3, 261.0)"> </text><text xml:space="preserve" font-family="Helvetica" font-size="32.0" fill="#172557" transform="matrix(1.00, 0.00, -0.00, -1.00, 482.2, 261.0)">p</text><text xml:space="preserve" font-family="Helvetica" font-size="32.0" fill="#172557" transform="matrix(1.00, 0.00, -0.00, -1.00, 500.0, 261.0)">e</text><text xml:space="preserve" font-family="Helvetica" font-size="32.0" fill="#172557" transform="matrix(1.00, 0.00, -0.00, -1.00, 517.8, 261.0)">r</text><text xml:space="preserve" font-family="Helvetica" font-size="32.0" fill="#172557" transform="matrix(1.00, 0.00, -0.00, -1.00, 528.5, 261.0)">o</text><text xml:space="preserve" font-family="Helvetica" font-size="32.0" fill="#172557" transform="matrix(1.00, 0.00, -0.00, -1.00, 546.3, 261.0)"> </text><text xml:space="preserve" font-family="Helvetica" font-size="32.0" fill="#172557" transform="matrix(1.00, 0.00, -0.00, -1.00, 555.2, 261.0)">c</text><text xml:space="preserve" font-family="Helvetica" font-size="32.0" fill="#172557" transform="matrix(1.00, 0.00, -0.00, -1.00, 571.2, 261.0)">o</text><text xml:space="preserve" font-family="Helvetica" font-size="32.0" fill="#172557" transform="matrix(1.00, 0.00, -0.00, -1.00, 589.0, 261.0)">n</text><text xml:space="preserve" font-family="Helvetica" font-size="32.0" fill="#172557" transform="matrix(1.00, 0.00, -0.00, -1.00, 606.8, 261.0)"> </text><text xml:space="preserve" font-family="Helvetica" font-size="32.0" fill="#172557" transform="matrix(1.00, 0.00, -0.00, -1.00, 60.0, 223.0)">g</text><text xml:space="preserve" font-family="Helvetica" font-size="32.0" fill="#172557" transform="matrix(1.00, 0.00, -0.00, -1.00, 77.8, 223.0)">e</text><text xml:space="preserve" font-family="Helvetica" font-size="32.0" fill="#172557" transform="matrix(1.00, 0.00, -0.00, -1.00, 95.6, 223.0)">n</text><text xml:space="preserve" font-family="Helvetica" font-size="32.0" fill="#172557" transform="matrix(1.00, 0.00, -0.00, -1.00, 113.4, 223.0)">e</text><text xml:space="preserve" font-family="Helvetica" font-size="32.0" fill="#172557" transform="matrix(1.00, 0.00, -0.00, -1.00, 131.2, 223.0)">s</text><text xml:space="preserve" font-family="Helvetica" font-size="32.0" fill="#172557" transform="matrix(1.00, 0.00, -0.00, -1.00, 147.2, 223.0)"> </text><text xml:space="preserve" font-family="Helvetica" font-size="32.0" fill="#172557" transform="matrix(1.00, 0.00, -0.00, -1.00, 156.1, 223.0)">d</text><text xml:space="preserve" font-family="Helvetica" font-size="32.0" fill="#172557" transform="matrix(1.00, 0.00, -0.00, -1.00, 173.9, 223.0)">e</text><text xml:space="preserve" font-family="Helvetica" font-size="32.0" fill="#172557" transform="matrix(1.00, 0.00, -0.00, -1.00, 191.7, 223.0)"> </text><text xml:space="preserve" font-family="Helvetica" font-size="32.0" fill="#172557" transform="matrix(1.00, 0.00, -0.00, -1.00, 200.6, 223.0)">m</text><text xml:space="preserve" font-family="Helvetica" font-size="32.0" fill="#172557" transform="matrix(1.00, 0.00, -0.00, -1.00, 227.2, 223.0)">á</text><text xml:space="preserve" font-family="Helvetica" font-size="32.0" fill="#172557" transform="matrix(1.00, 0.00, -0.00, -1.00, 245.0, 223.0)">s</text><text xml:space="preserve" font-family="Helvetica" font-size="32.0" fill="#172557" transform="matrix(1.00, 0.00, -0.00, -1.00, 261.0, 223.0)"> </text><text xml:space="preserve" font-family="Helvetica" font-size="32.0" fill="#172557" transform="matrix(1.00, 0.00, -0.00, -1.00, 269.9, 223.0)">c</text><text xml:space="preserve" font-family="Helvetica" font-size="32.0" fill="#172557" transform="matrix(1.00, 0.00, -0.00, -1.00, 285.9, 223.0)">a</text><text xml:space="preserve" font-family="Helvetica" font-size="32.0" fill="#172557" transform="matrix(1.00, 0.00, -0.00, -1.00, 303.7, 223.0)">l</text><text xml:space="preserve" font-family="Helvetica" font-size="32.0" fill="#172557" transform="matrix(1.00, 0.00, -0.00, -1.00, 310.9, 223.0)">i</text><text xml:space="preserve" font-family="Helvetica" font-size="32.0" fill="#172557" transform="matrix(1.00, 0.00, -0.00, -1.00, 318.0, 223.0)">d</text><text xml:space="preserve" font-family="Helvetica" font-size="32.0" fill="#172557" transform="matrix(1.00, 0.00, -0.00, -1.00, 335.8, 223.0)">a</text><text xml:space="preserve" font-family="Helvetica" font-size="32.0" fill="#172557" transform="matrix(1.00, 0.00, -0.00, -1.00, 353.6, 223.0)">d</text><text xml:space="preserve" font-family="Helvetica" font-size="32.0" fill="#172557" transform="matrix(1.00, 0.00, -0.00, -1.00, 32.6, 177.1)">•</text><text xml:space="preserve" font-family="Helvetica" font-size="32.0" fill="#172557" transform="matrix(1.00, 0.00, -0.00, -1.00, 60.0, 177.0)">E</text><text xml:space="preserve" font-family="Helvetica" font-size="32.0" fill="#172557" transform="matrix(1.00, 0.00, -0.00, -1.00, 81.3, 177.0)">n</text><text xml:space="preserve" font-family="Helvetica" font-size="32.0" fill="#172557" transform="matrix(1.00, 0.00, -0.00, -1.00, 99.1, 177.0)"> </text><text xml:space="preserve" font-family="Helvetica" font-size="32.0" fill="#172557" transform="matrix(1.00, 0.00, -0.00, -1.00, 108.0, 177.0)">s</text><text xml:space="preserve" font-family="Helvetica" font-size="32.0" fill="#172557" transform="matrix(1.00, 0.00, -0.00, -1.00, 124.0, 177.0)">ó</text><text xml:space="preserve" font-family="Helvetica" font-size="32.0" fill="#172557" transform="matrix(1.00, 0.00, -0.00, -1.00, 141.8, 177.0)">l</text><text xml:space="preserve" font-family="Helvetica" font-size="32.0" fill="#172557" transform="matrix(1.00, 0.00, -0.00, -1.00, 149.0, 177.0)">o</text><text xml:space="preserve" font-family="Helvetica" font-size="32.0" fill="#172557" transform="matrix(1.00, 0.00, -0.00, -1.00, 166.8, 177.0)"> </text><text xml:space="preserve" font-family="Helvetica" font-size="32.0" fill="#172557" transform="matrix(1.00, 0.00, -0.00, -1.00, 175.6, 177.0)">u</text><text xml:space="preserve" font-family="Helvetica" font-size="32.0" fill="#172557" transform="matrix(1.00, 0.00, -0.00, -1.00, 193.4, 177.0)">n</text><text xml:space="preserve" font-family="Helvetica" font-size="32.0" fill="#172557" transform="matrix(1.00, 0.00, -0.00, -1.00, 211.2, 177.0)">o</text><text xml:space="preserve" font-family="Helvetica" font-size="32.0" fill="#172557" transform="matrix(1.00, 0.00, -0.00, -1.00, 229.0, 177.0)">s</text><text xml:space="preserve" font-family="Helvetica" font-size="32.0" fill="#172557" transform="matrix(1.00, 0.00, -0.00, -1.00, 245.0, 177.0)"> </text><text xml:space="preserve" font-family="Helvetica" font-size="32.0" fill="#172557" transform="matrix(1.00, 0.00, -0.00, -1.00, 253.9, 177.0)">m</text><text xml:space="preserve" font-family="Helvetica" font-size="32.0" fill="#172557" transform="matrix(1.00, 0.00, -0.00, -1.00, 280.6, 177.0)">e</text><text xml:space="preserve" font-family="Helvetica" font-size="32.0" fill="#172557" transform="matrix(1.00, 0.00, -0.00, -1.00, 298.4, 177.0)">s</text><text xml:space="preserve" font-family="Helvetica" font-size="32.0" fill="#172557" transform="matrix(1.00, 0.00, -0.00, -1.00, 314.4, 177.0)">e</text><text xml:space="preserve" font-family="Helvetica" font-size="32.0" fill="#172557" transform="matrix(1.00, 0.00, -0.00, -1.00, 332.2, 177.0)">s</text><text xml:space="preserve" font-family="Helvetica" font-size="32.0" fill="#172557" transform="matrix(1.00, 0.00, -0.00, -1.00, 348.2, 177.0)"> </text><text xml:space="preserve" font-family="Helvetica" font-size="32.0" fill="#172557" transform="matrix(1.00, 0.00, -0.00, -1.00, 357.1, 177.0)">h</text><text xml:space="preserve" font-family="Helvetica" font-size="32.0" fill="#172557" transform="matrix(1.00, 0.00, -0.00, -1.00, 374.9, 177.0)">a</text><text xml:space="preserve" font-family="Helvetica" font-size="32.0" fill="#172557" transform="matrix(1.00, 0.00, -0.00, -1.00, 392.7, 177.0)"> </text><text xml:space="preserve" font-family="Helvetica" font-size="32.0" fill="#172557" transform="matrix(1.00, 0.00, -0.00, -1.00, 401.6, 177.0)">c</text><text xml:space="preserve" font-family="Helvetica" font-size="32.0" fill="#172557" transform="matrix(1.00, 0.00, -0.00, -1.00, 417.6, 177.0)">r</text><text xml:space="preserve" font-family="Helvetica" font-size="32.0" fill="#172557" transform="matrix(1.00, 0.00, -0.00, -1.00, 428.2, 177.0)">e</text><text xml:space="preserve" font-family="Helvetica" font-size="32.0" fill="#172557" transform="matrix(1.00, 0.00, -0.00, -1.00, 446.0, 177.0)">c</text><text xml:space="preserve" font-family="Helvetica" font-size="32.0" fill="#172557" transform="matrix(1.00, 0.00, -0.00, -1.00, 462.0, 177.0)">i</text><text xml:space="preserve" font-family="Helvetica" font-size="32.0" fill="#172557" transform="matrix(1.00, 0.00, -0.00, -1.00, 469.1, 177.0)">d</text><text xml:space="preserve" font-family="Helvetica" font-size="32.0" fill="#172557" transform="matrix(1.00, 0.00, -0.00, -1.00, 486.9, 177.0)">o</text><text xml:space="preserve" font-family="Helvetica" font-size="32.0" fill="#172557" transform="matrix(1.00, 0.00, -0.00, -1.00, 504.8, 177.0)"> </text><text xml:space="preserve" font-family="Helvetica" font-size="32.0" fill="#172557" transform="matrix(1.00, 0.00, -0.00, -1.00, 513.6, 177.0)">m</text><text xml:space="preserve" font-family="Helvetica" font-size="32.0" fill="#172557" transform="matrix(1.00, 0.00, -0.00, -1.00, 540.3, 177.0)">á</text><text xml:space="preserve" font-family="Helvetica" font-size="32.0" fill="#172557" transform="matrix(1.00, 0.00, -0.00, -1.00, 558.1, 177.0)">s</text><text xml:space="preserve" font-family="Helvetica" font-size="32.0" fill="#172557" transform="matrix(1.00, 0.00, -0.00, -1.00, 574.1, 177.0)"> </text><text xml:space="preserve" font-family="Helvetica" font-size="32.0" fill="#172557" transform="matrix(1.00, 0.00, -0.00, -1.00, 583.0, 177.0)">d</text><text xml:space="preserve" font-family="Helvetica" font-size="32.0" fill="#172557" transform="matrix(1.00, 0.00, -0.00, -1.00, 600.8, 177.0)">e</text><text xml:space="preserve" font-family="Helvetica" font-size="32.0" fill="#172557" transform="matrix(1.00, 0.00, -0.00, -1.00, 618.6, 177.0)"> </text><text xml:space="preserve" font-family="Helvetica" font-size="32.0" fill="#172557" transform="matrix(1.00, 0.00, -0.00, -1.00, 627.5, 177.0)">l</text><text xml:space="preserve" font-family="Helvetica" font-size="32.0" fill="#172557" transform="matrix(1.00, 0.00, -0.00, -1.00, 634.6, 177.0)">o</text><text xml:space="preserve" font-family="Helvetica" font-size="32.0" fill="#172557" transform="matrix(1.00, 0.00, -0.00, -1.00, 652.4, 177.0)"> </text><text xml:space="preserve" font-family="Helvetica" font-size="32.0" fill="#172557" transform="matrix(1.00, 0.00, -0.00, -1.00, 60.0, 139.0)">q</text><text xml:space="preserve" font-family="Helvetica" font-size="32.0" fill="#172557" transform="matrix(1.00, 0.00, -0.00, -1.00, 77.8, 139.0)">u</text><text xml:space="preserve" font-family="Helvetica" font-size="32.0" fill="#172557" transform="matrix(1.00, 0.00, -0.00, -1.00, 95.6, 139.0)">e</text><text xml:space="preserve" font-family="Helvetica" font-size="32.0" fill="#172557" transform="matrix(1.00, 0.00, -0.00, -1.00, 113.4, 139.0)"> </text><text xml:space="preserve" font-family="Helvetica" font-size="32.0" fill="#172557" transform="matrix(1.00, 0.00, -0.00, -1.00, 122.3, 139.0)">l</text><text xml:space="preserve" font-family="Helvetica" font-size="32.0" fill="#172557" transform="matrix(1.00, 0.00, -0.00, -1.00, 129.4, 139.0)">o</text><text xml:space="preserve" font-family="Helvetica" font-size="32.0" fill="#172557" transform="matrix(1.00, 0.00, -0.00, -1.00, 147.2, 139.0)"> </text><text xml:space="preserve" font-family="Helvetica" font-size="32.0" fill="#172557" transform="matrix(1.00, 0.00, -0.00, -1.00, 156.1, 139.0)">h</text><text xml:space="preserve" font-family="Helvetica" font-size="32.0" fill="#172557" transform="matrix(1.00, 0.00, -0.00, -1.00, 173.9, 139.0)">i</text><text xml:space="preserve" font-family="Helvetica" font-size="32.0" fill="#172557" transform="matrix(1.00, 0.00, -0.00, -1.00, 181.0, 139.0)">z</text><text xml:space="preserve" font-family="Helvetica" font-size="32.0" fill="#172557" transform="matrix(1.00, 0.00, -0.00, -1.00, 197.0, 139.0)">o</text><text xml:space="preserve" font-family="Helvetica" font-size="32.0" fill="#172557" transform="matrix(1.00, 0.00, -0.00, -1.00, 214.8, 139.0)"> </text><text xml:space="preserve" font-family="Helvetica" font-size="32.0" fill="#172557" transform="matrix(1.00, 0.00, -0.00, -1.00, 223.7, 139.0)">s</text><text xml:space="preserve" font-family="Helvetica" font-size="32.0" fill="#172557" transform="matrix(1.00, 0.00, -0.00, -1.00, 239.7, 139.0)">u</text><text xml:space="preserve" font-family="Helvetica" font-size="32.0" fill="#172557" transform="matrix(1.00, 0.00, -0.00, -1.00, 257.5, 139.0)"> </text><text xml:space="preserve" font-family="Helvetica" font-size="32.0" fill="#172557" transform="matrix(1.00, 0.00, -0.00, -1.00, 266.4, 139.0)">h</text><text xml:space="preserve" font-family="Helvetica" font-size="32.0" fill="#172557" transform="matrix(1.00, 0.00, -0.00, -1.00, 284.2, 139.0)">e</text><text xml:space="preserve" font-family="Helvetica" font-size="32.0" fill="#172557" transform="matrix(1.00, 0.00, -0.00, -1.00, 302.0, 139.0)">r</text><text xml:space="preserve" font-family="Helvetica" font-size="32.0" fill="#172557" transform="matrix(1.00, 0.00, -0.00, -1.00, 312.7, 139.0)">m</text><text xml:space="preserve" font-family="Helvetica" font-size="32.0" fill="#172557" transform="matrix(1.00, 0.00, -0.00, -1.00, 339.3, 139.0)">a</text><text xml:space="preserve" font-family="Helvetica" font-size="32.0" fill="#172557" transform="matrix(1.00, 0.00, -0.00, -1.00, 357.1, 139.0)">n</text><text xml:space="preserve" font-family="Helvetica" font-size="32.0" fill="#172557" transform="matrix(1.00, 0.00, -0.00, -1.00, 374.9, 139.0)">o</text><text xml:space="preserve" font-family="Helvetica" font-size="32.0" fill="#172557" transform="matrix(1.00, 0.00, -0.00, -1.00, 392.7, 139.0)"> </text><text xml:space="preserve" font-family="Helvetica" font-size="32.0" fill="#172557" transform="matrix(1.00, 0.00, -0.00, -1.00, 401.6, 139.0)">e</text><text xml:space="preserve" font-family="Helvetica" font-size="32.0" fill="#172557" transform="matrix(1.00, 0.00, -0.00, -1.00, 419.4, 139.0)">n</text><text xml:space="preserve" font-family="Helvetica" font-size="32.0" fill="#172557" transform="matrix(1.00, 0.00, -0.00, -1.00, 437.2, 139.0)"> </text><text xml:space="preserve" font-family="Helvetica" font-size="32.0" fill="#172557" transform="matrix(1.00, 0.00, -0.00, -1.00, 446.1, 139.0)">t</text><text xml:space="preserve" font-family="Helvetica" font-size="32.0" fill="#172557" transform="matrix(1.00, 0.00, -0.00, -1.00, 455.0, 139.0)">o</text><text xml:space="preserve" font-family="Helvetica" font-size="32.0" fill="#172557" transform="matrix(1.00, 0.00, -0.00, -1.00, 472.8, 139.0)">d</text><text xml:space="preserve" font-family="Helvetica" font-size="32.0" fill="#172557" transform="matrix(1.00, 0.00, -0.00, -1.00, 490.6, 139.0)">o</text><text xml:space="preserve" font-family="Helvetica" font-size="32.0" fill="#172557" transform="matrix(1.00, 0.00, -0.00, -1.00, 508.4, 139.0)"> </text><text xml:space="preserve" font-family="Helvetica" font-size="32.0" fill="#172557" transform="matrix(1.00, 0.00, -0.00, -1.00, 517.3, 139.0)">u</text><text xml:space="preserve" font-family="Helvetica" font-size="32.0" fill="#172557" transform="matrix(1.00, 0.00, -0.00, -1.00, 535.1, 139.0)">n</text><text xml:space="preserve" font-family="Helvetica" font-size="32.0" fill="#172557" transform="matrix(1.00, 0.00, -0.00, -1.00, 552.9, 139.0)"> </text><text xml:space="preserve" font-family="Helvetica" font-size="32.0" fill="#172557" transform="matrix(1.00, 0.00, -0.00, -1.00, 561.8, 139.0)">a</text><text xml:space="preserve" font-family="Helvetica" font-size="32.0" fill="#172557" transform="matrix(1.00, 0.00, -0.00, -1.00, 579.6, 139.0)">ñ</text><text xml:space="preserve" font-family="Helvetica" font-size="32.0" fill="#172557" transform="matrix(1.00, 0.00, -0.00, -1.00, 597.4, 139.0)">o</text><text xml:space="preserve" font-family="Helvetica" font-size="32.0" fill="#172557" transform="matrix(1.00, 0.00, -0.00, -1.00, 615.2, 139.0)">.</text><text xml:space="preserve" font-family="Helvetica" font-size="32.0" fill="#172557" transform="matrix(1.00, 0.00, -0.00, -1.00, 32.6, 93.4)">•</text><text xml:space="preserve" font-family="Helvetica" font-size="32.0" fill="#172557" transform="matrix(1.00, 0.00, -0.00, -1.00, 60.0, 93.0)">¡</text><text xml:space="preserve" font-family="Helvetica" font-size="32.0" fill="#172557" transform="matrix(1.00, 0.00, -0.00, -1.00, 70.7, 93.0)">A</text><text xml:space="preserve" font-family="Helvetica" font-size="32.0" fill="#172557" transform="matrix(1.00, 0.00, -0.00, -1.00, 92.0, 93.0)">h</text><text xml:space="preserve" font-family="Helvetica" font-size="32.0" fill="#172557" transform="matrix(1.00, 0.00, -0.00, -1.00, 109.8, 93.0)">o</text><text xml:space="preserve" font-family="Helvetica" font-size="32.0" fill="#172557" transform="matrix(1.00, 0.00, -0.00, -1.00, 127.6, 93.0)">r</text><text xml:space="preserve" font-family="Helvetica" font-size="32.0" fill="#172557" transform="matrix(1.00, 0.00, -0.00, -1.00, 138.3, 93.0)">a</text><text xml:space="preserve" font-family="Helvetica" font-size="32.0" fill="#172557" transform="matrix(1.00, 0.00, -0.00, -1.00, 156.1, 93.0)"> </text><text xml:space="preserve" font-family="Helvetica" font-size="32.0" fill="#172557" transform="matrix(1.00, 0.00, -0.00, -1.00, 165.0, 93.0)">t</text><text xml:space="preserve" font-family="Helvetica" font-size="32.0" fill="#172557" transform="matrix(1.00, 0.00, -0.00, -1.00, 173.8, 93.0)">o</text><text xml:space="preserve" font-family="Helvetica" font-size="32.0" fill="#172557" transform="matrix(1.00, 0.00, -0.00, -1.00, 191.6, 93.0)">d</text><text xml:space="preserve" font-family="Helvetica" font-size="32.0" fill="#172557" transform="matrix(1.00, 0.00, -0.00, -1.00, 209.4, 93.0)">o</text><text xml:space="preserve" font-family="Helvetica" font-size="32.0" fill="#172557" transform="matrix(1.00, 0.00, -0.00, -1.00, 227.2, 93.0)">s</text><text xml:space="preserve" font-family="Helvetica" font-size="32.0" fill="#172557" transform="matrix(1.00, 0.00, -0.00, -1.00, 243.2, 93.0)"> </text><text xml:space="preserve" font-family="Helvetica" font-size="32.0" fill="#172557" transform="matrix(1.00, 0.00, -0.00, -1.00, 252.1, 93.0)">q</text><text xml:space="preserve" font-family="Helvetica" font-size="32.0" fill="#172557" transform="matrix(1.00, 0.00, -0.00, -1.00, 269.9, 93.0)">u</text><text xml:space="preserve" font-family="Helvetica" font-size="32.0" fill="#172557" transform="matrix(1.00, 0.00, -0.00, -1.00, 287.7, 93.0)">i</text><text xml:space="preserve" font-family="Helvetica" font-size="32.0" fill="#172557" transform="matrix(1.00, 0.00, -0.00, -1.00, 294.9, 93.0)">e</text><text xml:space="preserve" font-family="Helvetica" font-size="32.0" fill="#172557" transform="matrix(1.00, 0.00, -0.00, -1.00, 312.7, 93.0)">r</text><text xml:space="preserve" font-family="Helvetica" font-size="32.0" fill="#172557" transform="matrix(1.00, 0.00, -0.00, -1.00, 323.3, 93.0)">e</text><text xml:space="preserve" font-family="Helvetica" font-size="32.0" fill="#172557" transform="matrix(1.00, 0.00, -0.00, -1.00, 341.1, 93.0)">n</text><text xml:space="preserve" font-family="Helvetica" font-size="32.0" fill="#172557" transform="matrix(1.00, 0.00, -0.00, -1.00, 358.9, 93.0)"> </text><text xml:space="preserve" font-family="Helvetica" font-size="32.0" fill="#172557" transform="matrix(1.00, 0.00, -0.00, -1.00, 367.8, 93.0)">j</text><text xml:space="preserve" font-family="Helvetica" font-size="32.0" fill="#172557" transform="matrix(1.00, 0.00, -0.00, -1.00, 374.9, 93.0)">u</text><text xml:space="preserve" font-family="Helvetica" font-size="32.0" fill="#172557" transform="matrix(1.00, 0.00, -0.00, -1.00, 392.7, 93.0)">g</text><text xml:space="preserve" font-family="Helvetica" font-size="32.0" fill="#172557" transform="matrix(1.00, 0.00, -0.00, -1.00, 410.5, 93.0)">a</text><text xml:space="preserve" font-family="Helvetica" font-size="32.0" fill="#172557" transform="matrix(1.00, 0.00, -0.00, -1.00, 428.3, 93.0)">r</text><text xml:space="preserve" font-family="Helvetica" font-size="32.0" fill="#172557" transform="matrix(1.00, 0.00, -0.00, -1.00, 439.0, 93.0)"> </text><text xml:space="preserve" font-family="Helvetica" font-size="32.0" fill="#172557" transform="matrix(1.00, 0.00, -0.00, -1.00, 447.9, 93.0)">c</text><text xml:space="preserve" font-family="Helvetica" font-size="32.0" fill="#172557" transform="matrix(1.00, 0.00, -0.00, -1.00, 463.9, 93.0)">o</text><text xml:space="preserve" font-family="Helvetica" font-size="32.0" fill="#172557" transform="matrix(1.00, 0.00, -0.00, -1.00, 481.7, 93.0)">n</text><text xml:space="preserve" font-family="Helvetica" font-size="32.0" fill="#172557" transform="matrix(1.00, 0.00, -0.00, -1.00, 499.5, 93.0)"> </text><text xml:space="preserve" font-family="Helvetica" font-size="32.0" fill="#172557" transform="matrix(1.00, 0.00, -0.00, -1.00, 508.4, 93.0)">W</text><text xml:space="preserve" font-family="Helvetica" font-size="32.0" fill="#172557" transform="matrix(1.00, 0.00, -0.00, -1.00, 537.4, 93.0)">A</text><text xml:space="preserve" font-family="Helvetica" font-size="32.0" fill="#172557" transform="matrix(1.00, 0.00, -0.00, -1.00, 558.7, 93.0)">M</text><text xml:space="preserve" font-family="Helvetica" font-size="32.0" fill="#172557" transform="matrix(1.00, 0.00, -0.00, -1.00, 585.4, 93.0)">v</text><text xml:space="preserve" font-family="Helvetica" font-size="32.0" fill="#172557" transform="matrix(1.00, 0.00, -0.00, -1.00, 601.4, 93.0)">2</text><text xml:space="preserve" font-family="Helvetica" font-size="32.0" fill="#172557" transform="matrix(1.00, 0.00, -0.00, -1.00, 619.2, 93.0)">!</text></g></svg>