<?xml version="1.0" encoding="UTF-8" standalone="no"?><svg xmlns="http://www.w3.org/2000/svg" xmlns:xlink="http://www.w3.org/1999/xlink" clip-rule="evenodd" stroke-miterlimit="4.00" viewBox="0 0 720 540"><desc>SVG generated by Keynote</desc><defs></defs><g transform="matrix(1.00, 0.00, -0.00, -1.00, 0.0, 540.0)"><path d="M 0.0 540.0 L 720.0 540.0 L 720.0 0.0 L 0.0 0.0 Z M 0.0 540.0 " fill="#FFFFFF"></path><image xlink:href="../../E4F82199-EC87-4BCA-B1F4-CE7998420C0A/assets/649D5F2581B5115DBFCA506154E33A95.jpeg" width="381.00" height="690.00" transform="matrix(1.81, 0.00, -0.00, -0.72, 30.0, 522.0)"></image><g><clipPath id="clip-285"><path d="M 624.0 73.0 L 1218.0 73.0 L 1218.0 540.0 L 624.0 540.0 Z M 624.0 73.0 "></path></clipPath><g clip-path="url(#clip-285)"><path d="M 689.3 468.9 L 689.6 469.0 L 690.0 469.1 L 690.2 469.3 L 690.3 469.5 L 690.4 469.6 L 690.5 469.9 L 690.5 470.0 L 690.5 470.2 L 690.5 470.4 L 690.5 470.6 L 690.5 470.8 L 690.4 470.9 L 690.3 471.0 L 690.2 471.1 L 690.0 471.3 L 689.8 471.4 L 689.6 471.4 L 689.3 471.5 L 689.0 471.4 L 688.7 471.3 L 688.5 471.1 L 688.4 471.0 L 688.3 470.9 L 688.2 470.6 L 688.2 470.4 L 688.2 470.2 L 688.2 470.0 L 688.2 469.9 L 688.2 469.7 L 688.3 469.6 L 688.4 469.5 L 688.5 469.3 L 688.7 469.1 L 688.9 469.0 L 689.0 469.0 L 689.3 468.9 Z M 688.4 470.2 L 688.4 470.5 L 688.5 470.8 L 688.7 471.0 L 688.9 471.2 L 688.9 471.2 L 689.1 471.2 L 689.3 471.3 L 689.6 471.2 L 689.7 471.2 L 689.8 471.2 L 690.0 471.0 L 690.1 470.8 L 690.3 470.5 L 690.3 470.2 L 690.3 469.9 L 690.1 469.7 L 690.0 469.5 L 689.8 469.3 L 689.6 469.2 L 689.3 469.2 L 689.1 469.2 L 688.9 469.3 L 688.7 469.5 L 688.5 469.7 L 688.4 469.9 L 688.4 470.2 Z M 689.1 470.1 L 689.3 470.1 L 689.7 469.5 L 690.0 469.5 L 689.5 470.1 L 689.7 470.1 L 689.8 470.2 L 689.9 470.3 L 689.9 470.6 L 689.8 470.7 L 689.8 470.8 L 689.8 470.8 L 689.6 470.9 L 689.4 471.0 L 688.9 471.0 L 688.9 469.5 L 689.1 469.5 L 689.1 470.1 Z M 689.1 470.3 L 689.1 470.8 L 689.4 470.8 L 689.6 470.7 L 689.6 470.7 L 689.7 470.6 L 689.6 470.4 L 689.6 470.3 L 689.4 470.3 L 689.3 470.3 L 689.1 470.3 Z M 689.1 470.3 " fill="#00478B"></path><path d="M 650.2 481.1 L 655.3 481.1 L 655.3 499.9 L 650.2 499.9 L 650.2 481.1 Z M 650.2 481.1 " fill="#BD0066"></path><path d="M 667.8 513.3 L 667.8 481.1 L 662.7 481.1 L 662.7 507.9 L 642.8 507.9 L 642.8 481.1 L 637.7 481.1 L 637.7 513.3 L 667.8 513.3 Z M 667.8 513.3 " fill="#60A625"></path><path d="M 673.9 481.1 L 674.9 482.9 L 675.9 484.8 L 676.8 486.8 L 677.3 487.8 L 677.7 488.8 L 678.1 489.8 L 678.4 490.9 L 678.7 491.9 L 679.0 492.9 L 679.2 494.0 L 679.3 495.0 L 679.4 496.1 L 679.5 497.2 L 679.4 498.3 L 679.3 499.3 L 679.2 500.4 L 679.0 501.4 L 678.7 502.5 L 678.4 503.6 L 678.0 504.6 L 677.6 505.6 L 676.8 507.6 L 675.9 509.5 L 674.9 511.4 L 673.9 513.3 L 679.2 513.3 L 680.4 511.4 L 681.4 509.6 L 681.9 508.6 L 682.4 507.7 L 682.7 506.6 L 683.1 505.7 L 683.5 504.7 L 683.8 503.7 L 684.1 502.7 L 684.3 501.6 L 684.5 500.6 L 684.7 499.5 L 684.7 498.4 L 684.8 497.2 L 684.7 496.0 L 684.7 495.0 L 684.5 493.9 L 684.3 492.8 L 684.1 491.7 L 683.8 490.7 L 683.5 489.7 L 683.2 488.7 L 682.7 487.7 L 682.4 486.8 L 681.9 485.7 L 681.4 484.8 L 680.9 483.9 L 680.4 482.9 L 679.2 481.1 L 673.9 481.1 Z M 673.9 481.1 " fill="#BD0066"></path><path d="M 638.0 470.9 L 635.0 470.9 L 635.0 457.7 L 638.0 457.7 L 638.0 470.9 Z M 638.0 470.9 " fill="#00478B"></path><path d="M 641.2 458.3 L 641.7 458.1 L 642.2 457.9 L 642.9 457.8 L 643.6 457.6 L 644.5 457.5 L 645.3 457.4 L 646.1 457.4 L 646.9 457.4 L 647.3 457.4 L 647.8 457.4 L 648.2 457.5 L 648.7 457.6 L 649.1 457.8 L 649.5 458.0 L 649.8 458.2 L 650.1 458.4 L 650.7 458.9 L 651.0 459.1 L 651.2 459.4 L 651.5 459.7 L 651.6 460.0 L 651.7 460.2 L 651.7 460.3 L 651.7 460.6 L 651.7 461.2 L 651.7 461.7 L 651.6 462.1 L 651.6 462.5 L 651.3 463.1 L 651.1 463.4 L 650.9 463.6 L 650.7 463.8 L 650.5 464.1 L 649.7 464.5 L 649.3 464.7 L 648.8 465.0 L 648.3 465.2 L 647.8 465.4 L 647.0 465.7 L 646.6 465.9 L 646.2 466.1 L 645.9 466.2 L 645.4 466.5 L 645.2 466.7 L 645.1 466.8 L 645.0 466.9 L 644.9 467.1 L 644.9 467.2 L 644.9 467.3 L 644.9 467.7 L 645.0 468.0 L 645.2 468.2 L 645.4 468.5 L 645.6 468.6 L 645.8 468.8 L 646.3 468.9 L 646.5 469.0 L 646.8 469.0 L 647.4 469.0 L 647.9 469.0 L 648.2 469.0 L 649.1 468.8 L 649.3 468.7 L 649.5 468.6 L 649.8 468.4 L 650.4 468.0 L 651.7 469.6 L 651.5 469.9 L 651.2 470.1 L 651.0 470.3 L 650.7 470.4 L 650.2 470.6 L 649.6 470.8 L 648.9 471.0 L 648.2 471.1 L 647.6 471.1 L 647.0 471.2 L 645.9 471.1 L 645.3 471.0 L 644.8 471.0 L 644.3 470.8 L 643.8 470.6 L 643.3 470.4 L 643.1 470.3 L 643.0 470.2 L 642.7 469.9 L 642.4 469.5 L 642.1 469.2 L 641.9 468.8 L 641.7 468.4 L 641.6 468.0 L 641.5 467.5 L 641.5 467.1 L 641.5 466.9 L 641.5 466.6 L 641.6 466.3 L 641.7 466.1 L 641.7 465.9 L 641.9 465.7 L 642.0 465.6 L 642.1 465.4 L 642.4 465.2 L 642.6 464.9 L 643.1 464.6 L 644.2 464.1 L 644.7 463.8 L 645.4 463.5 L 646.1 463.2 L 646.8 463.0 L 647.3 462.6 L 647.9 462.3 L 648.2 462.0 L 648.2 461.9 L 648.3 461.7 L 648.4 461.4 L 648.4 461.1 L 648.4 460.8 L 648.4 460.6 L 648.2 460.4 L 648.0 460.2 L 647.9 460.0 L 647.7 459.9 L 647.3 459.7 L 646.8 459.5 L 646.3 459.5 L 645.1 459.5 L 644.6 459.5 L 644.1 459.6 L 643.6 459.8 L 643.4 459.8 L 643.1 460.0 L 642.6 460.2 L 642.1 460.5 L 641.2 458.3 Z M 641.2 458.3 " fill="#00478B"></path><path d="M 657.0 470.9 L 654.0 470.9 L 654.0 462.3 L 654.0 461.8 L 654.0 461.3 L 654.2 460.9 L 654.4 460.4 L 654.6 460.0 L 654.8 459.6 L 655.1 459.3 L 655.4 458.9 L 655.8 458.6 L 656.1 458.3 L 656.5 458.0 L 656.9 457.8 L 657.4 457.6 L 657.8 457.6 L 658.3 457.4 L 658.8 457.4 L 659.1 457.4 L 659.5 457.5 L 659.9 457.6 L 660.2 457.7 L 660.6 457.8 L 660.9 458.0 L 661.4 458.4 L 661.7 458.7 L 662.0 458.9 L 662.2 459.2 L 662.4 459.5 L 662.9 460.3 L 663.4 461.1 L 663.4 457.7 L 666.4 457.7 L 666.4 470.9 L 663.4 470.9 L 663.4 466.0 L 663.3 465.2 L 663.2 464.6 L 663.2 464.1 L 663.0 463.6 L 662.8 463.0 L 662.7 462.5 L 662.5 462.0 L 662.2 461.5 L 661.9 461.1 L 661.8 460.8 L 661.6 460.6 L 661.4 460.4 L 661.2 460.2 L 661.0 460.1 L 660.8 460.0 L 660.6 459.8 L 660.4 459.7 L 660.1 459.6 L 659.8 459.5 L 659.3 459.5 L 659.0 459.5 L 658.6 459.8 L 658.3 460.0 L 657.9 460.4 L 657.7 460.6 L 657.6 460.8 L 657.4 461.1 L 657.2 461.3 L 657.2 461.6 L 657.0 461.9 L 657.0 462.1 L 657.0 462.5 L 657.0 470.9 Z M 657.0 470.9 " fill="#00478B"></path><path d="M 679.8 457.7 L 679.8 464.3 L 679.8 464.8 L 679.8 465.3 L 679.9 465.8 L 679.9 466.2 L 680.1 466.7 L 680.3 467.1 L 680.6 467.7 L 681.0 468.3 L 681.2 468.5 L 681.5 468.7 L 681.7 468.8 L 681.9 469.0 L 682.1 469.0 L 682.3 469.0 L 682.8 469.0 L 683.2 468.9 L 683.4 468.8 L 683.6 468.7 L 683.7 468.6 L 683.9 468.4 L 684.0 468.2 L 684.1 468.0 L 684.3 467.6 L 684.4 467.0 L 684.4 466.7 L 684.4 466.4 L 684.4 457.7 L 687.5 457.7 L 687.5 466.4 L 687.4 467.2 L 687.3 467.7 L 687.3 468.1 L 687.2 468.5 L 687.0 468.8 L 686.9 469.3 L 686.7 469.6 L 686.4 469.9 L 686.2 470.2 L 685.9 470.5 L 685.5 470.7 L 685.1 470.9 L 684.7 471.0 L 684.2 471.1 L 683.6 471.2 L 683.1 471.1 L 682.7 471.1 L 682.4 471.0 L 682.0 470.9 L 681.3 470.6 L 680.6 470.2 L 680.1 469.7 L 679.9 469.5 L 679.6 469.3 L 679.2 468.7 L 678.9 468.2 L 678.7 468.7 L 678.5 469.3 L 678.4 469.8 L 678.3 470.0 L 678.2 470.2 L 678.0 470.4 L 677.8 470.6 L 677.6 470.8 L 677.3 470.9 L 676.9 471.0 L 676.5 471.1 L 676.1 471.1 L 675.5 471.2 L 675.0 471.1 L 674.6 471.0 L 674.4 471.0 L 673.9 470.8 L 673.6 470.6 L 673.4 470.4 L 673.1 470.2 L 672.9 470.0 L 672.5 469.5 L 672.1 468.8 L 671.7 468.0 L 671.7 470.9 L 668.7 470.9 L 668.7 457.7 L 671.7 457.7 L 671.7 464.2 L 671.8 464.9 L 671.9 465.8 L 672.2 466.6 L 672.3 467.0 L 672.5 467.3 L 672.7 467.7 L 672.9 468.0 L 673.1 468.3 L 673.4 468.6 L 673.5 468.7 L 673.6 468.8 L 673.8 468.8 L 673.9 468.9 L 674.3 469.0 L 674.6 469.0 L 675.1 469.0 L 675.5 468.9 L 675.7 468.8 L 675.9 468.7 L 676.0 468.6 L 676.1 468.4 L 676.2 468.2 L 676.4 468.0 L 676.5 467.8 L 676.6 467.5 L 676.7 467.0 L 676.7 466.3 L 676.7 457.7 L 679.8 457.7 Z M 679.8 457.7 " fill="#00478B"></path><path d="M 685.9 443.2 L 688.2 444.2 L 684.0 455.0 L 681.8 453.9 L 685.9 443.2 Z M 685.9 443.2 " fill="#BD0066"></path><path d="M 684.0 453.9 L 681.8 455.0 L 677.5 444.2 L 679.7 443.2 L 684.0 453.9 Z M 684.0 453.9 " fill="#BD0066"></path><path d="M 683.8 455.4 C 684.3 454.9 684.3 454.1 683.8 453.6 C 683.3 453.1 682.6 453.1 682.1 453.6 C 681.6 454.1 681.6 454.9 682.1 455.4 C 682.6 455.9 683.3 455.9 683.8 455.4 " fill="#BD0066"></path><path d="M 679.5 444.7 C 679.9 444.2 679.9 443.3 679.5 442.8 C 679.0 442.3 678.2 442.3 677.7 442.8 C 677.3 443.3 677.3 444.2 677.7 444.7 C 678.2 445.2 679.0 445.2 679.5 444.7 " fill="#BD0066"></path><path d="M 687.9 444.7 C 688.4 444.2 688.4 443.3 687.9 442.8 C 687.5 442.3 686.7 442.3 686.2 442.8 C 685.8 443.3 685.8 444.2 686.2 444.7 C 686.7 445.2 687.5 445.2 687.9 444.7 " fill="#BD0066"></path><path d="M 662.7 455.0 L 660.4 453.9 L 664.6 443.2 L 666.9 444.2 L 662.7 455.0 Z M 662.7 455.0 " fill="#BD0066"></path><path d="M 664.7 444.3 L 666.9 443.2 L 671.2 453.9 L 669.0 455.0 L 664.7 444.3 Z M 664.7 444.3 " fill="#BD0066"></path><path d="M 666.6 444.7 C 667.1 444.2 667.1 443.3 666.6 442.8 C 666.2 442.3 665.4 442.3 664.9 442.8 C 664.5 443.3 664.5 444.2 664.9 444.7 C 665.4 445.2 666.2 445.2 666.6 444.7 " fill="#BD0066"></path><path d="M 671.0 455.4 C 671.4 454.9 671.4 454.1 671.0 453.6 C 670.5 453.1 669.7 453.1 669.3 453.6 C 668.8 454.1 668.8 454.9 669.3 455.4 C 669.7 455.9 670.5 455.9 671.0 455.4 " fill="#BD0066"></path><path d="M 662.4 455.4 C 662.9 454.9 662.9 454.1 662.4 453.6 C 662.0 453.1 661.2 453.1 660.7 453.6 C 660.2 454.1 660.2 454.9 660.7 455.4 C 661.2 455.9 662.0 455.9 662.4 455.4 " fill="#BD0066"></path><path d="M 671.3 455.0 L 669.0 453.9 L 673.2 443.2 L 675.4 444.2 L 671.3 455.0 Z M 671.3 455.0 " fill="#BD0066"></path><path d="M 673.2 444.3 L 675.4 443.2 L 679.8 453.9 L 677.6 455.0 L 673.2 444.3 Z M 673.2 444.3 " fill="#BD0066"></path><path d="M 675.2 444.7 C 675.7 444.2 675.7 443.3 675.2 442.8 C 674.7 442.3 673.9 442.3 673.5 442.8 C 673.0 443.3 673.0 444.2 673.5 444.7 C 673.9 445.2 674.7 445.2 675.2 444.7 " fill="#BD0066"></path><path d="M 679.5 455.4 C 680.0 454.9 680.0 454.1 679.5 453.6 C 679.1 453.1 678.3 453.1 677.8 453.6 C 677.3 454.1 677.3 454.9 677.8 455.4 C 678.3 455.9 679.1 455.9 679.5 455.4 " fill="#BD0066"></path><path d="M 671.0 455.4 C 671.5 454.9 671.5 454.1 671.0 453.6 C 670.6 453.1 669.8 453.1 669.3 453.6 C 668.9 454.1 668.9 454.9 669.3 455.4 C 669.8 455.9 670.6 455.9 671.0 455.4 " fill="#BD0066"></path><path d="M 706.0 443.2 L 708.3 444.2 L 704.1 455.0 L 701.9 453.9 L 706.0 443.2 Z M 706.0 443.2 " fill="#BD0066"></path><path d="M 704.1 453.9 L 701.9 455.0 L 697.5 444.2 L 699.8 443.2 L 704.1 453.9 Z M 704.1 453.9 " fill="#BD0066"></path><path d="M 703.9 455.4 C 704.4 454.9 704.4 454.1 703.9 453.6 C 703.4 453.1 702.7 453.1 702.2 453.6 C 701.7 454.1 701.7 454.9 702.2 455.4 C 702.7 455.9 703.4 455.9 703.9 455.4 " fill="#BD0066"></path><path d="M 699.6 444.7 C 700.0 444.2 700.0 443.3 699.6 442.8 C 699.1 442.3 698.3 442.3 697.8 442.8 C 697.4 443.3 697.4 444.2 697.8 444.7 C 698.3 445.2 699.1 445.2 699.6 444.7 " fill="#BD0066"></path><path d="M 708.0 444.7 C 708.5 444.2 708.5 443.3 708.0 442.8 C 707.6 442.3 706.8 442.3 706.3 442.8 C 705.9 443.3 705.9 444.2 706.3 444.7 C 706.8 445.2 707.6 445.2 708.0 444.7 " fill="#BD0066"></path><path d="M 697.7 443.2 L 700.0 444.2 L 695.8 455.0 L 693.6 453.9 L 697.7 443.2 Z M 697.7 443.2 " fill="#BD0066"></path><path d="M 695.8 453.9 L 693.6 455.0 L 689.3 444.2 L 691.5 443.2 L 695.8 453.9 Z M 695.8 453.9 " fill="#BD0066"></path><path d="M 695.6 455.4 C 696.1 454.9 696.1 454.1 695.6 453.6 C 695.1 453.1 694.4 453.1 693.9 453.6 C 693.4 454.1 693.4 454.9 693.9 455.4 C 694.4 455.9 695.1 455.9 695.6 455.4 " fill="#BD0066"></path><path d="M 691.3 444.7 C 691.7 444.2 691.7 443.3 691.3 442.8 C 690.8 442.3 690.0 442.3 689.5 442.8 C 689.1 443.3 689.1 444.2 689.5 444.7 C 690.0 445.2 690.8 445.2 691.3 444.7 " fill="#BD0066"></path><path d="M 699.7 444.7 C 700.2 444.2 700.2 443.3 699.7 442.8 C 699.3 442.3 698.5 442.3 698.0 442.8 C 697.6 443.3 697.6 444.2 698.0 444.7 C 698.5 445.2 699.3 445.2 699.7 444.7 " fill="#BD0066"></path></g></g><text xml:space="preserve" font-family="Helvetica" font-size="36.0" fill="#FF9933" transform="matrix(1.00, 0.00, -0.00, -1.00, 81.0, 434.0)">…</text><text xml:space="preserve" font-family="Helvetica" font-size="36.0" fill="#FF9933" transform="matrix(1.00, 0.00, -0.00, -1.00, 117.0, 434.0)"> </text><text xml:space="preserve" font-family="Helvetica" font-size="36.0" fill="#FF9933" transform="matrix(1.00, 0.00, -0.00, -1.00, 127.0, 434.0)">y</text><text xml:space="preserve" font-family="Helvetica" font-size="36.0" fill="#FF9933" transform="matrix(1.00, 0.00, -0.00, -1.00, 142.3, 434.0)">,</text><text xml:space="preserve" font-family="Helvetica" font-size="36.0" fill="#FF9933" transform="matrix(1.00, 0.00, -0.00, -1.00, 152.3, 434.0)"> </text><text xml:space="preserve" font-family="Helvetica" font-size="36.0" fill="#FF9933" transform="matrix(1.00, 0.00, -0.00, -1.00, 162.3, 434.0)">¿</text><text xml:space="preserve" font-family="Helvetica" font-size="36.0" fill="#FF9933" transform="matrix(1.00, 0.00, -0.00, -1.00, 184.3, 434.0)">d</text><text xml:space="preserve" font-family="Helvetica" font-size="36.0" fill="#FF9933" transform="matrix(1.00, 0.00, -0.00, -1.00, 204.3, 434.0)">e</text><text xml:space="preserve" font-family="Helvetica" font-size="36.0" fill="#FF9933" transform="matrix(1.00, 0.00, -0.00, -1.00, 224.4, 434.0)"> </text><text xml:space="preserve" font-family="Helvetica" font-size="36.0" fill="#FF9933" transform="matrix(1.00, 0.00, -0.00, -1.00, 234.4, 434.0)">d</text><text xml:space="preserve" font-family="Helvetica" font-size="36.0" fill="#FF9933" transform="matrix(1.00, 0.00, -0.00, -1.00, 254.4, 434.0)">ó</text><text xml:space="preserve" font-family="Helvetica" font-size="36.0" fill="#FF9933" transform="matrix(1.00, 0.00, -0.00, -1.00, 274.4, 434.0)">n</text><text xml:space="preserve" font-family="Helvetica" font-size="36.0" fill="#FF9933" transform="matrix(1.00, 0.00, -0.00, -1.00, 294.5, 434.0)">d</text><text xml:space="preserve" font-family="Helvetica" font-size="36.0" fill="#FF9933" transform="matrix(1.00, 0.00, -0.00, -1.00, 314.5, 434.0)">e</text><text xml:space="preserve" font-family="Helvetica" font-size="36.0" fill="#FF9933" transform="matrix(1.00, 0.00, -0.00, -1.00, 334.5, 434.0)"> </text><text xml:space="preserve" font-family="Helvetica" font-size="36.0" fill="#FF9933" transform="matrix(1.00, 0.00, -0.00, -1.00, 344.5, 434.0)">s</text><text xml:space="preserve" font-family="Helvetica" font-size="36.0" fill="#FF9933" transform="matrix(1.00, 0.00, -0.00, -1.00, 362.5, 434.0)">u</text><text xml:space="preserve" font-family="Helvetica" font-size="36.0" fill="#FF9933" transform="matrix(1.00, 0.00, -0.00, -1.00, 382.5, 434.0)">r</text><text xml:space="preserve" font-family="Helvetica" font-size="36.0" fill="#FF9933" transform="matrix(1.00, 0.00, -0.00, -1.00, 394.5, 434.0)">g</text><text xml:space="preserve" font-family="Helvetica" font-size="36.0" fill="#FF9933" transform="matrix(1.00, 0.00, -0.00, -1.00, 414.6, 434.0)">e</text><text xml:space="preserve" font-family="Helvetica" font-size="36.0" fill="#FF9933" transform="matrix(1.00, 0.00, -0.00, -1.00, 434.6, 434.0)">?</text><text xml:space="preserve" font-family="Helvetica" font-size="36.0" fill="#FF9933" transform="matrix(1.00, 0.00, -0.00, -1.00, 454.6, 434.0)"> </text><text xml:space="preserve" font-family="Helvetica" font-size="36.0" fill="#FF9933" transform="matrix(1.00, 0.00, -0.00, -1.00, 464.6, 434.0)">[</text><text xml:space="preserve" font-family="Helvetica" font-size="36.0" fill="#FF9933" transform="matrix(1.00, 0.00, -0.00, -1.00, 474.6, 434.0)">C</text><text xml:space="preserve" font-family="Helvetica" font-size="36.0" fill="#FF9933" transform="matrix(1.00, 0.00, -0.00, -1.00, 500.6, 434.0)">A</text><text xml:space="preserve" font-family="Helvetica" font-size="36.0" fill="#FF9933" transform="matrix(1.00, 0.00, -0.00, -1.00, 524.6, 434.0)">S</text><text xml:space="preserve" font-family="Helvetica" font-size="36.0" fill="#FF9933" transform="matrix(1.00, 0.00, -0.00, -1.00, 548.6, 434.0)">E</text><text xml:space="preserve" font-family="Helvetica" font-size="36.0" fill="#FF9933" transform="matrix(1.00, 0.00, -0.00, -1.00, 572.6, 434.0)">R</text><text xml:space="preserve" font-family="Helvetica" font-size="36.0" fill="#FF9933" transform="matrix(1.00, 0.00, -0.00, -1.00, 598.6, 434.0)">]</text><text xml:space="preserve" font-family="Helvetica" font-size="32.0" fill="#3333CC" transform="matrix(1.00, 0.00, -0.00, -1.00, 33.6, 367.8)">•</text><text xml:space="preserve" font-family="Helvetica" font-size="32.0" fill="#3333CC" transform="matrix(1.00, 0.00, -0.00, -1.00, 61.0, 368.0)">P</text><text xml:space="preserve" font-family="Helvetica" font-size="32.0" fill="#3333CC" transform="matrix(1.00, 0.00, -0.00, -1.00, 80.0, 368.0)">A</text><text xml:space="preserve" font-family="Helvetica" font-size="32.0" fill="#3333CC" transform="matrix(1.00, 0.00, -0.00, -1.00, 101.3, 368.0)">P</text><text xml:space="preserve" font-family="Helvetica" font-size="32.0" fill="#3333CC" transform="matrix(1.00, 0.00, -0.00, -1.00, 122.1, 368.0)"> </text><text xml:space="preserve" font-family="Helvetica" font-size="32.0" fill="#3333CC" transform="matrix(1.00, 0.00, -0.00, -1.00, 131.0, 368.0)">(</text><text xml:space="preserve" font-family="Helvetica" font-size="32.0" fill="#3333CC" transform="matrix(1.00, 0.00, -0.00, -1.00, 141.7, 368.0)">“</text><text xml:space="preserve" font-family="Helvetica" font-size="32.0" fill="#3333CC" transform="matrix(1.00, 0.00, -0.00, -1.00, 152.3, 368.0)">P</text><text xml:space="preserve" font-family="Helvetica" font-size="32.0" fill="#3333CC" transform="matrix(1.00, 0.00, -0.00, -1.00, 173.7, 368.0)">l</text><text xml:space="preserve" font-family="Helvetica" font-size="32.0" fill="#3333CC" transform="matrix(1.00, 0.00, -0.00, -1.00, 180.8, 368.0)">a</text><text xml:space="preserve" font-family="Helvetica" font-size="32.0" fill="#3333CC" transform="matrix(1.00, 0.00, -0.00, -1.00, 198.6, 368.0)">t</text><text xml:space="preserve" font-family="Helvetica" font-size="32.0" fill="#3333CC" transform="matrix(1.00, 0.00, -0.00, -1.00, 207.5, 368.0)">a</text><text xml:space="preserve" font-family="Helvetica" font-size="32.0" fill="#3333CC" transform="matrix(1.00, 0.00, -0.00, -1.00, 225.3, 368.0)">f</text><text xml:space="preserve" font-family="Helvetica" font-size="32.0" fill="#3333CC" transform="matrix(1.00, 0.00, -0.00, -1.00, 234.1, 368.0)">o</text><text xml:space="preserve" font-family="Helvetica" font-size="32.0" fill="#3333CC" transform="matrix(1.00, 0.00, -0.00, -1.00, 251.9, 368.0)">r</text><text xml:space="preserve" font-family="Helvetica" font-size="32.0" fill="#3333CC" transform="matrix(1.00, 0.00, -0.00, -1.00, 262.6, 368.0)">m</text><text xml:space="preserve" font-family="Helvetica" font-size="32.0" fill="#3333CC" transform="matrix(1.00, 0.00, -0.00, -1.00, 289.3, 368.0)">a</text><text xml:space="preserve" font-family="Helvetica" font-size="32.0" fill="#3333CC" transform="matrix(1.00, 0.00, -0.00, -1.00, 307.1, 368.0)"> </text><text xml:space="preserve" font-family="Helvetica" font-size="32.0" fill="#3333CC" transform="matrix(1.00, 0.00, -0.00, -1.00, 315.9, 368.0)">d</text><text xml:space="preserve" font-family="Helvetica" font-size="32.0" fill="#3333CC" transform="matrix(1.00, 0.00, -0.00, -1.00, 333.7, 368.0)">e</text><text xml:space="preserve" font-family="Helvetica" font-size="32.0" fill="#3333CC" transform="matrix(1.00, 0.00, -0.00, -1.00, 351.6, 368.0)"> </text><text xml:space="preserve" font-family="Helvetica" font-size="32.0" fill="#3333CC" transform="matrix(1.00, 0.00, -0.00, -1.00, 358.7, 368.0)">A</text><text xml:space="preserve" font-family="Helvetica" font-size="32.0" fill="#3333CC" transform="matrix(1.00, 0.00, -0.00, -1.00, 380.0, 368.0)">t</text><text xml:space="preserve" font-family="Helvetica" font-size="32.0" fill="#3333CC" transform="matrix(1.00, 0.00, -0.00, -1.00, 388.9, 368.0)">e</text><text xml:space="preserve" font-family="Helvetica" font-size="32.0" fill="#3333CC" transform="matrix(1.00, 0.00, -0.00, -1.00, 406.7, 368.0)">n</text><text xml:space="preserve" font-family="Helvetica" font-size="32.0" fill="#3333CC" transform="matrix(1.00, 0.00, -0.00, -1.00, 424.5, 368.0)">c</text><text xml:space="preserve" font-family="Helvetica" font-size="32.0" fill="#3333CC" transform="matrix(1.00, 0.00, -0.00, -1.00, 440.5, 368.0)">i</text><text xml:space="preserve" font-family="Helvetica" font-size="32.0" fill="#3333CC" transform="matrix(1.00, 0.00, -0.00, -1.00, 447.6, 368.0)">ó</text><text xml:space="preserve" font-family="Helvetica" font-size="32.0" fill="#3333CC" transform="matrix(1.00, 0.00, -0.00, -1.00, 465.4, 368.0)">n</text><text xml:space="preserve" font-family="Helvetica" font-size="32.0" fill="#3333CC" transform="matrix(1.00, 0.00, -0.00, -1.00, 483.2, 368.0)"> </text><text xml:space="preserve" font-family="Helvetica" font-size="32.0" fill="#3333CC" transform="matrix(1.00, 0.00, -0.00, -1.00, 492.1, 368.0)">P</text><text xml:space="preserve" font-family="Helvetica" font-size="32.0" fill="#3333CC" transform="matrix(1.00, 0.00, -0.00, -1.00, 513.5, 368.0)">e</text><text xml:space="preserve" font-family="Helvetica" font-size="32.0" fill="#3333CC" transform="matrix(1.00, 0.00, -0.00, -1.00, 531.3, 368.0)">r</text><text xml:space="preserve" font-family="Helvetica" font-size="32.0" fill="#3333CC" transform="matrix(1.00, 0.00, -0.00, -1.00, 541.9, 368.0)">m</text><text xml:space="preserve" font-family="Helvetica" font-size="32.0" fill="#3333CC" transform="matrix(1.00, 0.00, -0.00, -1.00, 568.6, 368.0)">a</text><text xml:space="preserve" font-family="Helvetica" font-size="32.0" fill="#3333CC" transform="matrix(1.00, 0.00, -0.00, -1.00, 586.4, 368.0)">n</text><text xml:space="preserve" font-family="Helvetica" font-size="32.0" fill="#3333CC" transform="matrix(1.00, 0.00, -0.00, -1.00, 604.2, 368.0)">e</text><text xml:space="preserve" font-family="Helvetica" font-size="32.0" fill="#3333CC" transform="matrix(1.00, 0.00, -0.00, -1.00, 622.0, 368.0)">n</text><text xml:space="preserve" font-family="Helvetica" font-size="32.0" fill="#3333CC" transform="matrix(1.00, 0.00, -0.00, -1.00, 639.8, 368.0)">t</text><text xml:space="preserve" font-family="Helvetica" font-size="32.0" fill="#3333CC" transform="matrix(1.00, 0.00, -0.00, -1.00, 648.7, 368.0)">e</text><text xml:space="preserve" font-family="Helvetica" font-size="32.0" fill="#3333CC" transform="matrix(1.00, 0.00, -0.00, -1.00, 666.5, 368.0)">”</text><text xml:space="preserve" font-family="Helvetica" font-size="32.0" fill="#3333CC" transform="matrix(1.00, 0.00, -0.00, -1.00, 677.1, 368.0)">)</text><text xml:space="preserve" font-family="Helvetica" font-size="32.0" fill="#3333CC" transform="matrix(1.00, 0.00, -0.00, -1.00, 687.8, 368.0)"> </text><text xml:space="preserve" font-family="Helvetica" font-size="32.0" fill="#3333CC" transform="matrix(1.00, 0.00, -0.00, -1.00, 61.0, 330.0)">d</text><text xml:space="preserve" font-family="Helvetica" font-size="32.0" fill="#3333CC" transform="matrix(1.00, 0.00, -0.00, -1.00, 78.8, 330.0)">e</text><text xml:space="preserve" font-family="Helvetica" font-size="32.0" fill="#3333CC" transform="matrix(1.00, 0.00, -0.00, -1.00, 96.6, 330.0)"> </text><text xml:space="preserve" font-family="Helvetica" font-size="32.0" fill="#3333CC" transform="matrix(1.00, 0.00, -0.00, -1.00, 105.5, 330.0)">C</text><text xml:space="preserve" font-family="Helvetica" font-size="32.0" fill="#3333CC" transform="matrix(1.00, 0.00, -0.00, -1.00, 128.6, 330.0)">A</text><text xml:space="preserve" font-family="Helvetica" font-size="32.0" fill="#3333CC" transform="matrix(1.00, 0.00, -0.00, -1.00, 150.0, 330.0)">S</text><text xml:space="preserve" font-family="Helvetica" font-size="32.0" fill="#3333CC" transform="matrix(1.00, 0.00, -0.00, -1.00, 171.3, 330.0)">E</text><text xml:space="preserve" font-family="Helvetica" font-size="32.0" fill="#3333CC" transform="matrix(1.00, 0.00, -0.00, -1.00, 192.6, 330.0)">R</text><text xml:space="preserve" font-family="Helvetica" font-size="32.0" fill="#3333CC" transform="matrix(1.00, 0.00, -0.00, -1.00, 215.8, 330.0)">:</text><text xml:space="preserve" font-family="Helvetica" font-size="28.0" fill="#3333CC" transform="matrix(1.00, 0.00, -0.00, -1.00, 69.6, 294.8)">–</text><text xml:space="preserve" font-family="Helvetica" font-size="28.0" fill="#3333CC" transform="matrix(1.00, 0.00, -0.00, -1.00, 92.0, 295.0)">T</text><text xml:space="preserve" font-family="Helvetica" font-size="28.0" fill="#3333CC" transform="matrix(1.00, 0.00, -0.00, -1.00, 109.1, 295.0)">í</text><text xml:space="preserve" font-family="Helvetica" font-size="28.0" fill="#3333CC" transform="matrix(1.00, 0.00, -0.00, -1.00, 116.9, 295.0)">p</text><text xml:space="preserve" font-family="Helvetica" font-size="28.0" fill="#3333CC" transform="matrix(1.00, 0.00, -0.00, -1.00, 132.4, 295.0)">i</text><text xml:space="preserve" font-family="Helvetica" font-size="28.0" fill="#3333CC" transform="matrix(1.00, 0.00, -0.00, -1.00, 138.7, 295.0)">c</text><text xml:space="preserve" font-family="Helvetica" font-size="28.0" fill="#3333CC" transform="matrix(1.00, 0.00, -0.00, -1.00, 152.7, 295.0)">a</text><text xml:space="preserve" font-family="Helvetica" font-size="28.0" fill="#3333CC" transform="matrix(1.00, 0.00, -0.00, -1.00, 168.3, 295.0)"> </text><text xml:space="preserve" font-family="Helvetica" font-size="28.0" fill="#3333CC" transform="matrix(1.00, 0.00, -0.00, -1.00, 176.0, 295.0)">a</text><text xml:space="preserve" font-family="Helvetica" font-size="28.0" fill="#3333CC" transform="matrix(1.00, 0.00, -0.00, -1.00, 191.6, 295.0)">p</text><text xml:space="preserve" font-family="Helvetica" font-size="28.0" fill="#3333CC" transform="matrix(1.00, 0.00, -0.00, -1.00, 207.2, 295.0)">p</text><text xml:space="preserve" font-family="Helvetica" font-size="28.0" fill="#3333CC" transform="matrix(1.00, 0.00, -0.00, -1.00, 222.8, 295.0)"> </text><text xml:space="preserve" font-family="Helvetica" font-size="28.0" fill="#3333CC" transform="matrix(1.00, 0.00, -0.00, -1.00, 230.5, 295.0)">C</text><text xml:space="preserve" font-family="Helvetica" font-size="28.0" fill="#3333CC" transform="matrix(1.00, 0.00, -0.00, -1.00, 250.8, 295.0)">/</text><text xml:space="preserve" font-family="Helvetica" font-size="28.0" fill="#3333CC" transform="matrix(1.00, 0.00, -0.00, -1.00, 258.5, 295.0)">S</text><text xml:space="preserve" font-family="Helvetica" font-size="28.0" fill="#3333CC" transform="matrix(1.00, 0.00, -0.00, -1.00, 277.2, 295.0)"> </text><text xml:space="preserve" font-family="Helvetica" font-size="28.0" fill="#3333CC" transform="matrix(1.00, 0.00, -0.00, -1.00, 285.0, 295.0)">a</text><text xml:space="preserve" font-family="Helvetica" font-size="28.0" fill="#3333CC" transform="matrix(1.00, 0.00, -0.00, -1.00, 300.6, 295.0)">l</text><text xml:space="preserve" font-family="Helvetica" font-size="28.0" fill="#3333CC" transform="matrix(1.00, 0.00, -0.00, -1.00, 306.8, 295.0)"> </text><text xml:space="preserve" font-family="Helvetica" font-size="28.0" fill="#3333CC" transform="matrix(1.00, 0.00, -0.00, -1.00, 314.6, 295.0)">m</text><text xml:space="preserve" font-family="Helvetica" font-size="28.0" fill="#3333CC" transform="matrix(1.00, 0.00, -0.00, -1.00, 337.9, 295.0)">e</text><text xml:space="preserve" font-family="Helvetica" font-size="28.0" fill="#3333CC" transform="matrix(1.00, 0.00, -0.00, -1.00, 353.5, 295.0)">d</text><text xml:space="preserve" font-family="Helvetica" font-size="28.0" fill="#3333CC" transform="matrix(1.00, 0.00, -0.00, -1.00, 369.0, 295.0)">i</text><text xml:space="preserve" font-family="Helvetica" font-size="28.0" fill="#3333CC" transform="matrix(1.00, 0.00, -0.00, -1.00, 375.3, 295.0)">o</text><text xml:space="preserve" font-family="Helvetica" font-size="28.0" fill="#3333CC" transform="matrix(1.00, 0.00, -0.00, -1.00, 390.8, 295.0)"> </text><text xml:space="preserve" font-family="Helvetica" font-size="28.0" fill="#3333CC" transform="matrix(1.00, 0.00, -0.00, -1.00, 398.6, 295.0)">W</text><text xml:space="preserve" font-family="Helvetica" font-size="28.0" fill="#3333CC" transform="matrix(1.00, 0.00, -0.00, -1.00, 425.0, 295.0)">E</text><text xml:space="preserve" font-family="Helvetica" font-size="28.0" fill="#3333CC" transform="matrix(1.00, 0.00, -0.00, -1.00, 443.7, 295.0)">B</text><text xml:space="preserve" font-family="Helvetica" font-size="28.0" fill="#3333CC" transform="matrix(1.00, 0.00, -0.00, -1.00, 69.6, 260.8)">–</text><text xml:space="preserve" font-family="Helvetica" font-size="28.0" fill="#3333CC" transform="matrix(1.00, 0.00, -0.00, -1.00, 92.0, 261.0)">D</text><text xml:space="preserve" font-family="Helvetica" font-size="28.0" fill="#3333CC" transform="matrix(1.00, 0.00, -0.00, -1.00, 112.2, 261.0)">e</text><text xml:space="preserve" font-family="Helvetica" font-size="28.0" fill="#3333CC" transform="matrix(1.00, 0.00, -0.00, -1.00, 127.8, 261.0)">b</text><text xml:space="preserve" font-family="Helvetica" font-size="28.0" fill="#3333CC" transform="matrix(1.00, 0.00, -0.00, -1.00, 143.4, 261.0)">e</text><text xml:space="preserve" font-family="Helvetica" font-size="28.0" fill="#3333CC" transform="matrix(1.00, 0.00, -0.00, -1.00, 159.0, 261.0)"> </text><text xml:space="preserve" font-family="Helvetica" font-size="28.0" fill="#3333CC" transform="matrix(1.00, 0.00, -0.00, -1.00, 166.7, 261.0)">s</text><text xml:space="preserve" font-family="Helvetica" font-size="28.0" fill="#3333CC" transform="matrix(1.00, 0.00, -0.00, -1.00, 180.7, 261.0)">e</text><text xml:space="preserve" font-family="Helvetica" font-size="28.0" fill="#3333CC" transform="matrix(1.00, 0.00, -0.00, -1.00, 196.3, 261.0)">r</text><text xml:space="preserve" font-family="Helvetica" font-size="28.0" fill="#3333CC" transform="matrix(1.00, 0.00, -0.00, -1.00, 205.6, 261.0)"> </text><text xml:space="preserve" font-family="Helvetica" font-size="28.0" fill="#3333CC" transform="matrix(1.00, 0.00, -0.00, -1.00, 213.4, 261.0)">f</text><text xml:space="preserve" font-family="Helvetica" font-size="28.0" fill="#3333CC" transform="matrix(1.00, 0.00, -0.00, -1.00, 221.2, 261.0)">á</text><text xml:space="preserve" font-family="Helvetica" font-size="28.0" fill="#3333CC" transform="matrix(1.00, 0.00, -0.00, -1.00, 236.8, 261.0)">c</text><text xml:space="preserve" font-family="Helvetica" font-size="28.0" fill="#3333CC" transform="matrix(1.00, 0.00, -0.00, -1.00, 250.8, 261.0)">i</text><text xml:space="preserve" font-family="Helvetica" font-size="28.0" fill="#3333CC" transform="matrix(1.00, 0.00, -0.00, -1.00, 257.0, 261.0)">l</text><text xml:space="preserve" font-family="Helvetica" font-size="28.0" fill="#3333CC" transform="matrix(1.00, 0.00, -0.00, -1.00, 263.2, 261.0)"> </text><text xml:space="preserve" font-family="Helvetica" font-size="28.0" fill="#3333CC" transform="matrix(1.00, 0.00, -0.00, -1.00, 271.0, 261.0)">d</text><text xml:space="preserve" font-family="Helvetica" font-size="28.0" fill="#3333CC" transform="matrix(1.00, 0.00, -0.00, -1.00, 286.6, 261.0)">e</text><text xml:space="preserve" font-family="Helvetica" font-size="28.0" fill="#3333CC" transform="matrix(1.00, 0.00, -0.00, -1.00, 302.1, 261.0)"> </text><text xml:space="preserve" font-family="Helvetica" font-size="28.0" fill="#3333CC" transform="matrix(1.00, 0.00, -0.00, -1.00, 309.9, 261.0)">m</text><text xml:space="preserve" font-family="Helvetica" font-size="28.0" fill="#3333CC" transform="matrix(1.00, 0.00, -0.00, -1.00, 333.2, 261.0)">a</text><text xml:space="preserve" font-family="Helvetica" font-size="28.0" fill="#3333CC" transform="matrix(1.00, 0.00, -0.00, -1.00, 348.8, 261.0)">n</text><text xml:space="preserve" font-family="Helvetica" font-size="28.0" fill="#3333CC" transform="matrix(1.00, 0.00, -0.00, -1.00, 364.4, 261.0)">t</text><text xml:space="preserve" font-family="Helvetica" font-size="28.0" fill="#3333CC" transform="matrix(1.00, 0.00, -0.00, -1.00, 372.2, 261.0)">e</text><text xml:space="preserve" font-family="Helvetica" font-size="28.0" fill="#3333CC" transform="matrix(1.00, 0.00, -0.00, -1.00, 387.7, 261.0)">n</text><text xml:space="preserve" font-family="Helvetica" font-size="28.0" fill="#3333CC" transform="matrix(1.00, 0.00, -0.00, -1.00, 403.3, 261.0)">e</text><text xml:space="preserve" font-family="Helvetica" font-size="28.0" fill="#3333CC" transform="matrix(1.00, 0.00, -0.00, -1.00, 418.9, 261.0)">r</text><text xml:space="preserve" font-family="Helvetica" font-size="28.0" fill="#3333CC" transform="matrix(1.00, 0.00, -0.00, -1.00, 428.2, 261.0)">/</text><text xml:space="preserve" font-family="Helvetica" font-size="28.0" fill="#3333CC" transform="matrix(1.00, 0.00, -0.00, -1.00, 436.0, 261.0)">e</text><text xml:space="preserve" font-family="Helvetica" font-size="28.0" fill="#3333CC" transform="matrix(1.00, 0.00, -0.00, -1.00, 451.6, 261.0)">x</text><text xml:space="preserve" font-family="Helvetica" font-size="28.0" fill="#3333CC" transform="matrix(1.00, 0.00, -0.00, -1.00, 465.6, 261.0)">t</text><text xml:space="preserve" font-family="Helvetica" font-size="28.0" fill="#3333CC" transform="matrix(1.00, 0.00, -0.00, -1.00, 473.4, 261.0)">e</text><text xml:space="preserve" font-family="Helvetica" font-size="28.0" fill="#3333CC" transform="matrix(1.00, 0.00, -0.00, -1.00, 488.9, 261.0)">n</text><text xml:space="preserve" font-family="Helvetica" font-size="28.0" fill="#3333CC" transform="matrix(1.00, 0.00, -0.00, -1.00, 504.5, 261.0)">d</text><text xml:space="preserve" font-family="Helvetica" font-size="28.0" fill="#3333CC" transform="matrix(1.00, 0.00, -0.00, -1.00, 520.1, 261.0)">e</text><text xml:space="preserve" font-family="Helvetica" font-size="28.0" fill="#3333CC" transform="matrix(1.00, 0.00, -0.00, -1.00, 535.7, 261.0)">r</text><text xml:space="preserve" font-family="Helvetica" font-size="28.0" fill="#3333CC" transform="matrix(1.00, 0.00, -0.00, -1.00, 545.0, 261.0)"> </text><text xml:space="preserve" font-family="Helvetica" font-size="28.0" fill="#3333CC" transform="matrix(1.00, 0.00, -0.00, -1.00, 92.0, 227.0)">(</text><text xml:space="preserve" font-family="Helvetica" font-size="28.0" fill="#3333CC" transform="matrix(1.00, 0.00, -0.00, -1.00, 101.3, 227.0)">c</text><text xml:space="preserve" font-family="Helvetica" font-size="28.0" fill="#3333CC" transform="matrix(1.00, 0.00, -0.00, -1.00, 115.3, 227.0)">o</text><text xml:space="preserve" font-family="Helvetica" font-size="28.0" fill="#3333CC" transform="matrix(1.00, 0.00, -0.00, -1.00, 130.9, 227.0)">m</text><text xml:space="preserve" font-family="Helvetica" font-size="28.0" fill="#3333CC" transform="matrix(1.00, 0.00, -0.00, -1.00, 154.2, 227.0)">p</text><text xml:space="preserve" font-family="Helvetica" font-size="28.0" fill="#3333CC" transform="matrix(1.00, 0.00, -0.00, -1.00, 169.8, 227.0)">o</text><text xml:space="preserve" font-family="Helvetica" font-size="28.0" fill="#3333CC" transform="matrix(1.00, 0.00, -0.00, -1.00, 185.4, 227.0)">n</text><text xml:space="preserve" font-family="Helvetica" font-size="28.0" fill="#3333CC" transform="matrix(1.00, 0.00, -0.00, -1.00, 201.0, 227.0)">e</text><text xml:space="preserve" font-family="Helvetica" font-size="28.0" fill="#3333CC" transform="matrix(1.00, 0.00, -0.00, -1.00, 216.5, 227.0)">n</text><text xml:space="preserve" font-family="Helvetica" font-size="28.0" fill="#3333CC" transform="matrix(1.00, 0.00, -0.00, -1.00, 232.1, 227.0)">t</text><text xml:space="preserve" font-family="Helvetica" font-size="28.0" fill="#3333CC" transform="matrix(1.00, 0.00, -0.00, -1.00, 239.9, 227.0)">e</text><text xml:space="preserve" font-family="Helvetica" font-size="28.0" fill="#3333CC" transform="matrix(1.00, 0.00, -0.00, -1.00, 255.5, 227.0)">s</text><text xml:space="preserve" font-family="Helvetica" font-size="28.0" fill="#3333CC" transform="matrix(1.00, 0.00, -0.00, -1.00, 269.5, 227.0)">/</text><text xml:space="preserve" font-family="Helvetica" font-size="28.0" fill="#3333CC" transform="matrix(1.00, 0.00, -0.00, -1.00, 277.2, 227.0)">s</text><text xml:space="preserve" font-family="Helvetica" font-size="28.0" fill="#3333CC" transform="matrix(1.00, 0.00, -0.00, -1.00, 291.2, 227.0)">c</text><text xml:space="preserve" font-family="Helvetica" font-size="28.0" fill="#3333CC" transform="matrix(1.00, 0.00, -0.00, -1.00, 305.2, 227.0)">r</text><text xml:space="preserve" font-family="Helvetica" font-size="28.0" fill="#3333CC" transform="matrix(1.00, 0.00, -0.00, -1.00, 314.6, 227.0)">i</text><text xml:space="preserve" font-family="Helvetica" font-size="28.0" fill="#3333CC" transform="matrix(1.00, 0.00, -0.00, -1.00, 320.8, 227.0)">p</text><text xml:space="preserve" font-family="Helvetica" font-size="28.0" fill="#3333CC" transform="matrix(1.00, 0.00, -0.00, -1.00, 336.4, 227.0)">t</text><text xml:space="preserve" font-family="Helvetica" font-size="28.0" fill="#3333CC" transform="matrix(1.00, 0.00, -0.00, -1.00, 344.1, 227.0)">i</text><text xml:space="preserve" font-family="Helvetica" font-size="28.0" fill="#3333CC" transform="matrix(1.00, 0.00, -0.00, -1.00, 350.4, 227.0)">n</text><text xml:space="preserve" font-family="Helvetica" font-size="28.0" fill="#3333CC" transform="matrix(1.00, 0.00, -0.00, -1.00, 365.9, 227.0)">g</text><text xml:space="preserve" font-family="Helvetica" font-size="28.0" fill="#3333CC" transform="matrix(1.00, 0.00, -0.00, -1.00, 381.5, 227.0)">)</text><text xml:space="preserve" font-family="Helvetica" font-size="28.0" fill="#3333CC" transform="matrix(1.00, 0.00, -0.00, -1.00, 69.6, 192.8)">–</text><text xml:space="preserve" font-family="Helvetica" font-size="28.0" fill="#3333CC" transform="matrix(1.00, 0.00, -0.00, -1.00, 92.0, 193.0)">T</text><text xml:space="preserve" font-family="Helvetica" font-size="28.0" fill="#3333CC" transform="matrix(1.00, 0.00, -0.00, -1.00, 108.1, 193.0)">r</text><text xml:space="preserve" font-family="Helvetica" font-size="28.0" fill="#3333CC" transform="matrix(1.00, 0.00, -0.00, -1.00, 117.4, 193.0)">a</text><text xml:space="preserve" font-family="Helvetica" font-size="28.0" fill="#3333CC" transform="matrix(1.00, 0.00, -0.00, -1.00, 133.0, 193.0)">n</text><text xml:space="preserve" font-family="Helvetica" font-size="28.0" fill="#3333CC" transform="matrix(1.00, 0.00, -0.00, -1.00, 148.6, 193.0)">s</text><text xml:space="preserve" font-family="Helvetica" font-size="28.0" fill="#3333CC" transform="matrix(1.00, 0.00, -0.00, -1.00, 162.6, 193.0)">f</text><text xml:space="preserve" font-family="Helvetica" font-size="28.0" fill="#3333CC" transform="matrix(1.00, 0.00, -0.00, -1.00, 170.3, 193.0)">e</text><text xml:space="preserve" font-family="Helvetica" font-size="28.0" fill="#3333CC" transform="matrix(1.00, 0.00, -0.00, -1.00, 185.9, 193.0)">r</text><text xml:space="preserve" font-family="Helvetica" font-size="28.0" fill="#3333CC" transform="matrix(1.00, 0.00, -0.00, -1.00, 195.2, 193.0)">e</text><text xml:space="preserve" font-family="Helvetica" font-size="28.0" fill="#3333CC" transform="matrix(1.00, 0.00, -0.00, -1.00, 210.8, 193.0)">n</text><text xml:space="preserve" font-family="Helvetica" font-size="28.0" fill="#3333CC" transform="matrix(1.00, 0.00, -0.00, -1.00, 226.4, 193.0)">c</text><text xml:space="preserve" font-family="Helvetica" font-size="28.0" fill="#3333CC" transform="matrix(1.00, 0.00, -0.00, -1.00, 240.4, 193.0)">i</text><text xml:space="preserve" font-family="Helvetica" font-size="28.0" fill="#3333CC" transform="matrix(1.00, 0.00, -0.00, -1.00, 246.6, 193.0)">a</text><text xml:space="preserve" font-family="Helvetica" font-size="28.0" fill="#3333CC" transform="matrix(1.00, 0.00, -0.00, -1.00, 262.2, 193.0)"> </text><text xml:space="preserve" font-family="Helvetica" font-size="28.0" fill="#3333CC" transform="matrix(1.00, 0.00, -0.00, -1.00, 270.0, 193.0)">d</text><text xml:space="preserve" font-family="Helvetica" font-size="28.0" fill="#3333CC" transform="matrix(1.00, 0.00, -0.00, -1.00, 285.5, 193.0)">e</text><text xml:space="preserve" font-family="Helvetica" font-size="28.0" fill="#3333CC" transform="matrix(1.00, 0.00, -0.00, -1.00, 301.1, 193.0)"> </text><text xml:space="preserve" font-family="Helvetica" font-size="28.0" fill="#3333CC" transform="matrix(1.00, 0.00, -0.00, -1.00, 308.9, 193.0)">s</text><text xml:space="preserve" font-family="Helvetica" font-size="28.0" fill="#3333CC" transform="matrix(1.00, 0.00, -0.00, -1.00, 322.9, 193.0)">e</text><text xml:space="preserve" font-family="Helvetica" font-size="28.0" fill="#3333CC" transform="matrix(1.00, 0.00, -0.00, -1.00, 338.5, 193.0)">s</text><text xml:space="preserve" font-family="Helvetica" font-size="28.0" fill="#3333CC" transform="matrix(1.00, 0.00, -0.00, -1.00, 352.5, 193.0)">i</text><text xml:space="preserve" font-family="Helvetica" font-size="28.0" fill="#3333CC" transform="matrix(1.00, 0.00, -0.00, -1.00, 358.7, 193.0)">ó</text><text xml:space="preserve" font-family="Helvetica" font-size="28.0" fill="#3333CC" transform="matrix(1.00, 0.00, -0.00, -1.00, 374.3, 193.0)">n</text></g></svg>