<?xml version="1.0" encoding="UTF-8" standalone="no"?><svg xmlns="http://www.w3.org/2000/svg" xmlns:xlink="http://www.w3.org/1999/xlink" clip-rule="evenodd" stroke-miterlimit="4.00" viewBox="0 0 720 540"><desc>SVG generated by Keynote</desc><defs><pattern id="49EE648C-8603-4F27-B955-EDAEE2BE7472" patternUnits="userSpaceOnUse" width="8" height="8" viewBox="0 0 8 8" patternTransform="matrix(1.000000, 0.000000, 0.000000, -1.000000, 24.000000, 408.000000)"><image xlink:href="50E51621CA6F814080917AB8D2018775.png" width="8.00" height="8.00"></image></pattern></defs><g transform="matrix(1.00, 0.00, -0.00, -1.00, 0.0, 540.0)"><path d="M 0.0 540.0 L 720.0 540.0 L 720.0 0.0 L 0.0 0.0 Z M 0.0 540.0 " fill="#FFFFFF"></path><image xlink:href="../../E4F82199-EC87-4BCA-B1F4-CE7998420C0A/assets/649D5F2581B5115DBFCA506154E33A95.jpeg" width="381.00" height="690.00" transform="matrix(1.81, 0.00, -0.00, -0.72, 30.0, 522.0)"></image><g><clipPath id="clip-286"><path d="M 624.0 73.0 L 1218.0 73.0 L 1218.0 540.0 L 624.0 540.0 Z M 624.0 73.0 "></path></clipPath><g clip-path="url(#clip-286)"><path d="M 689.3 468.9 L 689.6 469.0 L 690.0 469.1 L 690.2 469.3 L 690.3 469.5 L 690.4 469.6 L 690.5 469.9 L 690.5 470.0 L 690.5 470.2 L 690.5 470.4 L 690.5 470.6 L 690.5 470.8 L 690.4 470.9 L 690.3 471.0 L 690.2 471.1 L 690.0 471.3 L 689.8 471.4 L 689.6 471.4 L 689.3 471.5 L 689.0 471.4 L 688.7 471.3 L 688.5 471.1 L 688.4 471.0 L 688.3 470.9 L 688.2 470.6 L 688.2 470.4 L 688.2 470.2 L 688.2 470.0 L 688.2 469.9 L 688.2 469.7 L 688.3 469.6 L 688.4 469.5 L 688.5 469.3 L 688.7 469.1 L 688.9 469.0 L 689.0 469.0 L 689.3 468.9 Z M 688.4 470.2 L 688.4 470.5 L 688.5 470.8 L 688.7 471.0 L 688.9 471.2 L 688.9 471.2 L 689.1 471.2 L 689.3 471.3 L 689.6 471.2 L 689.7 471.2 L 689.8 471.2 L 690.0 471.0 L 690.1 470.8 L 690.3 470.5 L 690.3 470.2 L 690.3 469.9 L 690.1 469.7 L 690.0 469.5 L 689.8 469.3 L 689.6 469.2 L 689.3 469.2 L 689.1 469.2 L 688.9 469.3 L 688.7 469.5 L 688.5 469.7 L 688.4 469.9 L 688.4 470.2 Z M 689.1 470.1 L 689.3 470.1 L 689.7 469.5 L 690.0 469.5 L 689.5 470.1 L 689.7 470.1 L 689.8 470.2 L 689.9 470.3 L 689.9 470.6 L 689.8 470.7 L 689.8 470.8 L 689.8 470.8 L 689.6 470.9 L 689.4 471.0 L 688.9 471.0 L 688.9 469.5 L 689.1 469.5 L 689.1 470.1 Z M 689.1 470.3 L 689.1 470.8 L 689.4 470.8 L 689.6 470.7 L 689.6 470.7 L 689.7 470.6 L 689.6 470.4 L 689.6 470.3 L 689.4 470.3 L 689.3 470.3 L 689.1 470.3 Z M 689.1 470.3 " fill="#00478B"></path><path d="M 650.2 481.1 L 655.3 481.1 L 655.3 499.9 L 650.2 499.9 L 650.2 481.1 Z M 650.2 481.1 " fill="#BD0066"></path><path d="M 667.8 513.3 L 667.8 481.1 L 662.7 481.1 L 662.7 507.9 L 642.8 507.9 L 642.8 481.1 L 637.7 481.1 L 637.7 513.3 L 667.8 513.3 Z M 667.8 513.3 " fill="#60A625"></path><path d="M 673.9 481.1 L 674.9 482.9 L 675.9 484.8 L 676.8 486.8 L 677.3 487.8 L 677.7 488.8 L 678.1 489.8 L 678.4 490.9 L 678.7 491.9 L 679.0 492.9 L 679.2 494.0 L 679.3 495.0 L 679.4 496.1 L 679.5 497.2 L 679.4 498.3 L 679.3 499.3 L 679.2 500.4 L 679.0 501.4 L 678.7 502.5 L 678.4 503.6 L 678.0 504.6 L 677.6 505.6 L 676.8 507.6 L 675.9 509.5 L 674.9 511.4 L 673.9 513.3 L 679.2 513.3 L 680.4 511.4 L 681.4 509.6 L 681.9 508.6 L 682.4 507.7 L 682.7 506.6 L 683.1 505.7 L 683.5 504.7 L 683.8 503.7 L 684.1 502.7 L 684.3 501.6 L 684.5 500.6 L 684.7 499.5 L 684.7 498.4 L 684.8 497.2 L 684.7 496.0 L 684.7 495.0 L 684.5 493.9 L 684.3 492.8 L 684.1 491.7 L 683.8 490.7 L 683.5 489.7 L 683.2 488.7 L 682.7 487.7 L 682.4 486.8 L 681.9 485.7 L 681.4 484.8 L 680.9 483.9 L 680.4 482.9 L 679.2 481.1 L 673.9 481.1 Z M 673.9 481.1 " fill="#BD0066"></path><path d="M 638.0 470.9 L 635.0 470.9 L 635.0 457.7 L 638.0 457.7 L 638.0 470.9 Z M 638.0 470.9 " fill="#00478B"></path><path d="M 641.2 458.3 L 641.7 458.1 L 642.2 457.9 L 642.9 457.8 L 643.6 457.6 L 644.5 457.5 L 645.3 457.4 L 646.1 457.4 L 646.9 457.4 L 647.3 457.4 L 647.8 457.4 L 648.2 457.5 L 648.7 457.6 L 649.1 457.8 L 649.5 458.0 L 649.8 458.2 L 650.1 458.4 L 650.7 458.9 L 651.0 459.1 L 651.2 459.4 L 651.5 459.7 L 651.6 460.0 L 651.7 460.2 L 651.7 460.3 L 651.7 460.6 L 651.7 461.2 L 651.7 461.7 L 651.6 462.1 L 651.6 462.5 L 651.3 463.1 L 651.1 463.4 L 650.9 463.6 L 650.7 463.8 L 650.5 464.1 L 649.7 464.5 L 649.3 464.7 L 648.8 465.0 L 648.3 465.2 L 647.8 465.4 L 647.0 465.7 L 646.6 465.9 L 646.2 466.1 L 645.9 466.2 L 645.4 466.5 L 645.2 466.7 L 645.1 466.8 L 645.0 466.9 L 644.9 467.1 L 644.9 467.2 L 644.9 467.3 L 644.9 467.7 L 645.0 468.0 L 645.2 468.2 L 645.4 468.5 L 645.6 468.6 L 645.8 468.8 L 646.3 468.9 L 646.5 469.0 L 646.8 469.0 L 647.4 469.0 L 647.9 469.0 L 648.2 469.0 L 649.1 468.8 L 649.3 468.7 L 649.5 468.6 L 649.8 468.4 L 650.4 468.0 L 651.7 469.6 L 651.5 469.9 L 651.2 470.1 L 651.0 470.3 L 650.7 470.4 L 650.2 470.6 L 649.6 470.8 L 648.9 471.0 L 648.2 471.1 L 647.6 471.1 L 647.0 471.2 L 645.9 471.1 L 645.3 471.0 L 644.8 471.0 L 644.3 470.8 L 643.8 470.6 L 643.3 470.4 L 643.1 470.3 L 643.0 470.2 L 642.7 469.9 L 642.4 469.5 L 642.1 469.2 L 641.9 468.8 L 641.7 468.4 L 641.6 468.0 L 641.5 467.5 L 641.5 467.1 L 641.5 466.9 L 641.5 466.6 L 641.6 466.3 L 641.7 466.1 L 641.7 465.9 L 641.9 465.7 L 642.0 465.6 L 642.1 465.4 L 642.4 465.2 L 642.6 464.9 L 643.1 464.6 L 644.2 464.1 L 644.7 463.8 L 645.4 463.5 L 646.1 463.2 L 646.8 463.0 L 647.3 462.6 L 647.9 462.3 L 648.2 462.0 L 648.2 461.9 L 648.3 461.7 L 648.4 461.4 L 648.4 461.1 L 648.4 460.8 L 648.4 460.6 L 648.2 460.4 L 648.0 460.2 L 647.9 460.0 L 647.7 459.9 L 647.3 459.7 L 646.8 459.5 L 646.3 459.5 L 645.1 459.5 L 644.6 459.5 L 644.1 459.6 L 643.6 459.8 L 643.4 459.8 L 643.1 460.0 L 642.6 460.2 L 642.1 460.5 L 641.2 458.3 Z M 641.2 458.3 " fill="#00478B"></path><path d="M 657.0 470.9 L 654.0 470.9 L 654.0 462.3 L 654.0 461.8 L 654.0 461.3 L 654.2 460.9 L 654.4 460.4 L 654.6 460.0 L 654.8 459.6 L 655.1 459.3 L 655.4 458.9 L 655.8 458.6 L 656.1 458.3 L 656.5 458.0 L 656.9 457.8 L 657.4 457.6 L 657.8 457.6 L 658.3 457.4 L 658.8 457.4 L 659.1 457.4 L 659.5 457.5 L 659.9 457.6 L 660.2 457.7 L 660.6 457.8 L 660.9 458.0 L 661.4 458.4 L 661.7 458.7 L 662.0 458.9 L 662.2 459.2 L 662.4 459.5 L 662.9 460.3 L 663.4 461.1 L 663.4 457.7 L 666.4 457.7 L 666.4 470.9 L 663.4 470.9 L 663.4 466.0 L 663.3 465.2 L 663.2 464.6 L 663.2 464.1 L 663.0 463.6 L 662.8 463.0 L 662.7 462.5 L 662.5 462.0 L 662.2 461.5 L 661.9 461.1 L 661.8 460.8 L 661.6 460.6 L 661.4 460.4 L 661.2 460.2 L 661.0 460.1 L 660.8 460.0 L 660.6 459.8 L 660.4 459.7 L 660.1 459.6 L 659.8 459.5 L 659.3 459.5 L 659.0 459.5 L 658.6 459.8 L 658.3 460.0 L 657.9 460.4 L 657.7 460.6 L 657.6 460.8 L 657.4 461.1 L 657.2 461.3 L 657.2 461.6 L 657.0 461.9 L 657.0 462.1 L 657.0 462.5 L 657.0 470.9 Z M 657.0 470.9 " fill="#00478B"></path><path d="M 679.8 457.7 L 679.8 464.3 L 679.8 464.8 L 679.8 465.3 L 679.9 465.8 L 679.9 466.2 L 680.1 466.7 L 680.3 467.1 L 680.6 467.7 L 681.0 468.3 L 681.2 468.5 L 681.5 468.7 L 681.7 468.8 L 681.9 469.0 L 682.1 469.0 L 682.3 469.0 L 682.8 469.0 L 683.2 468.9 L 683.4 468.8 L 683.6 468.7 L 683.7 468.6 L 683.9 468.4 L 684.0 468.2 L 684.1 468.0 L 684.3 467.6 L 684.4 467.0 L 684.4 466.7 L 684.4 466.4 L 684.4 457.7 L 687.5 457.7 L 687.5 466.4 L 687.4 467.2 L 687.3 467.7 L 687.3 468.1 L 687.2 468.5 L 687.0 468.8 L 686.9 469.3 L 686.7 469.6 L 686.4 469.9 L 686.2 470.2 L 685.9 470.5 L 685.5 470.7 L 685.1 470.9 L 684.7 471.0 L 684.2 471.1 L 683.6 471.2 L 683.1 471.1 L 682.7 471.1 L 682.4 471.0 L 682.0 470.9 L 681.3 470.6 L 680.6 470.2 L 680.1 469.7 L 679.9 469.5 L 679.6 469.3 L 679.2 468.7 L 678.9 468.2 L 678.7 468.7 L 678.5 469.3 L 678.4 469.8 L 678.3 470.0 L 678.2 470.2 L 678.0 470.4 L 677.8 470.6 L 677.6 470.8 L 677.3 470.9 L 676.9 471.0 L 676.5 471.1 L 676.1 471.1 L 675.5 471.2 L 675.0 471.1 L 674.6 471.0 L 674.4 471.0 L 673.9 470.8 L 673.6 470.6 L 673.4 470.4 L 673.1 470.2 L 672.9 470.0 L 672.5 469.5 L 672.1 468.8 L 671.7 468.0 L 671.7 470.9 L 668.7 470.9 L 668.7 457.7 L 671.7 457.7 L 671.7 464.2 L 671.8 464.9 L 671.9 465.8 L 672.2 466.6 L 672.3 467.0 L 672.5 467.3 L 672.7 467.7 L 672.9 468.0 L 673.1 468.3 L 673.4 468.6 L 673.5 468.7 L 673.6 468.8 L 673.8 468.8 L 673.9 468.9 L 674.3 469.0 L 674.6 469.0 L 675.1 469.0 L 675.5 468.9 L 675.7 468.8 L 675.9 468.7 L 676.0 468.6 L 676.1 468.4 L 676.2 468.2 L 676.4 468.0 L 676.5 467.8 L 676.6 467.5 L 676.7 467.0 L 676.7 466.3 L 676.7 457.7 L 679.8 457.7 Z M 679.8 457.7 " fill="#00478B"></path><path d="M 685.9 443.2 L 688.2 444.2 L 684.0 455.0 L 681.8 453.9 L 685.9 443.2 Z M 685.9 443.2 " fill="#BD0066"></path><path d="M 684.0 453.9 L 681.8 455.0 L 677.5 444.2 L 679.7 443.2 L 684.0 453.9 Z M 684.0 453.9 " fill="#BD0066"></path><path d="M 683.8 455.4 C 684.3 454.9 684.3 454.1 683.8 453.6 C 683.3 453.1 682.6 453.1 682.1 453.6 C 681.6 454.1 681.6 454.9 682.1 455.4 C 682.6 455.9 683.3 455.9 683.8 455.4 " fill="#BD0066"></path><path d="M 679.5 444.7 C 679.9 444.2 679.9 443.3 679.5 442.8 C 679.0 442.3 678.2 442.3 677.7 442.8 C 677.3 443.3 677.3 444.2 677.7 444.7 C 678.2 445.2 679.0 445.2 679.5 444.7 " fill="#BD0066"></path><path d="M 687.9 444.7 C 688.4 444.2 688.4 443.3 687.9 442.8 C 687.5 442.3 686.7 442.3 686.2 442.8 C 685.8 443.3 685.8 444.2 686.2 444.7 C 686.7 445.2 687.5 445.2 687.9 444.7 " fill="#BD0066"></path><path d="M 662.7 455.0 L 660.4 453.9 L 664.6 443.2 L 666.9 444.2 L 662.7 455.0 Z M 662.7 455.0 " fill="#BD0066"></path><path d="M 664.7 444.3 L 666.9 443.2 L 671.2 453.9 L 669.0 455.0 L 664.7 444.3 Z M 664.7 444.3 " fill="#BD0066"></path><path d="M 666.6 444.7 C 667.1 444.2 667.1 443.3 666.6 442.8 C 666.2 442.3 665.4 442.3 664.9 442.8 C 664.5 443.3 664.5 444.2 664.9 444.7 C 665.4 445.2 666.2 445.2 666.6 444.7 " fill="#BD0066"></path><path d="M 671.0 455.4 C 671.4 454.9 671.4 454.1 671.0 453.6 C 670.5 453.1 669.7 453.1 669.3 453.6 C 668.8 454.1 668.8 454.9 669.3 455.4 C 669.7 455.9 670.5 455.9 671.0 455.4 " fill="#BD0066"></path><path d="M 662.4 455.4 C 662.9 454.9 662.9 454.1 662.4 453.6 C 662.0 453.1 661.2 453.1 660.7 453.6 C 660.2 454.1 660.2 454.9 660.7 455.4 C 661.2 455.9 662.0 455.9 662.4 455.4 " fill="#BD0066"></path><path d="M 671.3 455.0 L 669.0 453.9 L 673.2 443.2 L 675.4 444.2 L 671.3 455.0 Z M 671.3 455.0 " fill="#BD0066"></path><path d="M 673.2 444.3 L 675.4 443.2 L 679.8 453.9 L 677.6 455.0 L 673.2 444.3 Z M 673.2 444.3 " fill="#BD0066"></path><path d="M 675.2 444.7 C 675.7 444.2 675.7 443.3 675.2 442.8 C 674.7 442.3 673.9 442.3 673.5 442.8 C 673.0 443.3 673.0 444.2 673.5 444.7 C 673.9 445.2 674.7 445.2 675.2 444.7 " fill="#BD0066"></path><path d="M 679.5 455.4 C 680.0 454.9 680.0 454.1 679.5 453.6 C 679.1 453.1 678.3 453.1 677.8 453.6 C 677.3 454.1 677.3 454.9 677.8 455.4 C 678.3 455.9 679.1 455.9 679.5 455.4 " fill="#BD0066"></path><path d="M 671.0 455.4 C 671.5 454.9 671.5 454.1 671.0 453.6 C 670.6 453.1 669.8 453.1 669.3 453.6 C 668.9 454.1 668.9 454.9 669.3 455.4 C 669.8 455.9 670.6 455.9 671.0 455.4 " fill="#BD0066"></path><path d="M 706.0 443.2 L 708.3 444.2 L 704.1 455.0 L 701.9 453.9 L 706.0 443.2 Z M 706.0 443.2 " fill="#BD0066"></path><path d="M 704.1 453.9 L 701.9 455.0 L 697.5 444.2 L 699.8 443.2 L 704.1 453.9 Z M 704.1 453.9 " fill="#BD0066"></path><path d="M 703.9 455.4 C 704.4 454.9 704.4 454.1 703.9 453.6 C 703.4 453.1 702.7 453.1 702.2 453.6 C 701.7 454.1 701.7 454.9 702.2 455.4 C 702.7 455.9 703.4 455.9 703.9 455.4 " fill="#BD0066"></path><path d="M 699.6 444.7 C 700.0 444.2 700.0 443.3 699.6 442.8 C 699.1 442.3 698.3 442.3 697.8 442.8 C 697.4 443.3 697.4 444.2 697.8 444.7 C 698.3 445.2 699.1 445.2 699.6 444.7 " fill="#BD0066"></path><path d="M 708.0 444.7 C 708.5 444.2 708.5 443.3 708.0 442.8 C 707.6 442.3 706.8 442.3 706.3 442.8 C 705.9 443.3 705.9 444.2 706.3 444.7 C 706.8 445.2 707.6 445.2 708.0 444.7 " fill="#BD0066"></path><path d="M 697.7 443.2 L 700.0 444.2 L 695.8 455.0 L 693.6 453.9 L 697.7 443.2 Z M 697.7 443.2 " fill="#BD0066"></path><path d="M 695.8 453.9 L 693.6 455.0 L 689.3 444.2 L 691.5 443.2 L 695.8 453.9 Z M 695.8 453.9 " fill="#BD0066"></path><path d="M 695.6 455.4 C 696.1 454.9 696.1 454.1 695.6 453.6 C 695.1 453.1 694.4 453.1 693.9 453.6 C 693.4 454.1 693.4 454.9 693.9 455.4 C 694.4 455.9 695.1 455.9 695.6 455.4 " fill="#BD0066"></path><path d="M 691.3 444.7 C 691.7 444.2 691.7 443.3 691.3 442.8 C 690.8 442.3 690.0 442.3 689.5 442.8 C 689.1 443.3 689.1 444.2 689.5 444.7 C 690.0 445.2 690.8 445.2 691.3 444.7 " fill="#BD0066"></path><path d="M 699.7 444.7 C 700.2 444.2 700.2 443.3 699.7 442.8 C 699.3 442.3 698.5 442.3 698.0 442.8 C 697.6 443.3 697.6 444.2 698.0 444.7 C 698.5 445.2 699.3 445.2 699.7 444.7 " fill="#BD0066"></path></g></g><text xml:space="preserve" font-family="Helvetica" font-size="22.0" fill="#3333CC" transform="matrix(1.00, 0.00, -0.00, -1.00, 285.6, 383.5)">•</text><text xml:space="preserve" font-family="Helvetica" font-size="22.0" fill="#3333CC" transform="matrix(1.00, 0.00, -0.00, -1.00, 313.0, 383.0)">A</text><text xml:space="preserve" font-family="Helvetica" font-size="22.0" fill="#3333CC" transform="matrix(1.00, 0.00, -0.00, -1.00, 327.7, 383.0)">p</text><text xml:space="preserve" font-family="Helvetica" font-size="22.0" fill="#3333CC" transform="matrix(1.00, 0.00, -0.00, -1.00, 339.9, 383.0)">l</text><text xml:space="preserve" font-family="Helvetica" font-size="22.0" fill="#3333CC" transform="matrix(1.00, 0.00, -0.00, -1.00, 344.8, 383.0)">i</text><text xml:space="preserve" font-family="Helvetica" font-size="22.0" fill="#3333CC" transform="matrix(1.00, 0.00, -0.00, -1.00, 349.7, 383.0)">c</text><text xml:space="preserve" font-family="Helvetica" font-size="22.0" fill="#3333CC" transform="matrix(1.00, 0.00, -0.00, -1.00, 360.7, 383.0)">a</text><text xml:space="preserve" font-family="Helvetica" font-size="22.0" fill="#3333CC" transform="matrix(1.00, 0.00, -0.00, -1.00, 372.9, 383.0)">c</text><text xml:space="preserve" font-family="Helvetica" font-size="22.0" fill="#3333CC" transform="matrix(1.00, 0.00, -0.00, -1.00, 383.9, 383.0)">i</text><text xml:space="preserve" font-family="Helvetica" font-size="22.0" fill="#3333CC" transform="matrix(1.00, 0.00, -0.00, -1.00, 388.8, 383.0)">o</text><text xml:space="preserve" font-family="Helvetica" font-size="22.0" fill="#3333CC" transform="matrix(1.00, 0.00, -0.00, -1.00, 401.1, 383.0)">n</text><text xml:space="preserve" font-family="Helvetica" font-size="22.0" fill="#3333CC" transform="matrix(1.00, 0.00, -0.00, -1.00, 413.3, 383.0)">e</text><text xml:space="preserve" font-family="Helvetica" font-size="22.0" fill="#3333CC" transform="matrix(1.00, 0.00, -0.00, -1.00, 425.5, 383.0)">s</text><text xml:space="preserve" font-family="Helvetica" font-size="22.0" fill="#3333CC" transform="matrix(1.00, 0.00, -0.00, -1.00, 436.5, 383.0)"> </text><text xml:space="preserve" font-family="Helvetica" font-size="22.0" fill="#3333CC" transform="matrix(1.00, 0.00, -0.00, -1.00, 442.7, 383.0)">t</text><text xml:space="preserve" font-family="Helvetica" font-size="22.0" fill="#3333CC" transform="matrix(1.00, 0.00, -0.00, -1.00, 448.8, 383.0)">r</text><text xml:space="preserve" font-family="Helvetica" font-size="22.0" fill="#3333CC" transform="matrix(1.00, 0.00, -0.00, -1.00, 456.1, 383.0)">a</text><text xml:space="preserve" font-family="Helvetica" font-size="22.0" fill="#3333CC" transform="matrix(1.00, 0.00, -0.00, -1.00, 468.3, 383.0)">d</text><text xml:space="preserve" font-family="Helvetica" font-size="22.0" fill="#3333CC" transform="matrix(1.00, 0.00, -0.00, -1.00, 480.6, 383.0)">i</text><text xml:space="preserve" font-family="Helvetica" font-size="22.0" fill="#3333CC" transform="matrix(1.00, 0.00, -0.00, -1.00, 485.5, 383.0)">c</text><text xml:space="preserve" font-family="Helvetica" font-size="22.0" fill="#3333CC" transform="matrix(1.00, 0.00, -0.00, -1.00, 496.5, 383.0)">i</text><text xml:space="preserve" font-family="Helvetica" font-size="22.0" fill="#3333CC" transform="matrix(1.00, 0.00, -0.00, -1.00, 501.4, 383.0)">o</text><text xml:space="preserve" font-family="Helvetica" font-size="22.0" fill="#3333CC" transform="matrix(1.00, 0.00, -0.00, -1.00, 513.6, 383.0)">n</text><text xml:space="preserve" font-family="Helvetica" font-size="22.0" fill="#3333CC" transform="matrix(1.00, 0.00, -0.00, -1.00, 525.8, 383.0)">a</text><text xml:space="preserve" font-family="Helvetica" font-size="22.0" fill="#3333CC" transform="matrix(1.00, 0.00, -0.00, -1.00, 538.1, 383.0)">l</text><text xml:space="preserve" font-family="Helvetica" font-size="22.0" fill="#3333CC" transform="matrix(1.00, 0.00, -0.00, -1.00, 543.0, 383.0)">e</text><text xml:space="preserve" font-family="Helvetica" font-size="22.0" fill="#3333CC" transform="matrix(1.00, 0.00, -0.00, -1.00, 555.2, 383.0)">s</text><text xml:space="preserve" font-family="Helvetica" font-size="22.0" fill="#3333CC" transform="matrix(1.00, 0.00, -0.00, -1.00, 566.2, 383.0)">:</text><text xml:space="preserve" font-family="Helvetica" font-size="22.0" fill="#3333CC" transform="matrix(1.00, 0.00, -0.00, -1.00, 572.3, 383.0)"> </text><text xml:space="preserve" font-family="Helvetica" font-size="22.0" fill="#3333CC" transform="matrix(1.00, 0.00, -0.00, -1.00, 313.0, 357.0)">e</text><text xml:space="preserve" font-family="Helvetica" font-size="22.0" fill="#3333CC" transform="matrix(1.00, 0.00, -0.00, -1.00, 325.2, 357.0)">s</text><text xml:space="preserve" font-family="Helvetica" font-size="22.0" fill="#3333CC" transform="matrix(1.00, 0.00, -0.00, -1.00, 336.2, 357.0)">t</text><text xml:space="preserve" font-family="Helvetica" font-size="22.0" fill="#3333CC" transform="matrix(1.00, 0.00, -0.00, -1.00, 342.3, 357.0)">r</text><text xml:space="preserve" font-family="Helvetica" font-size="22.0" fill="#3333CC" transform="matrix(1.00, 0.00, -0.00, -1.00, 349.7, 357.0)">u</text><text xml:space="preserve" font-family="Helvetica" font-size="22.0" fill="#3333CC" transform="matrix(1.00, 0.00, -0.00, -1.00, 361.9, 357.0)">c</text><text xml:space="preserve" font-family="Helvetica" font-size="22.0" fill="#3333CC" transform="matrix(1.00, 0.00, -0.00, -1.00, 372.9, 357.0)">t</text><text xml:space="preserve" font-family="Helvetica" font-size="22.0" fill="#3333CC" transform="matrix(1.00, 0.00, -0.00, -1.00, 379.0, 357.0)">u</text><text xml:space="preserve" font-family="Helvetica" font-size="22.0" fill="#3333CC" transform="matrix(1.00, 0.00, -0.00, -1.00, 391.3, 357.0)">r</text><text xml:space="preserve" font-family="Helvetica" font-size="22.0" fill="#3333CC" transform="matrix(1.00, 0.00, -0.00, -1.00, 398.6, 357.0)">a</text><text xml:space="preserve" font-family="Helvetica" font-size="22.0" fill="#3333CC" transform="matrix(1.00, 0.00, -0.00, -1.00, 410.8, 357.0)">d</text><text xml:space="preserve" font-family="Helvetica" font-size="22.0" fill="#3333CC" transform="matrix(1.00, 0.00, -0.00, -1.00, 423.1, 357.0)">a</text><text xml:space="preserve" font-family="Helvetica" font-size="22.0" fill="#3333CC" transform="matrix(1.00, 0.00, -0.00, -1.00, 435.3, 357.0)">s</text><text xml:space="preserve" font-family="Helvetica" font-size="22.0" fill="#3333CC" transform="matrix(1.00, 0.00, -0.00, -1.00, 446.3, 357.0)"> </text><text xml:space="preserve" font-family="Helvetica" font-size="22.0" fill="#3333CC" transform="matrix(1.00, 0.00, -0.00, -1.00, 452.4, 357.0)">e</text><text xml:space="preserve" font-family="Helvetica" font-size="22.0" fill="#3333CC" transform="matrix(1.00, 0.00, -0.00, -1.00, 464.7, 357.0)">n</text><text xml:space="preserve" font-family="Helvetica" font-size="22.0" fill="#3333CC" transform="matrix(1.00, 0.00, -0.00, -1.00, 476.9, 357.0)"> </text><text xml:space="preserve" font-family="Helvetica" font-size="22.0" fill="#3333CC" transform="matrix(1.00, 0.00, -0.00, -1.00, 483.0, 357.0)">c</text><text xml:space="preserve" font-family="Helvetica" font-size="22.0" fill="#3333CC" transform="matrix(1.00, 0.00, -0.00, -1.00, 494.0, 357.0)">a</text><text xml:space="preserve" font-family="Helvetica" font-size="22.0" fill="#3333CC" transform="matrix(1.00, 0.00, -0.00, -1.00, 506.2, 357.0)">p</text><text xml:space="preserve" font-family="Helvetica" font-size="22.0" fill="#3333CC" transform="matrix(1.00, 0.00, -0.00, -1.00, 518.5, 357.0)">a</text><text xml:space="preserve" font-family="Helvetica" font-size="22.0" fill="#3333CC" transform="matrix(1.00, 0.00, -0.00, -1.00, 530.7, 357.0)">s</text><text xml:space="preserve" font-family="Helvetica" font-size="22.0" fill="#3333CC" transform="matrix(1.00, 0.00, -0.00, -1.00, 541.7, 357.0)">.</text><text xml:space="preserve" font-family="Helvetica" font-size="22.0" fill="#3333CC" transform="matrix(1.00, 0.00, -0.00, -1.00, 285.6, 326.2)">•</text><text xml:space="preserve" font-family="Helvetica" font-size="22.0" fill="#3333CC" transform="matrix(1.00, 0.00, -0.00, -1.00, 313.0, 326.0)">N</text><text xml:space="preserve" font-family="Helvetica" font-size="22.0" fill="#3333CC" transform="matrix(1.00, 0.00, -0.00, -1.00, 328.9, 326.0)">i</text><text xml:space="preserve" font-family="Helvetica" font-size="22.0" fill="#3333CC" transform="matrix(1.00, 0.00, -0.00, -1.00, 333.8, 326.0)">v</text><text xml:space="preserve" font-family="Helvetica" font-size="22.0" fill="#3333CC" transform="matrix(1.00, 0.00, -0.00, -1.00, 344.8, 326.0)">e</text><text xml:space="preserve" font-family="Helvetica" font-size="22.0" fill="#3333CC" transform="matrix(1.00, 0.00, -0.00, -1.00, 357.0, 326.0)">l</text><text xml:space="preserve" font-family="Helvetica" font-size="22.0" fill="#3333CC" transform="matrix(1.00, 0.00, -0.00, -1.00, 361.9, 326.0)"> </text><text xml:space="preserve" font-family="Helvetica" font-size="22.0" fill="#3333CC" transform="matrix(1.00, 0.00, -0.00, -1.00, 368.0, 326.0)">f</text><text xml:space="preserve" font-family="Helvetica" font-size="22.0" fill="#3333CC" transform="matrix(1.00, 0.00, -0.00, -1.00, 374.1, 326.0)">í</text><text xml:space="preserve" font-family="Helvetica" font-size="22.0" fill="#3333CC" transform="matrix(1.00, 0.00, -0.00, -1.00, 380.2, 326.0)">s</text><text xml:space="preserve" font-family="Helvetica" font-size="22.0" fill="#3333CC" transform="matrix(1.00, 0.00, -0.00, -1.00, 391.2, 326.0)">i</text><text xml:space="preserve" font-family="Helvetica" font-size="22.0" fill="#3333CC" transform="matrix(1.00, 0.00, -0.00, -1.00, 396.1, 326.0)">c</text><text xml:space="preserve" font-family="Helvetica" font-size="22.0" fill="#3333CC" transform="matrix(1.00, 0.00, -0.00, -1.00, 407.1, 326.0)">o</text><text xml:space="preserve" font-family="Helvetica" font-size="22.0" fill="#3333CC" transform="matrix(1.00, 0.00, -0.00, -1.00, 419.4, 326.0)">:</text><text xml:space="preserve" font-family="Helvetica" font-size="22.0" fill="#3333CC" transform="matrix(1.00, 0.00, -0.00, -1.00, 425.5, 326.0)"> </text><text xml:space="preserve" font-family="Helvetica" font-size="22.0" fill="#3333CC" transform="matrix(1.00, 0.00, -0.00, -1.00, 431.6, 326.0)">c</text><text xml:space="preserve" font-family="Helvetica" font-size="22.0" fill="#3333CC" transform="matrix(1.00, 0.00, -0.00, -1.00, 442.6, 326.0)">l</text><text xml:space="preserve" font-family="Helvetica" font-size="22.0" fill="#3333CC" transform="matrix(1.00, 0.00, -0.00, -1.00, 447.5, 326.0)">i</text><text xml:space="preserve" font-family="Helvetica" font-size="22.0" fill="#3333CC" transform="matrix(1.00, 0.00, -0.00, -1.00, 452.4, 326.0)">e</text><text xml:space="preserve" font-family="Helvetica" font-size="22.0" fill="#3333CC" transform="matrix(1.00, 0.00, -0.00, -1.00, 464.6, 326.0)">n</text><text xml:space="preserve" font-family="Helvetica" font-size="22.0" fill="#3333CC" transform="matrix(1.00, 0.00, -0.00, -1.00, 476.9, 326.0)">t</text><text xml:space="preserve" font-family="Helvetica" font-size="22.0" fill="#3333CC" transform="matrix(1.00, 0.00, -0.00, -1.00, 483.0, 326.0)">e</text><text xml:space="preserve" font-family="Helvetica" font-size="22.0" fill="#3333CC" transform="matrix(1.00, 0.00, -0.00, -1.00, 495.2, 326.0)">,</text><text xml:space="preserve" font-family="Helvetica" font-size="22.0" fill="#3333CC" transform="matrix(1.00, 0.00, -0.00, -1.00, 501.3, 326.0)"> </text><text xml:space="preserve" font-family="Helvetica" font-size="22.0" fill="#3333CC" transform="matrix(1.00, 0.00, -0.00, -1.00, 507.4, 326.0)">s</text><text xml:space="preserve" font-family="Helvetica" font-size="22.0" fill="#3333CC" transform="matrix(1.00, 0.00, -0.00, -1.00, 518.4, 326.0)">e</text><text xml:space="preserve" font-family="Helvetica" font-size="22.0" fill="#3333CC" transform="matrix(1.00, 0.00, -0.00, -1.00, 530.7, 326.0)">r</text><text xml:space="preserve" font-family="Helvetica" font-size="22.0" fill="#3333CC" transform="matrix(1.00, 0.00, -0.00, -1.00, 538.0, 326.0)">v</text><text xml:space="preserve" font-family="Helvetica" font-size="22.0" fill="#3333CC" transform="matrix(1.00, 0.00, -0.00, -1.00, 549.0, 326.0)">i</text><text xml:space="preserve" font-family="Helvetica" font-size="22.0" fill="#3333CC" transform="matrix(1.00, 0.00, -0.00, -1.00, 553.9, 326.0)">d</text><text xml:space="preserve" font-family="Helvetica" font-size="22.0" fill="#3333CC" transform="matrix(1.00, 0.00, -0.00, -1.00, 566.1, 326.0)">o</text><text xml:space="preserve" font-family="Helvetica" font-size="22.0" fill="#3333CC" transform="matrix(1.00, 0.00, -0.00, -1.00, 578.4, 326.0)">r</text><text xml:space="preserve" font-family="Helvetica" font-size="22.0" fill="#3333CC" transform="matrix(1.00, 0.00, -0.00, -1.00, 584.5, 326.0)">,</text><text xml:space="preserve" font-family="Helvetica" font-size="22.0" fill="#3333CC" transform="matrix(1.00, 0.00, -0.00, -1.00, 590.6, 326.0)"> </text><text xml:space="preserve" font-family="Helvetica" font-size="22.0" fill="#3333CC" transform="matrix(1.00, 0.00, -0.00, -1.00, 596.7, 326.0)">m</text><text xml:space="preserve" font-family="Helvetica" font-size="22.0" fill="#3333CC" transform="matrix(1.00, 0.00, -0.00, -1.00, 615.0, 326.0)">i</text><text xml:space="preserve" font-family="Helvetica" font-size="22.0" fill="#3333CC" transform="matrix(1.00, 0.00, -0.00, -1.00, 619.9, 326.0)">d</text><text xml:space="preserve" font-family="Helvetica" font-size="22.0" fill="#3333CC" transform="matrix(1.00, 0.00, -0.00, -1.00, 632.1, 326.0)">d</text><text xml:space="preserve" font-family="Helvetica" font-size="22.0" fill="#3333CC" transform="matrix(1.00, 0.00, -0.00, -1.00, 644.4, 326.0)">l</text><text xml:space="preserve" font-family="Helvetica" font-size="22.0" fill="#3333CC" transform="matrix(1.00, 0.00, -0.00, -1.00, 649.3, 326.0)">e</text><text xml:space="preserve" font-family="Helvetica" font-size="22.0" fill="#3333CC" transform="matrix(1.00, 0.00, -0.00, -1.00, 661.5, 326.0)">-</text><text xml:space="preserve" font-family="Helvetica" font-size="22.0" fill="#3333CC" transform="matrix(1.00, 0.00, -0.00, -1.00, 313.0, 300.0)">t</text><text xml:space="preserve" font-family="Helvetica" font-size="22.0" fill="#3333CC" transform="matrix(1.00, 0.00, -0.00, -1.00, 319.1, 300.0)">i</text><text xml:space="preserve" font-family="Helvetica" font-size="22.0" fill="#3333CC" transform="matrix(1.00, 0.00, -0.00, -1.00, 324.0, 300.0)">e</text><text xml:space="preserve" font-family="Helvetica" font-size="22.0" fill="#3333CC" transform="matrix(1.00, 0.00, -0.00, -1.00, 336.2, 300.0)">r</text><text xml:space="preserve" font-family="Helvetica" font-size="22.0" fill="#3333CC" transform="matrix(1.00, 0.00, -0.00, -1.00, 342.4, 300.0)">,</text><text xml:space="preserve" font-family="Helvetica" font-size="22.0" fill="#3333CC" transform="matrix(1.00, 0.00, -0.00, -1.00, 348.5, 300.0)"> </text><text xml:space="preserve" font-family="Helvetica" font-size="22.0" fill="#3333CC" transform="matrix(1.00, 0.00, -0.00, -1.00, 354.6, 300.0)">B</text><text xml:space="preserve" font-family="Helvetica" font-size="22.0" fill="#3333CC" transform="matrix(1.00, 0.00, -0.00, -1.00, 369.3, 300.0)">B</text><text xml:space="preserve" font-family="Helvetica" font-size="22.0" fill="#3333CC" transform="matrix(1.00, 0.00, -0.00, -1.00, 383.9, 300.0)">D</text><text xml:space="preserve" font-family="Helvetica" font-size="22.0" fill="#3333CC" transform="matrix(1.00, 0.00, -0.00, -1.00, 399.8, 300.0)">D</text><text xml:space="preserve" font-family="Helvetica" font-size="22.0" fill="#3333CC" transform="matrix(1.00, 0.00, -0.00, -1.00, 415.7, 300.0)">.</text><text xml:space="preserve" font-family="Helvetica" font-size="22.0" fill="#3333CC" transform="matrix(1.00, 0.00, -0.00, -1.00, 285.6, 268.9)">•</text><text xml:space="preserve" font-family="Helvetica" font-size="22.0" fill="#3333CC" transform="matrix(1.00, 0.00, -0.00, -1.00, 313.0, 269.0)">N</text><text xml:space="preserve" font-family="Helvetica" font-size="22.0" fill="#3333CC" transform="matrix(1.00, 0.00, -0.00, -1.00, 328.9, 269.0)">i</text><text xml:space="preserve" font-family="Helvetica" font-size="22.0" fill="#3333CC" transform="matrix(1.00, 0.00, -0.00, -1.00, 333.8, 269.0)">v</text><text xml:space="preserve" font-family="Helvetica" font-size="22.0" fill="#3333CC" transform="matrix(1.00, 0.00, -0.00, -1.00, 344.8, 269.0)">e</text><text xml:space="preserve" font-family="Helvetica" font-size="22.0" fill="#3333CC" transform="matrix(1.00, 0.00, -0.00, -1.00, 357.0, 269.0)">l</text><text xml:space="preserve" font-family="Helvetica" font-size="22.0" fill="#3333CC" transform="matrix(1.00, 0.00, -0.00, -1.00, 361.9, 269.0)"> </text><text xml:space="preserve" font-family="Helvetica" font-size="22.0" fill="#3333CC" transform="matrix(1.00, 0.00, -0.00, -1.00, 368.0, 269.0)">l</text><text xml:space="preserve" font-family="Helvetica" font-size="22.0" fill="#3333CC" transform="matrix(1.00, 0.00, -0.00, -1.00, 372.9, 269.0)">ó</text><text xml:space="preserve" font-family="Helvetica" font-size="22.0" fill="#3333CC" transform="matrix(1.00, 0.00, -0.00, -1.00, 385.2, 269.0)">g</text><text xml:space="preserve" font-family="Helvetica" font-size="22.0" fill="#3333CC" transform="matrix(1.00, 0.00, -0.00, -1.00, 397.4, 269.0)">i</text><text xml:space="preserve" font-family="Helvetica" font-size="22.0" fill="#3333CC" transform="matrix(1.00, 0.00, -0.00, -1.00, 402.3, 269.0)">c</text><text xml:space="preserve" font-family="Helvetica" font-size="22.0" fill="#3333CC" transform="matrix(1.00, 0.00, -0.00, -1.00, 413.3, 269.0)">o</text><text xml:space="preserve" font-family="Helvetica" font-size="22.0" fill="#3333CC" transform="matrix(1.00, 0.00, -0.00, -1.00, 425.5, 269.0)">:</text><text xml:space="preserve" font-family="Helvetica" font-size="22.0" fill="#3333CC" transform="matrix(1.00, 0.00, -0.00, -1.00, 431.6, 269.0)"> </text><text xml:space="preserve" font-family="Helvetica" font-size="22.0" fill="#3333CC" transform="matrix(1.00, 0.00, -0.00, -1.00, 437.7, 269.0)">p</text><text xml:space="preserve" font-family="Helvetica" font-size="22.0" fill="#3333CC" transform="matrix(1.00, 0.00, -0.00, -1.00, 450.0, 269.0)">r</text><text xml:space="preserve" font-family="Helvetica" font-size="22.0" fill="#3333CC" transform="matrix(1.00, 0.00, -0.00, -1.00, 457.3, 269.0)">e</text><text xml:space="preserve" font-family="Helvetica" font-size="22.0" fill="#3333CC" transform="matrix(1.00, 0.00, -0.00, -1.00, 469.5, 269.0)">s</text><text xml:space="preserve" font-family="Helvetica" font-size="22.0" fill="#3333CC" transform="matrix(1.00, 0.00, -0.00, -1.00, 480.5, 269.0)">e</text><text xml:space="preserve" font-family="Helvetica" font-size="22.0" fill="#3333CC" transform="matrix(1.00, 0.00, -0.00, -1.00, 492.8, 269.0)">n</text><text xml:space="preserve" font-family="Helvetica" font-size="22.0" fill="#3333CC" transform="matrix(1.00, 0.00, -0.00, -1.00, 505.0, 269.0)">t</text><text xml:space="preserve" font-family="Helvetica" font-size="22.0" fill="#3333CC" transform="matrix(1.00, 0.00, -0.00, -1.00, 511.1, 269.0)">a</text><text xml:space="preserve" font-family="Helvetica" font-size="22.0" fill="#3333CC" transform="matrix(1.00, 0.00, -0.00, -1.00, 523.4, 269.0)">c</text><text xml:space="preserve" font-family="Helvetica" font-size="22.0" fill="#3333CC" transform="matrix(1.00, 0.00, -0.00, -1.00, 534.4, 269.0)">i</text><text xml:space="preserve" font-family="Helvetica" font-size="22.0" fill="#3333CC" transform="matrix(1.00, 0.00, -0.00, -1.00, 539.3, 269.0)">ó</text><text xml:space="preserve" font-family="Helvetica" font-size="22.0" fill="#3333CC" transform="matrix(1.00, 0.00, -0.00, -1.00, 551.5, 269.0)">n</text><text xml:space="preserve" font-family="Helvetica" font-size="22.0" fill="#3333CC" transform="matrix(1.00, 0.00, -0.00, -1.00, 563.7, 269.0)">,</text><text xml:space="preserve" font-family="Helvetica" font-size="22.0" fill="#3333CC" transform="matrix(1.00, 0.00, -0.00, -1.00, 569.9, 269.0)"> </text><text xml:space="preserve" font-family="Helvetica" font-size="22.0" fill="#3333CC" transform="matrix(1.00, 0.00, -0.00, -1.00, 576.0, 269.0)">n</text><text xml:space="preserve" font-family="Helvetica" font-size="22.0" fill="#3333CC" transform="matrix(1.00, 0.00, -0.00, -1.00, 588.2, 269.0)">e</text><text xml:space="preserve" font-family="Helvetica" font-size="22.0" fill="#3333CC" transform="matrix(1.00, 0.00, -0.00, -1.00, 600.4, 269.0)">g</text><text xml:space="preserve" font-family="Helvetica" font-size="22.0" fill="#3333CC" transform="matrix(1.00, 0.00, -0.00, -1.00, 612.7, 269.0)">o</text><text xml:space="preserve" font-family="Helvetica" font-size="22.0" fill="#3333CC" transform="matrix(1.00, 0.00, -0.00, -1.00, 624.9, 269.0)">c</text><text xml:space="preserve" font-family="Helvetica" font-size="22.0" fill="#3333CC" transform="matrix(1.00, 0.00, -0.00, -1.00, 635.9, 269.0)">i</text><text xml:space="preserve" font-family="Helvetica" font-size="22.0" fill="#3333CC" transform="matrix(1.00, 0.00, -0.00, -1.00, 640.8, 269.0)">o</text><text xml:space="preserve" font-family="Helvetica" font-size="22.0" fill="#3333CC" transform="matrix(1.00, 0.00, -0.00, -1.00, 653.1, 269.0)">,</text><text xml:space="preserve" font-family="Helvetica" font-size="22.0" fill="#3333CC" transform="matrix(1.00, 0.00, -0.00, -1.00, 659.2, 269.0)"> </text><text xml:space="preserve" font-family="Helvetica" font-size="22.0" fill="#3333CC" transform="matrix(1.00, 0.00, -0.00, -1.00, 313.0, 243.0)">p</text><text xml:space="preserve" font-family="Helvetica" font-size="22.0" fill="#3333CC" transform="matrix(1.00, 0.00, -0.00, -1.00, 325.2, 243.0)">e</text><text xml:space="preserve" font-family="Helvetica" font-size="22.0" fill="#3333CC" transform="matrix(1.00, 0.00, -0.00, -1.00, 337.5, 243.0)">r</text><text xml:space="preserve" font-family="Helvetica" font-size="22.0" fill="#3333CC" transform="matrix(1.00, 0.00, -0.00, -1.00, 344.8, 243.0)">s</text><text xml:space="preserve" font-family="Helvetica" font-size="22.0" fill="#3333CC" transform="matrix(1.00, 0.00, -0.00, -1.00, 355.8, 243.0)">i</text><text xml:space="preserve" font-family="Helvetica" font-size="22.0" fill="#3333CC" transform="matrix(1.00, 0.00, -0.00, -1.00, 360.7, 243.0)">s</text><text xml:space="preserve" font-family="Helvetica" font-size="22.0" fill="#3333CC" transform="matrix(1.00, 0.00, -0.00, -1.00, 371.7, 243.0)">t</text><text xml:space="preserve" font-family="Helvetica" font-size="22.0" fill="#3333CC" transform="matrix(1.00, 0.00, -0.00, -1.00, 377.8, 243.0)">e</text><text xml:space="preserve" font-family="Helvetica" font-size="22.0" fill="#3333CC" transform="matrix(1.00, 0.00, -0.00, -1.00, 390.0, 243.0)">n</text><text xml:space="preserve" font-family="Helvetica" font-size="22.0" fill="#3333CC" transform="matrix(1.00, 0.00, -0.00, -1.00, 402.3, 243.0)">c</text><text xml:space="preserve" font-family="Helvetica" font-size="22.0" fill="#3333CC" transform="matrix(1.00, 0.00, -0.00, -1.00, 413.3, 243.0)">i</text><text xml:space="preserve" font-family="Helvetica" font-size="22.0" fill="#3333CC" transform="matrix(1.00, 0.00, -0.00, -1.00, 418.2, 243.0)">a</text><text xml:space="preserve" font-family="Helvetica" font-size="22.0" fill="#3333CC" transform="matrix(1.00, 0.00, -0.00, -1.00, 430.4, 243.0)">.</text><text xml:space="preserve" font-family="Helvetica" font-size="22.0" fill="#FF3300" transform="matrix(1.00, 0.00, -0.00, -1.00, 285.6, 211.6)">•</text><text xml:space="preserve" font-family="Helvetica" font-size="22.0" fill="#FF3300" transform="matrix(1.00, 0.00, -0.00, -1.00, 313.0, 212.0)">W</text><text xml:space="preserve" font-family="Helvetica" font-size="22.0" fill="#FF3300" transform="matrix(1.00, 0.00, -0.00, -1.00, 333.0, 212.0)">A</text><text xml:space="preserve" font-family="Helvetica" font-size="22.0" fill="#FF3300" transform="matrix(1.00, 0.00, -0.00, -1.00, 347.6, 212.0)">M</text><text xml:space="preserve" font-family="Helvetica" font-size="22.0" fill="#FF3300" transform="matrix(1.00, 0.00, -0.00, -1.00, 366.0, 212.0)"> </text><text xml:space="preserve" font-family="Helvetica" font-size="22.0" fill="#FF3300" transform="matrix(1.00, 0.00, -0.00, -1.00, 372.1, 212.0)">s</text><text xml:space="preserve" font-family="Helvetica" font-size="22.0" fill="#FF3300" transform="matrix(1.00, 0.00, -0.00, -1.00, 383.1, 212.0)">i</text><text xml:space="preserve" font-family="Helvetica" font-size="22.0" fill="#FF3300" transform="matrix(1.00, 0.00, -0.00, -1.00, 388.0, 212.0)">m</text><text xml:space="preserve" font-family="Helvetica" font-size="22.0" fill="#FF3300" transform="matrix(1.00, 0.00, -0.00, -1.00, 406.3, 212.0)">p</text><text xml:space="preserve" font-family="Helvetica" font-size="22.0" fill="#FF3300" transform="matrix(1.00, 0.00, -0.00, -1.00, 418.5, 212.0)">l</text><text xml:space="preserve" font-family="Helvetica" font-size="22.0" fill="#FF3300" transform="matrix(1.00, 0.00, -0.00, -1.00, 423.4, 212.0)">i</text><text xml:space="preserve" font-family="Helvetica" font-size="22.0" fill="#FF3300" transform="matrix(1.00, 0.00, -0.00, -1.00, 428.3, 212.0)">f</text><text xml:space="preserve" font-family="Helvetica" font-size="22.0" fill="#FF3300" transform="matrix(1.00, 0.00, -0.00, -1.00, 434.4, 212.0)">i</text><text xml:space="preserve" font-family="Helvetica" font-size="22.0" fill="#FF3300" transform="matrix(1.00, 0.00, -0.00, -1.00, 439.3, 212.0)">c</text><text xml:space="preserve" font-family="Helvetica" font-size="22.0" fill="#FF3300" transform="matrix(1.00, 0.00, -0.00, -1.00, 450.3, 212.0)">a</text><text xml:space="preserve" font-family="Helvetica" font-size="22.0" fill="#FF3300" transform="matrix(1.00, 0.00, -0.00, -1.00, 462.5, 212.0)"> </text><text xml:space="preserve" font-family="Helvetica" font-size="22.0" fill="#FF3300" transform="matrix(1.00, 0.00, -0.00, -1.00, 468.7, 212.0)">e</text><text xml:space="preserve" font-family="Helvetica" font-size="22.0" fill="#FF3300" transform="matrix(1.00, 0.00, -0.00, -1.00, 480.9, 212.0)">l</text><text xml:space="preserve" font-family="Helvetica" font-size="22.0" fill="#FF3300" transform="matrix(1.00, 0.00, -0.00, -1.00, 485.8, 212.0)"> </text><text xml:space="preserve" font-family="Helvetica" font-size="22.0" fill="#FF3300" transform="matrix(1.00, 0.00, -0.00, -1.00, 491.9, 212.0)">d</text><text xml:space="preserve" font-family="Helvetica" font-size="22.0" fill="#FF3300" transform="matrix(1.00, 0.00, -0.00, -1.00, 504.1, 212.0)">e</text><text xml:space="preserve" font-family="Helvetica" font-size="22.0" fill="#FF3300" transform="matrix(1.00, 0.00, -0.00, -1.00, 516.4, 212.0)">s</text><text xml:space="preserve" font-family="Helvetica" font-size="22.0" fill="#FF3300" transform="matrix(1.00, 0.00, -0.00, -1.00, 527.4, 212.0)">a</text><text xml:space="preserve" font-family="Helvetica" font-size="22.0" fill="#FF3300" transform="matrix(1.00, 0.00, -0.00, -1.00, 539.6, 212.0)">r</text><text xml:space="preserve" font-family="Helvetica" font-size="22.0" fill="#FF3300" transform="matrix(1.00, 0.00, -0.00, -1.00, 546.9, 212.0)">r</text><text xml:space="preserve" font-family="Helvetica" font-size="22.0" fill="#FF3300" transform="matrix(1.00, 0.00, -0.00, -1.00, 554.3, 212.0)">o</text><text xml:space="preserve" font-family="Helvetica" font-size="22.0" fill="#FF3300" transform="matrix(1.00, 0.00, -0.00, -1.00, 566.5, 212.0)">l</text><text xml:space="preserve" font-family="Helvetica" font-size="22.0" fill="#FF3300" transform="matrix(1.00, 0.00, -0.00, -1.00, 571.4, 212.0)">l</text><text xml:space="preserve" font-family="Helvetica" font-size="22.0" fill="#FF3300" transform="matrix(1.00, 0.00, -0.00, -1.00, 576.3, 212.0)">o</text><text xml:space="preserve" font-family="Helvetica" font-size="22.0" fill="#FF3300" transform="matrix(1.00, 0.00, -0.00, -1.00, 588.5, 212.0)"> </text><text xml:space="preserve" font-family="Helvetica" font-size="22.0" fill="#FF3300" transform="matrix(1.00, 0.00, -0.00, -1.00, 594.6, 212.0)">d</text><text xml:space="preserve" font-family="Helvetica" font-size="22.0" fill="#FF3300" transform="matrix(1.00, 0.00, -0.00, -1.00, 606.9, 212.0)">e</text><text xml:space="preserve" font-family="Helvetica" font-size="22.0" fill="#FF3300" transform="matrix(1.00, 0.00, -0.00, -1.00, 619.1, 212.0)"> </text><text xml:space="preserve" font-family="Helvetica" font-size="22.0" fill="#FF3300" transform="matrix(1.00, 0.00, -0.00, -1.00, 625.2, 212.0)">l</text><text xml:space="preserve" font-family="Helvetica" font-size="22.0" fill="#FF3300" transform="matrix(1.00, 0.00, -0.00, -1.00, 630.1, 212.0)">a</text><text xml:space="preserve" font-family="Helvetica" font-size="22.0" fill="#FF3300" transform="matrix(1.00, 0.00, -0.00, -1.00, 642.4, 212.0)"> </text><text xml:space="preserve" font-family="Helvetica" font-size="22.0" fill="#FF3300" transform="matrix(1.00, 0.00, -0.00, -1.00, 313.0, 186.0)">c</text><text xml:space="preserve" font-family="Helvetica" font-size="22.0" fill="#FF3300" transform="matrix(1.00, 0.00, -0.00, -1.00, 324.0, 186.0)">a</text><text xml:space="preserve" font-family="Helvetica" font-size="22.0" fill="#FF3300" transform="matrix(1.00, 0.00, -0.00, -1.00, 336.2, 186.0)">p</text><text xml:space="preserve" font-family="Helvetica" font-size="22.0" fill="#FF3300" transform="matrix(1.00, 0.00, -0.00, -1.00, 348.5, 186.0)">a</text><text xml:space="preserve" font-family="Helvetica" font-size="22.0" fill="#FF3300" transform="matrix(1.00, 0.00, -0.00, -1.00, 360.7, 186.0)"> </text><text xml:space="preserve" font-family="Helvetica" font-size="22.0" fill="#FF3300" transform="matrix(1.00, 0.00, -0.00, -1.00, 366.8, 186.0)">d</text><text xml:space="preserve" font-family="Helvetica" font-size="22.0" fill="#FF3300" transform="matrix(1.00, 0.00, -0.00, -1.00, 379.1, 186.0)">e</text><text xml:space="preserve" font-family="Helvetica" font-size="22.0" fill="#FF3300" transform="matrix(1.00, 0.00, -0.00, -1.00, 391.3, 186.0)"> </text><text xml:space="preserve" font-family="Helvetica" font-size="22.0" fill="#FF3300" transform="matrix(1.00, 0.00, -0.00, -1.00, 397.4, 186.0)">p</text><text xml:space="preserve" font-family="Helvetica" font-size="22.0" fill="#FF3300" transform="matrix(1.00, 0.00, -0.00, -1.00, 409.7, 186.0)">r</text><text xml:space="preserve" font-family="Helvetica" font-size="22.0" fill="#FF3300" transform="matrix(1.00, 0.00, -0.00, -1.00, 417.0, 186.0)">e</text><text xml:space="preserve" font-family="Helvetica" font-size="22.0" fill="#FF3300" transform="matrix(1.00, 0.00, -0.00, -1.00, 429.2, 186.0)">s</text><text xml:space="preserve" font-family="Helvetica" font-size="22.0" fill="#FF3300" transform="matrix(1.00, 0.00, -0.00, -1.00, 440.2, 186.0)">e</text><text xml:space="preserve" font-family="Helvetica" font-size="22.0" fill="#FF3300" transform="matrix(1.00, 0.00, -0.00, -1.00, 452.5, 186.0)">n</text><text xml:space="preserve" font-family="Helvetica" font-size="22.0" fill="#FF3300" transform="matrix(1.00, 0.00, -0.00, -1.00, 464.7, 186.0)">t</text><text xml:space="preserve" font-family="Helvetica" font-size="22.0" fill="#FF3300" transform="matrix(1.00, 0.00, -0.00, -1.00, 470.8, 186.0)">a</text><text xml:space="preserve" font-family="Helvetica" font-size="22.0" fill="#FF3300" transform="matrix(1.00, 0.00, -0.00, -1.00, 483.0, 186.0)">c</text><text xml:space="preserve" font-family="Helvetica" font-size="22.0" fill="#FF3300" transform="matrix(1.00, 0.00, -0.00, -1.00, 494.0, 186.0)">i</text><text xml:space="preserve" font-family="Helvetica" font-size="22.0" fill="#FF3300" transform="matrix(1.00, 0.00, -0.00, -1.00, 498.9, 186.0)">ó</text><text xml:space="preserve" font-family="Helvetica" font-size="22.0" fill="#FF3300" transform="matrix(1.00, 0.00, -0.00, -1.00, 511.2, 186.0)">n</text><text xml:space="preserve" font-family="Helvetica" font-size="22.0" fill="#FF3300" transform="matrix(1.00, 0.00, -0.00, -1.00, 523.4, 186.0)">:</text><text xml:space="preserve" font-family="Helvetica" font-size="18.0" fill="#3333CC" transform="matrix(1.00, 0.00, -0.00, -1.00, 321.6, 162.7)">–</text><text xml:space="preserve" font-family="Helvetica" font-size="18.0" fill="#3333CC" transform="matrix(1.00, 0.00, -0.00, -1.00, 344.0, 163.0)">C</text><text xml:space="preserve" font-family="Helvetica" font-size="18.0" fill="#3333CC" transform="matrix(1.00, 0.00, -0.00, -1.00, 357.0, 163.0)">o</text><text xml:space="preserve" font-family="Helvetica" font-size="18.0" fill="#3333CC" transform="matrix(1.00, 0.00, -0.00, -1.00, 367.0, 163.0)">m</text><text xml:space="preserve" font-family="Helvetica" font-size="18.0" fill="#3333CC" transform="matrix(1.00, 0.00, -0.00, -1.00, 382.0, 163.0)">p</text><text xml:space="preserve" font-family="Helvetica" font-size="18.0" fill="#3333CC" transform="matrix(1.00, 0.00, -0.00, -1.00, 392.0, 163.0)">o</text><text xml:space="preserve" font-family="Helvetica" font-size="18.0" fill="#3333CC" transform="matrix(1.00, 0.00, -0.00, -1.00, 402.0, 163.0)">s</text><text xml:space="preserve" font-family="Helvetica" font-size="18.0" fill="#3333CC" transform="matrix(1.00, 0.00, -0.00, -1.00, 411.0, 163.0)">i</text><text xml:space="preserve" font-family="Helvetica" font-size="18.0" fill="#3333CC" transform="matrix(1.00, 0.00, -0.00, -1.00, 415.0, 163.0)">c</text><text xml:space="preserve" font-family="Helvetica" font-size="18.0" fill="#3333CC" transform="matrix(1.00, 0.00, -0.00, -1.00, 424.0, 163.0)">i</text><text xml:space="preserve" font-family="Helvetica" font-size="18.0" fill="#3333CC" transform="matrix(1.00, 0.00, -0.00, -1.00, 428.0, 163.0)">ó</text><text xml:space="preserve" font-family="Helvetica" font-size="18.0" fill="#3333CC" transform="matrix(1.00, 0.00, -0.00, -1.00, 438.1, 163.0)">n</text><text xml:space="preserve" font-family="Helvetica" font-size="18.0" fill="#3333CC" transform="matrix(1.00, 0.00, -0.00, -1.00, 448.1, 163.0)"> </text><text xml:space="preserve" font-family="Helvetica" font-size="18.0" fill="#3333CC" transform="matrix(1.00, 0.00, -0.00, -1.00, 453.1, 163.0)">v</text><text xml:space="preserve" font-family="Helvetica" font-size="18.0" fill="#3333CC" transform="matrix(1.00, 0.00, -0.00, -1.00, 462.1, 163.0)">i</text><text xml:space="preserve" font-family="Helvetica" font-size="18.0" fill="#3333CC" transform="matrix(1.00, 0.00, -0.00, -1.00, 466.1, 163.0)">s</text><text xml:space="preserve" font-family="Helvetica" font-size="18.0" fill="#3333CC" transform="matrix(1.00, 0.00, -0.00, -1.00, 475.1, 163.0)">u</text><text xml:space="preserve" font-family="Helvetica" font-size="18.0" fill="#3333CC" transform="matrix(1.00, 0.00, -0.00, -1.00, 485.1, 163.0)">a</text><text xml:space="preserve" font-family="Helvetica" font-size="18.0" fill="#3333CC" transform="matrix(1.00, 0.00, -0.00, -1.00, 495.1, 163.0)">l</text><text xml:space="preserve" font-family="Helvetica" font-size="18.0" fill="#3333CC" transform="matrix(1.00, 0.00, -0.00, -1.00, 499.1, 163.0)">.</text><text xml:space="preserve" font-family="Helvetica" font-size="18.0" fill="#3333CC" transform="matrix(1.00, 0.00, -0.00, -1.00, 321.6, 140.7)">–</text><text xml:space="preserve" font-family="Helvetica" font-size="18.0" fill="#3333CC" transform="matrix(1.00, 0.00, -0.00, -1.00, 344.0, 141.0)">N</text><text xml:space="preserve" font-family="Helvetica" font-size="18.0" fill="#3333CC" transform="matrix(1.00, 0.00, -0.00, -1.00, 357.0, 141.0)">a</text><text xml:space="preserve" font-family="Helvetica" font-size="18.0" fill="#3333CC" transform="matrix(1.00, 0.00, -0.00, -1.00, 367.0, 141.0)">v</text><text xml:space="preserve" font-family="Helvetica" font-size="18.0" fill="#3333CC" transform="matrix(1.00, 0.00, -0.00, -1.00, 376.0, 141.0)">e</text><text xml:space="preserve" font-family="Helvetica" font-size="18.0" fill="#3333CC" transform="matrix(1.00, 0.00, -0.00, -1.00, 386.0, 141.0)">g</text><text xml:space="preserve" font-family="Helvetica" font-size="18.0" fill="#3333CC" transform="matrix(1.00, 0.00, -0.00, -1.00, 396.0, 141.0)">a</text><text xml:space="preserve" font-family="Helvetica" font-size="18.0" fill="#3333CC" transform="matrix(1.00, 0.00, -0.00, -1.00, 406.1, 141.0)">c</text><text xml:space="preserve" font-family="Helvetica" font-size="18.0" fill="#3333CC" transform="matrix(1.00, 0.00, -0.00, -1.00, 415.1, 141.0)">i</text><text xml:space="preserve" font-family="Helvetica" font-size="18.0" fill="#3333CC" transform="matrix(1.00, 0.00, -0.00, -1.00, 419.1, 141.0)">ó</text><text xml:space="preserve" font-family="Helvetica" font-size="18.0" fill="#3333CC" transform="matrix(1.00, 0.00, -0.00, -1.00, 429.1, 141.0)">n</text><text xml:space="preserve" font-family="Helvetica" font-size="18.0" fill="#3333CC" transform="matrix(1.00, 0.00, -0.00, -1.00, 439.1, 141.0)">.</text><text xml:space="preserve" font-family="Helvetica" font-size="18.0" fill="#3333CC" transform="matrix(1.00, 0.00, -0.00, -1.00, 321.6, 118.7)">–</text><text xml:space="preserve" font-family="Helvetica" font-size="18.0" fill="#3333CC" transform="matrix(1.00, 0.00, -0.00, -1.00, 344.0, 119.0)">E</text><text xml:space="preserve" font-family="Helvetica" font-size="18.0" fill="#3333CC" transform="matrix(1.00, 0.00, -0.00, -1.00, 356.0, 119.0)">n</text><text xml:space="preserve" font-family="Helvetica" font-size="18.0" fill="#3333CC" transform="matrix(1.00, 0.00, -0.00, -1.00, 366.0, 119.0)">l</text><text xml:space="preserve" font-family="Helvetica" font-size="18.0" fill="#3333CC" transform="matrix(1.00, 0.00, -0.00, -1.00, 370.0, 119.0)">a</text><text xml:space="preserve" font-family="Helvetica" font-size="18.0" fill="#3333CC" transform="matrix(1.00, 0.00, -0.00, -1.00, 380.0, 119.0)">c</text><text xml:space="preserve" font-family="Helvetica" font-size="18.0" fill="#3333CC" transform="matrix(1.00, 0.00, -0.00, -1.00, 389.0, 119.0)">e</text><text xml:space="preserve" font-family="Helvetica" font-size="18.0" fill="#3333CC" transform="matrix(1.00, 0.00, -0.00, -1.00, 399.1, 119.0)"> </text><text xml:space="preserve" font-family="Helvetica" font-size="18.0" fill="#3333CC" transform="matrix(1.00, 0.00, -0.00, -1.00, 404.0, 119.0)">a</text><text xml:space="preserve" font-family="Helvetica" font-size="18.0" fill="#3333CC" transform="matrix(1.00, 0.00, -0.00, -1.00, 414.1, 119.0)"> </text><text xml:space="preserve" font-family="Helvetica" font-size="18.0" fill="#3333CC" transform="matrix(1.00, 0.00, -0.00, -1.00, 419.1, 119.0)">d</text><text xml:space="preserve" font-family="Helvetica" font-size="18.0" fill="#3333CC" transform="matrix(1.00, 0.00, -0.00, -1.00, 429.1, 119.0)">a</text><text xml:space="preserve" font-family="Helvetica" font-size="18.0" fill="#3333CC" transform="matrix(1.00, 0.00, -0.00, -1.00, 439.1, 119.0)">t</text><text xml:space="preserve" font-family="Helvetica" font-size="18.0" fill="#3333CC" transform="matrix(1.00, 0.00, -0.00, -1.00, 444.1, 119.0)">o</text><text xml:space="preserve" font-family="Helvetica" font-size="18.0" fill="#3333CC" transform="matrix(1.00, 0.00, -0.00, -1.00, 454.1, 119.0)">s</text><text xml:space="preserve" font-family="Helvetica" font-size="18.0" fill="#3333CC" transform="matrix(1.00, 0.00, -0.00, -1.00, 463.1, 119.0)"> </text><text xml:space="preserve" font-family="Helvetica" font-size="18.0" fill="#3333CC" transform="matrix(1.00, 0.00, -0.00, -1.00, 468.1, 119.0)">d</text><text xml:space="preserve" font-family="Helvetica" font-size="18.0" fill="#3333CC" transform="matrix(1.00, 0.00, -0.00, -1.00, 478.1, 119.0)">e</text><text xml:space="preserve" font-family="Helvetica" font-size="18.0" fill="#3333CC" transform="matrix(1.00, 0.00, -0.00, -1.00, 488.1, 119.0)"> </text><text xml:space="preserve" font-family="Helvetica" font-size="18.0" fill="#3333CC" transform="matrix(1.00, 0.00, -0.00, -1.00, 493.1, 119.0)">n</text><text xml:space="preserve" font-family="Helvetica" font-size="18.0" fill="#3333CC" transform="matrix(1.00, 0.00, -0.00, -1.00, 503.1, 119.0)">e</text><text xml:space="preserve" font-family="Helvetica" font-size="18.0" fill="#3333CC" transform="matrix(1.00, 0.00, -0.00, -1.00, 513.2, 119.0)">g</text><text xml:space="preserve" font-family="Helvetica" font-size="18.0" fill="#3333CC" transform="matrix(1.00, 0.00, -0.00, -1.00, 523.2, 119.0)">o</text><text xml:space="preserve" font-family="Helvetica" font-size="18.0" fill="#3333CC" transform="matrix(1.00, 0.00, -0.00, -1.00, 533.2, 119.0)">c</text><text xml:space="preserve" font-family="Helvetica" font-size="18.0" fill="#3333CC" transform="matrix(1.00, 0.00, -0.00, -1.00, 542.2, 119.0)">i</text><text xml:space="preserve" font-family="Helvetica" font-size="18.0" fill="#3333CC" transform="matrix(1.00, 0.00, -0.00, -1.00, 546.2, 119.0)">o</text><text xml:space="preserve" font-family="Helvetica" font-size="18.0" fill="#3333CC" transform="matrix(1.00, 0.00, -0.00, -1.00, 556.2, 119.0)">.</text><g><clipPath id="clip-287"><path d="M 106.6 58.6 L 216.4 58.6 L 216.4 150.4 L 106.6 150.4 Z M 106.6 58.6 "></path></clipPath><g clip-path="url(#clip-287)"><image xlink:href="CE2AEEE01CB66F9879FC3B5B15089173.png" width="107.00" height="89.00" transform="matrix(1.00, 0.00, -0.00, -1.00, 108.6, 149.4)"></image><path d="M 156.0 138.0 C 129.5 138.0 108.0 133.6 108.0 128.2 L 108.0 69.8 C 108.0 64.4 129.5 60.0 156.0 60.0 C 182.5 60.0 204.0 64.4 204.0 69.8 L 204.0 128.2 C 204.0 133.6 182.5 138.0 156.0 138.0 Z M 156.0 138.0 " fill="#FFFF99"></path><path d="M 48.0 0.0 C 21.5 0.0 0.0 4.4 0.0 9.8 L 0.0 68.2 C 0.0 73.6 21.5 78.0 48.0 78.0 C 74.5 78.0 96.0 73.6 96.0 68.2 L 96.0 9.8 C 96.0 4.4 74.5 0.0 48.0 0.0 Z M 48.0 0.0 " fill="none" stroke="#000000" stroke-width="0.75" stroke-linejoin="round" transform="matrix(1.00, 0.00, 0.00, -1.00, 108.0, 138.0)"></path></g></g><g><clipPath id="clip-288"><path d="M 107.0 117.5 L 205.0 117.5 L 205.0 139.0 L 107.0 139.0 Z M 107.0 117.5 "></path></clipPath><g clip-path="url(#clip-288)"><path d="M 156.0 138.0 C 129.5 138.0 108.0 133.6 108.0 128.2 C 108.0 122.9 129.5 118.5 156.0 118.5 C 182.5 118.5 204.0 122.9 204.0 128.2 C 204.0 133.6 182.5 138.0 156.0 138.0 Z M 156.0 138.0 " fill="#FFFFAD"></path></g></g><g><clipPath id="clip-289"><path d="M 106.6 117.1 L 205.4 117.1 L 205.4 129.2 L 106.6 129.2 Z M 106.6 117.1 "></path></clipPath><g clip-path="url(#clip-289)"><path d="M 0.0 0.0 C 0.0 5.4 21.5 9.8 48.0 9.8 C 74.5 9.8 96.0 5.4 96.0 0.0 " fill="none" stroke="#000000" stroke-width="0.75" stroke-linejoin="round" transform="matrix(1.00, 0.00, 0.00, -1.00, 108.0, 128.2)"></path></g></g><g><clipPath id="clip-290"><path d="M 111.0 70.8 L 201.0 70.8 L 201.0 111.0 L 111.0 111.0 Z M 111.0 70.8 "></path></clipPath><g clip-path="url(#clip-290)"><text xml:space="preserve" font-family="TimesNewRomanPS-BoldMT" font-weight="bold" font-size="24.0" fill="#000000" transform="matrix(1.00, 0.00, -0.00, -1.00, 118.0, 84.0)">B</text><text xml:space="preserve" font-family="TimesNewRomanPS-BoldMT" font-weight="bold" font-size="24.0" fill="#000000" transform="matrix(1.00, 0.00, -0.00, -1.00, 134.0, 84.0)">B</text><text xml:space="preserve" font-family="TimesNewRomanPS-BoldMT" font-weight="bold" font-size="24.0" fill="#000000" transform="matrix(1.00, 0.00, -0.00, -1.00, 150.0, 84.0)">D</text><text xml:space="preserve" font-family="TimesNewRomanPS-BoldMT" font-weight="bold" font-size="24.0" fill="#000000" transform="matrix(1.00, 0.00, -0.00, -1.00, 167.4, 84.0)">D</text></g></g><g><clipPath id="clip-291"><path d="M 24.0 408.0 L 276.0 408.0 L 276.0 288.0 L 24.0 288.0 Z M 24.0 408.0 "></path></clipPath><g clip-path="url(#clip-291)"><path d="M 24.0 288.0 L 276.0 288.0 L 276.0 408.0 L 24.0 408.0 Z M 24.0 288.0 " fill="url(#49EE648C-8603-4F27-B955-EDAEE2BE7472)"></path></g></g><path d="M 0.0 0.0 L 252.0 0.0 L 252.0 120.0 L 0.0 120.0 Z M 0.0 0.0 " fill="none" stroke="#000000" stroke-width="0.75" stroke-linejoin="round" stroke-dasharray="3.0, 2.2" transform="matrix(1.00, 0.00, 0.00, -1.00, 24.0, 408.0)"></path><path d="M 0.0 0.0 L 252.0 0.0 L 252.0 102.0 L 0.0 102.0 Z M 0.0 0.0 " fill="none" stroke="#000000" stroke-width="0.75" stroke-linejoin="round" stroke-dasharray="3.0, 2.2" transform="matrix(1.00, 0.00, 0.00, -1.00, 24.0, 282.0)"></path><path d="M 0.0 0.0 L 252.0 0.0 L 252.0 126.0 L 0.0 126.0 Z M 0.0 0.0 " fill="none" stroke="#000000" stroke-width="0.75" stroke-linejoin="round" stroke-dasharray="3.0, 2.2" transform="matrix(1.00, 0.00, 0.00, -1.00, 24.0, 174.0)"></path><text xml:space="preserve" font-family="TimesNewRomanPS-BoldMT" font-weight="bold" font-size="20.0" fill="#000000" transform="matrix(-0.00, 1.00, 1.00, 0.00, 45.6, 286.0)">P</text><text xml:space="preserve" font-family="TimesNewRomanPS-BoldMT" font-weight="bold" font-size="20.0" fill="#000000" transform="matrix(-0.00, 1.00, 1.00, 0.00, 45.6, 298.2)">r</text><text xml:space="preserve" font-family="TimesNewRomanPS-BoldMT" font-weight="bold" font-size="20.0" fill="#000000" transform="matrix(-0.00, 1.00, 1.00, 0.00, 45.6, 306.7)">e</text><text xml:space="preserve" font-family="TimesNewRomanPS-BoldMT" font-weight="bold" font-size="20.0" fill="#000000" transform="matrix(-0.00, 1.00, 1.00, 0.00, 45.5, 315.6)">s</text><text xml:space="preserve" font-family="TimesNewRomanPS-BoldMT" font-weight="bold" font-size="20.0" fill="#000000" transform="matrix(-0.00, 1.00, 1.00, 0.00, 45.5, 323.4)">e</text><text xml:space="preserve" font-family="TimesNewRomanPS-BoldMT" font-weight="bold" font-size="20.0" fill="#000000" transform="matrix(-0.00, 1.00, 1.00, 0.00, 45.5, 332.3)">n</text><text xml:space="preserve" font-family="TimesNewRomanPS-BoldMT" font-weight="bold" font-size="20.0" fill="#000000" transform="matrix(-0.00, 1.00, 1.00, 0.00, 45.4, 343.4)">t</text><text xml:space="preserve" font-family="TimesNewRomanPS-BoldMT" font-weight="bold" font-size="20.0" fill="#000000" transform="matrix(-0.00, 1.00, 1.00, 0.00, 45.4, 350.0)">a</text><text xml:space="preserve" font-family="TimesNewRomanPS-BoldMT" font-weight="bold" font-size="20.0" fill="#000000" transform="matrix(-0.00, 1.00, 1.00, 0.00, 45.4, 360.0)">c</text><text xml:space="preserve" font-family="TimesNewRomanPS-BoldMT" font-weight="bold" font-size="20.0" fill="#000000" transform="matrix(-0.00, 1.00, 1.00, 0.00, 45.4, 368.9)">i</text><text xml:space="preserve" font-family="TimesNewRomanPS-BoldMT" font-weight="bold" font-size="20.0" fill="#000000" transform="matrix(-0.00, 1.00, 1.00, 0.00, 45.3, 374.5)">ó</text><text xml:space="preserve" font-family="TimesNewRomanPS-BoldMT" font-weight="bold" font-size="20.0" fill="#000000" transform="matrix(-0.00, 1.00, 1.00, 0.00, 45.3, 384.5)">n</text><text xml:space="preserve" font-family="TimesNewRomanPS-BoldMT" font-weight="bold" font-size="20.0" fill="#000000" transform="matrix(-0.00, 1.00, 1.00, 0.00, 45.5, 191.3)">N</text><text xml:space="preserve" font-family="TimesNewRomanPS-BoldMT" font-weight="bold" font-size="20.0" fill="#000000" transform="matrix(-0.00, 1.00, 1.00, 0.00, 45.5, 205.7)">e</text><text xml:space="preserve" font-family="TimesNewRomanPS-BoldMT" font-weight="bold" font-size="20.0" fill="#000000" transform="matrix(-0.00, 1.00, 1.00, 0.00, 45.5, 214.6)">g</text><text xml:space="preserve" font-family="TimesNewRomanPS-BoldMT" font-weight="bold" font-size="20.0" fill="#000000" transform="matrix(-0.00, 1.00, 1.00, 0.00, 45.4, 224.6)">o</text><text xml:space="preserve" font-family="TimesNewRomanPS-BoldMT" font-weight="bold" font-size="20.0" fill="#000000" transform="matrix(-0.00, 1.00, 1.00, 0.00, 45.4, 234.6)">c</text><text xml:space="preserve" font-family="TimesNewRomanPS-BoldMT" font-weight="bold" font-size="20.0" fill="#000000" transform="matrix(-0.00, 1.00, 1.00, 0.00, 45.4, 243.5)">i</text><text xml:space="preserve" font-family="TimesNewRomanPS-BoldMT" font-weight="bold" font-size="20.0" fill="#000000" transform="matrix(-0.00, 1.00, 1.00, 0.00, 45.3, 249.0)">o</text><text xml:space="preserve" font-family="TimesNewRomanPS-BoldMT" font-weight="bold" font-size="20.0" fill="#000000" transform="matrix(-0.00, 1.00, 1.00, 0.00, 45.6, 51.1)">P</text><text xml:space="preserve" font-family="TimesNewRomanPS-BoldMT" font-weight="bold" font-size="20.0" fill="#000000" transform="matrix(-0.00, 1.00, 1.00, 0.00, 45.5, 63.3)">e</text><text xml:space="preserve" font-family="TimesNewRomanPS-BoldMT" font-weight="bold" font-size="20.0" fill="#000000" transform="matrix(-0.00, 1.00, 1.00, 0.00, 45.5, 72.2)">r</text><text xml:space="preserve" font-family="TimesNewRomanPS-BoldMT" font-weight="bold" font-size="20.0" fill="#000000" transform="matrix(-0.00, 1.00, 1.00, 0.00, 45.5, 81.1)">s</text><text xml:space="preserve" font-family="TimesNewRomanPS-BoldMT" font-weight="bold" font-size="20.0" fill="#000000" transform="matrix(-0.00, 1.00, 1.00, 0.00, 45.5, 88.9)">i</text><text xml:space="preserve" font-family="TimesNewRomanPS-BoldMT" font-weight="bold" font-size="20.0" fill="#000000" transform="matrix(-0.00, 1.00, 1.00, 0.00, 45.4, 94.4)">s</text><text xml:space="preserve" font-family="TimesNewRomanPS-BoldMT" font-weight="bold" font-size="20.0" fill="#000000" transform="matrix(-0.00, 1.00, 1.00, 0.00, 45.4, 102.2)">t</text><text xml:space="preserve" font-family="TimesNewRomanPS-BoldMT" font-weight="bold" font-size="20.0" fill="#000000" transform="matrix(-0.00, 1.00, 1.00, 0.00, 45.4, 108.9)">e</text><text xml:space="preserve" font-family="TimesNewRomanPS-BoldMT" font-weight="bold" font-size="20.0" fill="#000000" transform="matrix(-0.00, 1.00, 1.00, 0.00, 45.4, 117.7)">n</text><text xml:space="preserve" font-family="TimesNewRomanPS-BoldMT" font-weight="bold" font-size="20.0" fill="#000000" transform="matrix(-0.00, 1.00, 1.00, 0.00, 45.3, 128.9)">c</text><text xml:space="preserve" font-family="TimesNewRomanPS-BoldMT" font-weight="bold" font-size="20.0" fill="#000000" transform="matrix(-0.00, 1.00, 1.00, 0.00, 45.3, 137.7)">i</text><text xml:space="preserve" font-family="TimesNewRomanPS-BoldMT" font-weight="bold" font-size="20.0" fill="#000000" transform="matrix(-0.00, 1.00, 1.00, 0.00, 45.3, 143.3)">a</text><path d="M 78.0 384.0 L 228.0 384.0 L 228.0 330.9 L 78.0 330.9 Z M 78.0 384.0 " fill="#00CC99"></path><path d="M 0.0 0.0 L 150.0 0.0 L 150.0 53.1 L 0.0 53.1 Z M 0.0 0.0 " fill="none" stroke="#000000" stroke-width="0.75" stroke-linejoin="round" transform="matrix(1.00, 0.00, 0.00, -1.00, 78.0, 384.0)"></path><g><clipPath id="clip-292"><path d="M 76.4 328.5 L 229.6 328.5 L 229.6 385.6 L 76.4 385.6 Z M 76.4 328.5 "></path></clipPath><g clip-path="url(#clip-292)"><text xml:space="preserve" font-family="TimesNewRomanPS-BoldMT" font-weight="bold" font-size="20.0" fill="#000000" transform="matrix(1.00, 0.00, -0.00, -1.00, 122.0, 362.0)">C</text><text xml:space="preserve" font-family="TimesNewRomanPS-BoldMT" font-weight="bold" font-size="20.0" fill="#000000" transform="matrix(1.00, 0.00, -0.00, -1.00, 136.4, 362.0)">l</text><text xml:space="preserve" font-family="TimesNewRomanPS-BoldMT" font-weight="bold" font-size="20.0" fill="#000000" transform="matrix(1.00, 0.00, -0.00, -1.00, 142.0, 362.0)">i</text><text xml:space="preserve" font-family="TimesNewRomanPS-BoldMT" font-weight="bold" font-size="20.0" fill="#000000" transform="matrix(1.00, 0.00, -0.00, -1.00, 147.6, 362.0)">e</text><text xml:space="preserve" font-family="TimesNewRomanPS-BoldMT" font-weight="bold" font-size="20.0" fill="#000000" transform="matrix(1.00, 0.00, -0.00, -1.00, 156.4, 362.0)">n</text><text xml:space="preserve" font-family="TimesNewRomanPS-BoldMT" font-weight="bold" font-size="20.0" fill="#000000" transform="matrix(1.00, 0.00, -0.00, -1.00, 167.6, 362.0)">t</text><text xml:space="preserve" font-family="TimesNewRomanPS-BoldMT" font-weight="bold" font-size="20.0" fill="#000000" transform="matrix(1.00, 0.00, -0.00, -1.00, 174.2, 362.0)">e</text><text xml:space="preserve" font-family="TimesNewRomanPS-BoldMT" font-weight="bold" font-size="20.0" fill="#000000" transform="matrix(1.00, 0.00, -0.00, -1.00, 183.1, 362.0)"> </text><text xml:space="preserve" font-family="TimesNewRomanPS-BoldMT" font-weight="bold" font-size="20.0" fill="#000000" transform="matrix(1.00, 0.00, -0.00, -1.00, 110.0, 339.0)">(</text><text xml:space="preserve" font-family="TimesNewRomanPS-BoldMT" font-weight="bold" font-size="20.0" fill="#000000" transform="matrix(1.00, 0.00, -0.00, -1.00, 116.7, 339.0)">B</text><text xml:space="preserve" font-family="TimesNewRomanPS-BoldMT" font-weight="bold" font-size="20.0" fill="#000000" transform="matrix(1.00, 0.00, -0.00, -1.00, 130.0, 339.0)">r</text><text xml:space="preserve" font-family="TimesNewRomanPS-BoldMT" font-weight="bold" font-size="20.0" fill="#000000" transform="matrix(1.00, 0.00, -0.00, -1.00, 138.5, 339.0)">o</text><text xml:space="preserve" font-family="TimesNewRomanPS-BoldMT" font-weight="bold" font-size="20.0" fill="#000000" transform="matrix(1.00, 0.00, -0.00, -1.00, 148.5, 339.0)">w</text><text xml:space="preserve" font-family="TimesNewRomanPS-BoldMT" font-weight="bold" font-size="20.0" fill="#000000" transform="matrix(1.00, 0.00, -0.00, -1.00, 163.0, 339.0)">s</text><text xml:space="preserve" font-family="TimesNewRomanPS-BoldMT" font-weight="bold" font-size="20.0" fill="#000000" transform="matrix(1.00, 0.00, -0.00, -1.00, 170.7, 339.0)">e</text><text xml:space="preserve" font-family="TimesNewRomanPS-BoldMT" font-weight="bold" font-size="20.0" fill="#000000" transform="matrix(1.00, 0.00, -0.00, -1.00, 179.6, 339.0)">r</text><text xml:space="preserve" font-family="TimesNewRomanPS-BoldMT" font-weight="bold" font-size="20.0" fill="#000000" transform="matrix(1.00, 0.00, -0.00, -1.00, 188.5, 339.0)">)</text></g></g><path d="M 78.0 300.0 L 228.0 300.0 L 228.0 246.9 L 78.0 246.9 Z M 78.0 300.0 " fill="#FF99FF"></path><path d="M 0.0 0.0 L 150.0 0.0 L 150.0 53.1 L 0.0 53.1 Z M 0.0 0.0 " fill="none" stroke="#000000" stroke-width="0.75" stroke-linejoin="round" transform="matrix(1.00, 0.00, 0.00, -1.00, 78.0, 300.0)"></path><g><clipPath id="clip-293"><path d="M 76.4 244.5 L 229.6 244.5 L 229.6 301.6 L 76.4 301.6 Z M 76.4 244.5 "></path></clipPath><g clip-path="url(#clip-293)"><text xml:space="preserve" font-family="TimesNewRomanPS-BoldMT" font-weight="bold" font-size="20.0" fill="#000000" transform="matrix(1.00, 0.00, -0.00, -1.00, 116.0, 278.0)">S</text><text xml:space="preserve" font-family="TimesNewRomanPS-BoldMT" font-weight="bold" font-size="20.0" fill="#000000" transform="matrix(1.00, 0.00, -0.00, -1.00, 127.1, 278.0)">e</text><text xml:space="preserve" font-family="TimesNewRomanPS-BoldMT" font-weight="bold" font-size="20.0" fill="#000000" transform="matrix(1.00, 0.00, -0.00, -1.00, 136.0, 278.0)">r</text><text xml:space="preserve" font-family="TimesNewRomanPS-BoldMT" font-weight="bold" font-size="20.0" fill="#000000" transform="matrix(1.00, 0.00, -0.00, -1.00, 144.9, 278.0)">v</text><text xml:space="preserve" font-family="TimesNewRomanPS-BoldMT" font-weight="bold" font-size="20.0" fill="#000000" transform="matrix(1.00, 0.00, -0.00, -1.00, 154.9, 278.0)">i</text><text xml:space="preserve" font-family="TimesNewRomanPS-BoldMT" font-weight="bold" font-size="20.0" fill="#000000" transform="matrix(1.00, 0.00, -0.00, -1.00, 160.4, 278.0)">d</text><text xml:space="preserve" font-family="TimesNewRomanPS-BoldMT" font-weight="bold" font-size="20.0" fill="#000000" transform="matrix(1.00, 0.00, -0.00, -1.00, 171.6, 278.0)">o</text><text xml:space="preserve" font-family="TimesNewRomanPS-BoldMT" font-weight="bold" font-size="20.0" fill="#000000" transform="matrix(1.00, 0.00, -0.00, -1.00, 181.6, 278.0)">r</text><text xml:space="preserve" font-family="TimesNewRomanPS-BoldMT" font-weight="bold" font-size="20.0" fill="#000000" transform="matrix(1.00, 0.00, -0.00, -1.00, 190.1, 278.0)"> </text><text xml:space="preserve" font-family="TimesNewRomanPS-BoldMT" font-weight="bold" font-size="20.0" fill="#000000" transform="matrix(1.00, 0.00, -0.00, -1.00, 99.0, 255.0)">A</text><text xml:space="preserve" font-family="TimesNewRomanPS-BoldMT" font-weight="bold" font-size="20.0" fill="#000000" transform="matrix(1.00, 0.00, -0.00, -1.00, 113.4, 255.0)">p</text><text xml:space="preserve" font-family="TimesNewRomanPS-BoldMT" font-weight="bold" font-size="20.0" fill="#000000" transform="matrix(1.00, 0.00, -0.00, -1.00, 124.6, 255.0)">l</text><text xml:space="preserve" font-family="TimesNewRomanPS-BoldMT" font-weight="bold" font-size="20.0" fill="#000000" transform="matrix(1.00, 0.00, -0.00, -1.00, 130.1, 255.0)">i</text><text xml:space="preserve" font-family="TimesNewRomanPS-BoldMT" font-weight="bold" font-size="20.0" fill="#000000" transform="matrix(1.00, 0.00, -0.00, -1.00, 135.7, 255.0)">c</text><text xml:space="preserve" font-family="TimesNewRomanPS-BoldMT" font-weight="bold" font-size="20.0" fill="#000000" transform="matrix(1.00, 0.00, -0.00, -1.00, 144.6, 255.0)">a</text><text xml:space="preserve" font-family="TimesNewRomanPS-BoldMT" font-weight="bold" font-size="20.0" fill="#000000" transform="matrix(1.00, 0.00, -0.00, -1.00, 154.6, 255.0)">c</text><text xml:space="preserve" font-family="TimesNewRomanPS-BoldMT" font-weight="bold" font-size="20.0" fill="#000000" transform="matrix(1.00, 0.00, -0.00, -1.00, 163.4, 255.0)">i</text><text xml:space="preserve" font-family="TimesNewRomanPS-BoldMT" font-weight="bold" font-size="20.0" fill="#000000" transform="matrix(1.00, 0.00, -0.00, -1.00, 169.0, 255.0)">o</text><text xml:space="preserve" font-family="TimesNewRomanPS-BoldMT" font-weight="bold" font-size="20.0" fill="#000000" transform="matrix(1.00, 0.00, -0.00, -1.00, 179.0, 255.0)">n</text><text xml:space="preserve" font-family="TimesNewRomanPS-BoldMT" font-weight="bold" font-size="20.0" fill="#000000" transform="matrix(1.00, 0.00, -0.00, -1.00, 190.1, 255.0)">e</text><text xml:space="preserve" font-family="TimesNewRomanPS-BoldMT" font-weight="bold" font-size="20.0" fill="#000000" transform="matrix(1.00, 0.00, -0.00, -1.00, 199.0, 255.0)">s</text></g></g><path d="M 99.0 486.0 C 70.8 486.0 48.0 469.9 48.0 450.0 C 48.0 430.1 70.8 414.0 99.0 414.0 C 104.4 414.0 109.6 414.8 114.5 415.9 L 134.9 403.2 L 129.4 421.3 C 141.8 427.8 150.0 438.2 150.0 450.0 C 150.0 469.9 127.2 486.0 99.0 486.0 Z M 99.0 486.0 " fill="#B1B1B1"></path><path d="M 51.0 0.0 C 22.8 0.0 0.0 16.1 0.0 36.0 C 0.0 55.9 22.8 72.0 51.0 72.0 C 56.4 72.0 61.6 71.2 66.5 70.1 L 86.9 82.8 L 81.4 64.7 C 93.8 58.2 102.0 47.8 102.0 36.0 C 102.0 16.1 79.2 0.0 51.0 0.0 Z M 51.0 0.0 " fill="none" stroke="#000000" stroke-width="0.75" stroke-linejoin="round" transform="matrix(1.00, 0.00, 0.00, -1.00, 48.0, 486.0)"></path><text xml:space="preserve" font-family="Helvetica" font-size="36.0" fill="#000000" transform="matrix(1.00, 0.00, -0.00, -1.00, 128.0, 434.0)">W</text><text xml:space="preserve" font-family="Helvetica" font-size="36.0" fill="#000000" transform="matrix(1.00, 0.00, -0.00, -1.00, 160.7, 434.0)">A</text><text xml:space="preserve" font-family="Helvetica" font-size="36.0" fill="#000000" transform="matrix(1.00, 0.00, -0.00, -1.00, 184.7, 434.0)">M</text><text xml:space="preserve" font-family="Helvetica" font-size="36.0" fill="#FF9933" transform="matrix(1.00, 0.00, -0.00, -1.00, 214.7, 434.0)"> </text><text xml:space="preserve" font-family="Helvetica" font-size="36.0" fill="#FF9933" transform="matrix(1.00, 0.00, -0.00, -1.00, 224.7, 434.0)">e</text><text xml:space="preserve" font-family="Helvetica" font-size="36.0" fill="#FF9933" transform="matrix(1.00, 0.00, -0.00, -1.00, 244.7, 434.0)">n</text><text xml:space="preserve" font-family="Helvetica" font-size="36.0" fill="#FF9933" transform="matrix(1.00, 0.00, -0.00, -1.00, 264.7, 434.0)"> </text><text xml:space="preserve" font-family="Helvetica" font-size="36.0" fill="#FF9933" transform="matrix(1.00, 0.00, -0.00, -1.00, 274.7, 434.0)">a</text><text xml:space="preserve" font-family="Helvetica" font-size="36.0" fill="#FF9933" transform="matrix(1.00, 0.00, -0.00, -1.00, 294.7, 434.0)">r</text><text xml:space="preserve" font-family="Helvetica" font-size="36.0" fill="#FF9933" transform="matrix(1.00, 0.00, -0.00, -1.00, 306.7, 434.0)">q</text><text xml:space="preserve" font-family="Helvetica" font-size="36.0" fill="#FF9933" transform="matrix(1.00, 0.00, -0.00, -1.00, 326.8, 434.0)">u</text><text xml:space="preserve" font-family="Helvetica" font-size="36.0" fill="#FF9933" transform="matrix(1.00, 0.00, -0.00, -1.00, 346.8, 434.0)">i</text><text xml:space="preserve" font-family="Helvetica" font-size="36.0" fill="#FF9933" transform="matrix(1.00, 0.00, -0.00, -1.00, 354.8, 434.0)">t</text><text xml:space="preserve" font-family="Helvetica" font-size="36.0" fill="#FF9933" transform="matrix(1.00, 0.00, -0.00, -1.00, 364.8, 434.0)">e</text><text xml:space="preserve" font-family="Helvetica" font-size="36.0" fill="#FF9933" transform="matrix(1.00, 0.00, -0.00, -1.00, 384.8, 434.0)">c</text><text xml:space="preserve" font-family="Helvetica" font-size="36.0" fill="#FF9933" transform="matrix(1.00, 0.00, -0.00, -1.00, 402.8, 434.0)">t</text><text xml:space="preserve" font-family="Helvetica" font-size="36.0" fill="#FF9933" transform="matrix(1.00, 0.00, -0.00, -1.00, 412.8, 434.0)">u</text><text xml:space="preserve" font-family="Helvetica" font-size="36.0" fill="#FF9933" transform="matrix(1.00, 0.00, -0.00, -1.00, 432.8, 434.0)">r</text><text xml:space="preserve" font-family="Helvetica" font-size="36.0" fill="#FF9933" transform="matrix(1.00, 0.00, -0.00, -1.00, 444.8, 434.0)">a</text><text xml:space="preserve" font-family="Helvetica" font-size="36.0" fill="#FF9933" transform="matrix(1.00, 0.00, -0.00, -1.00, 464.9, 434.0)">s</text><text xml:space="preserve" font-family="Helvetica" font-size="36.0" fill="#FF9933" transform="matrix(1.00, 0.00, -0.00, -1.00, 482.9, 434.0)"> </text><text xml:space="preserve" font-family="Helvetica" font-size="36.0" fill="#FF9933" transform="matrix(1.00, 0.00, -0.00, -1.00, 492.8, 434.0)">N</text><text xml:space="preserve" font-family="Helvetica" font-size="36.0" fill="#FF9933" transform="matrix(1.00, 0.00, -0.00, -1.00, 518.9, 434.0)">-</text><text xml:space="preserve" font-family="Helvetica" font-size="36.0" fill="#FF9933" transform="matrix(1.00, 0.00, -0.00, -1.00, 530.8, 434.0)">T</text><text xml:space="preserve" font-family="Helvetica" font-size="36.0" fill="#FF9933" transform="matrix(1.00, 0.00, -0.00, -1.00, 551.5, 434.0)">i</text><text xml:space="preserve" font-family="Helvetica" font-size="36.0" fill="#FF9933" transform="matrix(1.00, 0.00, -0.00, -1.00, 559.5, 434.0)">e</text><text xml:space="preserve" font-family="Helvetica" font-size="36.0" fill="#FF9933" transform="matrix(1.00, 0.00, -0.00, -1.00, 579.5, 434.0)">r</text><path d="M 78.0 216.0 L 228.0 216.0 L 228.0 162.9 L 78.0 162.9 Z M 78.0 216.0 " fill="#FFCC99"></path><path d="M 0.0 0.0 L 150.0 0.0 L 150.0 53.1 L 0.0 53.1 Z M 0.0 0.0 " fill="none" stroke="#000000" stroke-width="0.75" stroke-linejoin="round" transform="matrix(1.00, 0.00, 0.00, -1.00, 78.0, 216.0)"></path><g><clipPath id="clip-294"><path d="M 76.4 160.5 L 229.6 160.5 L 229.6 217.6 L 76.4 217.6 Z M 76.4 160.5 "></path></clipPath><g clip-path="url(#clip-294)"><text xml:space="preserve" font-family="TimesNewRomanPS-BoldMT" font-weight="bold" font-size="20.0" fill="#000000" transform="matrix(1.00, 0.00, -0.00, -1.00, 94.0, 194.0)">C</text><text xml:space="preserve" font-family="TimesNewRomanPS-BoldMT" font-weight="bold" font-size="20.0" fill="#000000" transform="matrix(1.00, 0.00, -0.00, -1.00, 108.4, 194.0)">o</text><text xml:space="preserve" font-family="TimesNewRomanPS-BoldMT" font-weight="bold" font-size="20.0" fill="#000000" transform="matrix(1.00, 0.00, -0.00, -1.00, 118.4, 194.0)">n</text><text xml:space="preserve" font-family="TimesNewRomanPS-BoldMT" font-weight="bold" font-size="20.0" fill="#000000" transform="matrix(1.00, 0.00, -0.00, -1.00, 129.6, 194.0)">t</text><text xml:space="preserve" font-family="TimesNewRomanPS-BoldMT" font-weight="bold" font-size="20.0" fill="#000000" transform="matrix(1.00, 0.00, -0.00, -1.00, 136.2, 194.0)">e</text><text xml:space="preserve" font-family="TimesNewRomanPS-BoldMT" font-weight="bold" font-size="20.0" fill="#000000" transform="matrix(1.00, 0.00, -0.00, -1.00, 145.1, 194.0)">n</text><text xml:space="preserve" font-family="TimesNewRomanPS-BoldMT" font-weight="bold" font-size="20.0" fill="#000000" transform="matrix(1.00, 0.00, -0.00, -1.00, 156.2, 194.0)">e</text><text xml:space="preserve" font-family="TimesNewRomanPS-BoldMT" font-weight="bold" font-size="20.0" fill="#000000" transform="matrix(1.00, 0.00, -0.00, -1.00, 165.1, 194.0)">d</text><text xml:space="preserve" font-family="TimesNewRomanPS-BoldMT" font-weight="bold" font-size="20.0" fill="#000000" transform="matrix(1.00, 0.00, -0.00, -1.00, 176.2, 194.0)">o</text><text xml:space="preserve" font-family="TimesNewRomanPS-BoldMT" font-weight="bold" font-size="20.0" fill="#000000" transform="matrix(1.00, 0.00, -0.00, -1.00, 186.2, 194.0)">r</text><text xml:space="preserve" font-family="TimesNewRomanPS-BoldMT" font-weight="bold" font-size="20.0" fill="#000000" transform="matrix(1.00, 0.00, -0.00, -1.00, 194.7, 194.0)">e</text><text xml:space="preserve" font-family="TimesNewRomanPS-BoldMT" font-weight="bold" font-size="20.0" fill="#000000" transform="matrix(1.00, 0.00, -0.00, -1.00, 203.6, 194.0)">s</text><text xml:space="preserve" font-family="TimesNewRomanPS-BoldMT" font-weight="bold" font-size="20.0" fill="#000000" transform="matrix(1.00, 0.00, -0.00, -1.00, 211.4, 194.0)"> </text><text xml:space="preserve" font-family="TimesNewRomanPS-BoldMT" font-weight="bold" font-size="20.0" fill="#000000" transform="matrix(1.00, 0.00, -0.00, -1.00, 92.0, 171.0)">E</text><text xml:space="preserve" font-family="TimesNewRomanPS-BoldMT" font-weight="bold" font-size="20.0" fill="#000000" transform="matrix(1.00, 0.00, -0.00, -1.00, 105.3, 171.0)">J</text><text xml:space="preserve" font-family="TimesNewRomanPS-BoldMT" font-weight="bold" font-size="20.0" fill="#000000" transform="matrix(1.00, 0.00, -0.00, -1.00, 115.3, 171.0)">B</text><text xml:space="preserve" font-family="TimesNewRomanPS-BoldMT" font-weight="bold" font-size="20.0" fill="#000000" transform="matrix(1.00, 0.00, -0.00, -1.00, 128.7, 171.0)">s</text><text xml:space="preserve" font-family="TimesNewRomanPS-BoldMT" font-weight="bold" font-size="20.0" fill="#000000" transform="matrix(1.00, 0.00, -0.00, -1.00, 136.5, 171.0)">/</text><text xml:space="preserve" font-family="TimesNewRomanPS-BoldMT" font-weight="bold" font-size="20.0" fill="#000000" transform="matrix(1.00, 0.00, -0.00, -1.00, 142.0, 171.0)">C</text><text xml:space="preserve" font-family="TimesNewRomanPS-BoldMT" font-weight="bold" font-size="20.0" fill="#000000" transform="matrix(1.00, 0.00, -0.00, -1.00, 156.5, 171.0)">O</text><text xml:space="preserve" font-family="TimesNewRomanPS-BoldMT" font-weight="bold" font-size="20.0" fill="#000000" transform="matrix(1.00, 0.00, -0.00, -1.00, 172.0, 171.0)">R</text><text xml:space="preserve" font-family="TimesNewRomanPS-BoldMT" font-weight="bold" font-size="20.0" fill="#000000" transform="matrix(1.00, 0.00, -0.00, -1.00, 186.5, 171.0)">B</text><text xml:space="preserve" font-family="TimesNewRomanPS-BoldMT" font-weight="bold" font-size="20.0" fill="#000000" transform="matrix(1.00, 0.00, -0.00, -1.00, 199.8, 171.0)">A</text></g></g></g></svg>