<?xml version="1.0" encoding="UTF-8" standalone="no"?><svg xmlns="http://www.w3.org/2000/svg" xmlns:xlink="http://www.w3.org/1999/xlink" clip-rule="evenodd" stroke-miterlimit="4.00" viewBox="0 0 780 540"><desc>SVG generated by Keynote</desc><defs></defs><g transform="matrix(1.00, 0.00, -0.00, -1.00, 0.0, 540.0)"><path d="M 0.0 540.0 L 780.0 540.0 L 780.0 0.0 L 0.0 0.0 Z M 0.0 540.0 " fill="#FFFFFF"></path><image xlink:href="60C09DDEC613CB6AA74768EBB3504F63.png" width="780.00" height="619.00" transform="matrix(1.00, 0.00, -0.00, -0.87, 0.0, 540.0)"></image><image xlink:href="AFED87C6F3479549274DF9D7FF144B7A.jpeg" width="138.00" height="82.00" transform="matrix(0.99, 0.00, -0.00, -1.00, 643.0, 82.0)"></image><text xml:space="preserve" font-family="Verdana-BoldItalic" font-style="italic" font-weight="bold" font-size="20.0" fill="#000000" transform="matrix(1.00, 0.00, -0.00, -1.00, 42.0, 37.0)">M</text><text xml:space="preserve" font-family="Verdana-BoldItalic" font-style="italic" font-weight="bold" font-size="20.0" fill="#000000" transform="matrix(1.00, 0.00, -0.00, -1.00, 61.0, 37.0)">i</text><text xml:space="preserve" font-family="Verdana-BoldItalic" font-style="italic" font-weight="bold" font-size="20.0" fill="#000000" transform="matrix(1.00, 0.00, -0.00, -1.00, 67.8, 37.0)">g</text><text xml:space="preserve" font-family="Verdana-BoldItalic" font-style="italic" font-weight="bold" font-size="20.0" fill="#000000" transform="matrix(1.00, 0.00, -0.00, -1.00, 81.8, 37.0)">u</text><text xml:space="preserve" font-family="Verdana-BoldItalic" font-style="italic" font-weight="bold" font-size="20.0" fill="#000000" transform="matrix(1.00, 0.00, -0.00, -1.00, 96.0, 37.0)">e</text><text xml:space="preserve" font-family="Verdana-BoldItalic" font-style="italic" font-weight="bold" font-size="20.0" fill="#000000" transform="matrix(1.00, 0.00, -0.00, -1.00, 109.3, 37.0)">l</text><text xml:space="preserve" font-family="Verdana-BoldItalic" font-style="italic" font-weight="bold" font-size="20.0" fill="#000000" transform="matrix(1.00, 0.00, -0.00, -1.00, 116.1, 37.0)"> </text><text xml:space="preserve" font-family="Verdana-BoldItalic" font-style="italic" font-weight="bold" font-size="20.0" fill="#000000" transform="matrix(1.00, 0.00, -0.00, -1.00, 123.0, 37.0)">Á</text><text xml:space="preserve" font-family="Verdana-BoldItalic" font-style="italic" font-weight="bold" font-size="20.0" fill="#000000" transform="matrix(1.00, 0.00, -0.00, -1.00, 138.5, 37.0)">n</text><text xml:space="preserve" font-family="Verdana-BoldItalic" font-style="italic" font-weight="bold" font-size="20.0" fill="#000000" transform="matrix(1.00, 0.00, -0.00, -1.00, 152.8, 37.0)">g</text><text xml:space="preserve" font-family="Verdana-BoldItalic" font-style="italic" font-weight="bold" font-size="20.0" fill="#000000" transform="matrix(1.00, 0.00, -0.00, -1.00, 166.8, 37.0)">e</text><text xml:space="preserve" font-family="Verdana-BoldItalic" font-style="italic" font-weight="bold" font-size="20.0" fill="#000000" transform="matrix(1.00, 0.00, -0.00, -1.00, 180.0, 37.0)">l</text><text xml:space="preserve" font-family="Verdana-BoldItalic" font-style="italic" font-weight="bold" font-size="20.0" fill="#000000" transform="matrix(1.00, 0.00, -0.00, -1.00, 186.9, 37.0)"> </text><text xml:space="preserve" font-family="Verdana-BoldItalic" font-style="italic" font-weight="bold" font-size="20.0" fill="#000000" transform="matrix(1.00, 0.00, -0.00, -1.00, 193.7, 37.0)">B</text><text xml:space="preserve" font-family="Verdana-BoldItalic" font-style="italic" font-weight="bold" font-size="20.0" fill="#000000" transform="matrix(1.00, 0.00, -0.00, -1.00, 208.9, 37.0)">a</text><text xml:space="preserve" font-family="Verdana-BoldItalic" font-style="italic" font-weight="bold" font-size="20.0" fill="#000000" transform="matrix(1.00, 0.00, -0.00, -1.00, 222.3, 37.0)">l</text><text xml:space="preserve" font-family="Verdana-BoldItalic" font-style="italic" font-weight="bold" font-size="20.0" fill="#000000" transform="matrix(1.00, 0.00, -0.00, -1.00, 229.1, 37.0)">l</text><text xml:space="preserve" font-family="Verdana-BoldItalic" font-style="italic" font-weight="bold" font-size="20.0" fill="#000000" transform="matrix(1.00, 0.00, -0.00, -1.00, 236.0, 37.0)">e</text><text xml:space="preserve" font-family="Verdana-BoldItalic" font-style="italic" font-weight="bold" font-size="20.0" fill="#000000" transform="matrix(1.00, 0.00, -0.00, -1.00, 249.2, 37.0)">s</text><text xml:space="preserve" font-family="Verdana-BoldItalic" font-style="italic" font-weight="bold" font-size="20.0" fill="#000000" transform="matrix(1.00, 0.00, -0.00, -1.00, 261.1, 37.0)">t</text><text xml:space="preserve" font-family="Verdana-BoldItalic" font-style="italic" font-weight="bold" font-size="20.0" fill="#000000" transform="matrix(1.00, 0.00, -0.00, -1.00, 270.2, 37.0)">e</text><text xml:space="preserve" font-family="Verdana-BoldItalic" font-style="italic" font-weight="bold" font-size="20.0" fill="#000000" transform="matrix(1.00, 0.00, -0.00, -1.00, 283.5, 37.0)">r</text><text xml:space="preserve" font-family="Verdana-BoldItalic" font-style="italic" font-weight="bold" font-size="20.0" fill="#000000" transform="matrix(1.00, 0.00, -0.00, -1.00, 293.4, 37.0)">o</text><text xml:space="preserve" font-family="Verdana-BoldItalic" font-style="italic" font-weight="bold" font-size="20.0" fill="#000000" transform="matrix(1.00, 0.00, -0.00, -1.00, 307.1, 37.0)">s</text><text xml:space="preserve" font-family="Verdana-BoldItalic" font-style="italic" font-weight="bold" font-size="20.0" fill="#000000" transform="matrix(1.00, 0.00, -0.00, -1.00, 319.0, 37.0)"> </text><text xml:space="preserve" font-family="Verdana-BoldItalic" font-style="italic" font-weight="bold" font-size="20.0" fill="#000000" transform="matrix(1.00, 0.00, -0.00, -1.00, 325.8, 37.0)">–</text><text xml:space="preserve" font-family="Verdana-BoldItalic" font-style="italic" font-weight="bold" font-size="20.0" fill="#000000" transform="matrix(1.00, 0.00, -0.00, -1.00, 340.1, 37.0)"> </text><text xml:space="preserve" font-family="Verdana-BoldItalic" font-style="italic" font-weight="bold" font-size="20.0" fill="#000000" transform="matrix(1.00, 0.00, -0.00, -1.00, 346.9, 37.0)">D</text><text xml:space="preserve" font-family="Verdana-BoldItalic" font-style="italic" font-weight="bold" font-size="20.0" fill="#000000" transform="matrix(1.00, 0.00, -0.00, -1.00, 363.5, 37.0)">i</text><text xml:space="preserve" font-family="Verdana-BoldItalic" font-style="italic" font-weight="bold" font-size="20.0" fill="#000000" transform="matrix(1.00, 0.00, -0.00, -1.00, 370.3, 37.0)">c</text><text xml:space="preserve" font-family="Verdana-BoldItalic" font-style="italic" font-weight="bold" font-size="20.0" fill="#000000" transform="matrix(1.00, 0.00, -0.00, -1.00, 382.1, 37.0)">2</text><text xml:space="preserve" font-family="Verdana-BoldItalic" font-style="italic" font-weight="bold" font-size="20.0" fill="#000000" transform="matrix(1.00, 0.00, -0.00, -1.00, 396.3, 37.0)">0</text><text xml:space="preserve" font-family="Verdana-BoldItalic" font-style="italic" font-weight="bold" font-size="20.0" fill="#000000" transform="matrix(1.00, 0.00, -0.00, -1.00, 410.5, 37.0)">0</text><text xml:space="preserve" font-family="Verdana-BoldItalic" font-style="italic" font-weight="bold" font-size="20.0" fill="#000000" transform="matrix(1.00, 0.00, -0.00, -1.00, 424.8, 37.0)">1</text><g><clipPath id="clip-106"><path d="M 84.0 93.0 L 623.0 93.0 L 623.0 491.0 L 84.0 491.0 Z M 84.0 93.0 "></path></clipPath><g clip-path="url(#clip-106)"><path d="M 132.3 353.7 L 143.3 354.5 L 152.0 353.7 L 158.3 351.0 L 162.6 347.4 L 166.7 341.4 L 170.3 334.6 L 173.3 326.1 L 175.5 316.0 L 177.7 304.8 L 178.2 292.8 L 179.0 280.3 L 177.9 270.4 L 175.2 259.5 L 170.6 250.0 L 164.3 240.1 L 157.7 233.3 L 148.4 227.3 L 138.6 223.8 L 129.9 222.4 L 122.5 223.5 L 115.9 226.5 L 111.6 230.9 L 108.0 237.1 L 106.4 244.5 L 106.4 252.1 L 108.0 259.5 L 111.6 265.5 L 117.0 271.0 L 123.3 275.9 L 126.0 280.3 L 127.1 284.1 L 126.9 289.5 L 125.2 298.0 L 123.3 306.7 L 120.3 312.7 L 115.4 319.8 L 113.5 325.0 L 112.7 331.3 L 113.5 338.7 L 117.0 345.0 L 121.1 348.8 L 126.3 351.2 L 130.1 352.9 L 138.1 354.2 L 132.3 353.7 Z M 132.3 353.7 " fill="#000000"></path><path d="M 143.8 390.0 L 141.6 398.5 L 138.9 405.8 L 135.9 411.6 L 131.5 417.0 L 126.3 423.0 L 121.4 427.1 L 117.6 429.3 L 111.9 430.9 L 105.3 431.8 L 99.3 430.9 L 93.6 428.5 L 89.2 424.4 L 85.4 417.3 L 83.7 410.5 L 84.3 403.1 L 85.4 395.7 L 88.1 388.6 L 91.6 382.4 L 97.7 376.6 L 103.9 371.4 L 111.3 367.1 L 119.0 363.5 L 126.6 361.3 L 132.9 361.3 L 137.2 363.0 L 140.2 367.1 L 142.7 372.5 L 143.5 376.6 L 143.5 379.9 L 149.8 375.3 L 154.7 372.5 L 160.2 371.4 L 164.5 372.5 L 166.5 375.3 L 165.9 378.5 L 164.3 381.0 L 160.7 382.6 L 155.3 384.0 L 151.2 385.1 L 147.1 387.3 L 143.8 390.0 Z M 143.8 390.0 " fill="#000000"></path><path d="M 149.8 353.1 L 143.5 353.1 L 142.4 352.9 L 137.2 350.7 L 135.6 346.6 L 136.7 341.4 L 142.2 337.6 L 152.0 335.4 L 162.1 335.7 L 170.8 337.6 L 178.7 341.4 L 186.9 347.4 L 195.4 355.6 L 204.1 366.5 L 210.1 376.1 L 216.2 386.4 L 221.9 396.3 L 227.4 403.4 L 233.6 411.8 L 240.5 419.5 L 247.3 425.5 L 253.3 429.0 L 258.8 429.3 L 263.1 427.7 L 265.6 425.2 L 267.5 420.6 L 268.0 416.8 L 268.0 412.4 L 269.7 409.9 L 273.2 409.4 L 276.0 411.0 L 277.3 414.3 L 278.1 417.8 L 276.8 421.9 L 274.6 427.7 L 273.8 430.9 L 274.6 435.0 L 276.2 438.9 L 280.9 443.0 L 285.0 445.1 L 290.7 446.5 L 297.0 448.1 L 295.9 447.9 L 298.6 450.1 L 298.3 452.5 L 294.2 455.5 L 285.5 457.7 L 276.0 456.3 L 267.5 452.8 L 260.9 446.2 L 256.6 441.9 L 249.7 438.3 L 241.5 433.9 L 233.9 427.7 L 225.7 419.8 L 217.0 410.7 L 210.7 402.0 L 204.4 392.2 L 197.0 382.1 L 189.7 372.5 L 182.0 365.2 L 173.6 359.2 L 164.0 354.8 L 154.7 353.7 L 149.8 353.1 Z M 149.8 353.1 " fill="#000000"></path><path d="M 139.7 332.4 L 135.6 340.0 L 129.6 344.1 L 122.8 343.6 L 118.4 339.8 L 116.8 332.4 L 118.7 326.1 L 123.3 319.6 L 130.7 311.4 L 139.4 304.0 L 149.8 295.5 L 162.4 286.5 L 174.7 279.2 L 195.1 266.1 L 212.6 257.1 L 231.4 246.1 L 240.7 240.1 L 245.6 233.6 L 247.6 227.0 L 249.5 221.3 L 253.0 216.9 L 259.3 214.7 L 266.1 215.6 L 272.4 216.4 L 277.3 218.0 L 278.7 222.1 L 275.7 225.4 L 269.1 225.4 L 272.4 227.0 L 273.2 229.5 L 271.6 232.5 L 266.7 233.0 L 260.7 232.8 L 258.2 235.5 L 261.2 239.0 L 265.0 244.0 L 268.3 246.7 L 269.9 250.8 L 269.7 253.5 L 267.2 255.7 L 263.7 255.7 L 260.1 254.1 L 258.5 251.3 L 257.7 247.5 L 256.3 243.7 L 253.6 242.6 L 250.8 242.6 L 244.8 246.1 L 237.7 251.3 L 227.9 258.4 L 216.7 266.3 L 206.3 273.4 L 194.0 282.7 L 184.2 292.0 L 173.6 302.4 L 160.5 312.7 L 150.6 319.8 L 143.8 326.4 L 139.7 332.4 Z M 139.7 332.4 " fill="#000000"></path><path d="M 108.6 231.9 L 114.0 242.6 L 119.0 248.9 L 123.9 251.3 L 128.5 251.3 L 133.7 248.9 L 136.2 246.1 L 137.8 240.7 L 137.2 235.2 L 133.7 230.0 L 128.2 225.1 L 122.5 220.5 L 117.6 214.2 L 113.8 208.2 L 111.0 200.8 L 109.9 196.2 L 110.2 193.2 L 113.5 189.6 L 121.1 181.2 L 126.3 172.2 L 129.9 164.0 L 133.1 153.1 L 135.6 140.2 L 137.5 133.7 L 141.3 129.3 L 143.5 122.2 L 142.7 117.6 L 140.0 114.6 L 133.1 112.7 L 122.8 108.8 L 115.1 105.0 L 112.1 102.3 L 109.7 97.4 L 107.2 95.5 L 102.8 95.2 L 99.0 97.9 L 97.7 103.9 L 99.3 107.7 L 103.9 112.1 L 112.7 115.7 L 121.7 118.7 L 128.2 121.9 L 130.7 125.8 L 132.1 129.9 L 131.0 135.3 L 126.6 145.4 L 122.2 156.3 L 117.3 167.2 L 110.5 176.3 L 104.8 183.6 L 101.2 189.9 L 99.3 196.2 L 99.3 204.4 L 101.5 213.4 L 105.0 221.8 L 107.5 228.9 L 108.6 231.9 Z M 108.6 231.9 " fill="#000000"></path><path d="M 173.0 222.7 L 159.4 239.9 L 149.8 248.6 L 144.6 249.4 L 139.2 247.0 L 135.9 241.2 L 135.1 236.0 L 137.5 230.0 L 141.3 227.0 L 149.8 222.1 L 159.4 214.5 L 165.1 208.7 L 168.4 204.1 L 170.0 198.6 L 169.5 195.9 L 167.3 193.7 L 162.6 185.3 L 160.7 177.6 L 159.9 168.6 L 159.4 159.3 L 160.7 149.0 L 162.4 138.6 L 162.4 132.3 L 162.6 126.3 L 164.5 123.0 L 166.2 121.9 L 169.7 121.1 L 174.7 122.5 L 180.7 123.3 L 188.9 121.9 L 197.0 118.7 L 203.9 113.7 L 206.9 113.5 L 209.3 114.8 L 211.5 118.4 L 211.5 125.8 L 208.2 128.2 L 203.9 129.3 L 193.5 130.4 L 183.9 132.9 L 174.7 135.9 L 170.6 140.2 L 169.7 146.8 L 169.5 157.7 L 171.9 170.3 L 174.9 179.8 L 179.8 189.1 L 183.4 195.4 L 184.2 199.7 L 184.2 204.6 L 182.8 209.0 L 179.0 216.1 L 175.7 220.2 L 173.0 222.7 Z M 173.0 222.7 " fill="#000000"></path><path d="M 277.6 352.3 L 273.0 322.6 L 274.3 302.4 L 276.0 281.9 L 273.8 265.2 L 267.5 248.3 L 266.1 247.8 L 262.3 239.3 L 257.1 228.4 L 259.3 222.7 L 266.9 220.5 L 302.7 219.9 L 325.9 218.8 L 324.3 218.3 L 345.9 214.2 L 370.7 205.2 L 396.9 195.6 L 431.0 188.8 L 457.3 185.8 L 487.3 184.2 L 515.7 186.4 L 537.8 182.0 L 558.8 174.6 L 600.3 157.4 L 601.4 175.2 L 599.2 195.6 L 591.3 218.3 L 590.0 230.9 L 593.0 247.2 L 598.7 266.6 L 604.7 284.6 L 604.7 310.3 L 602.5 341.4 L 600.3 366.2 L 597.3 393.0 L 592.4 419.8 L 593.0 432.9 L 598.4 448.7 L 605.5 460.7 L 617.3 473.0 L 615.6 476.5 L 604.2 482.8 L 580.4 487.2 L 554.2 487.2 L 532.6 484.4 L 507.8 477.1 L 490.0 468.6 L 471.2 457.2 L 453.7 449.8 L 430.0 445.4 L 401.0 445.1 L 376.4 447.6 L 343.9 450.3 L 341.8 449.8 L 316.4 450.9 L 297.5 448.7 L 280.3 441.3 L 273.0 434.5 L 270.8 423.8 L 279.2 405.6 L 281.7 388.6 L 281.7 369.3 L 277.6 352.3 Z M 277.6 352.3 " fill="#FFFFFF"></path><path d="M 272.7 274.8 L 269.1 258.7 L 268.0 257.1 L 263.1 244.5 L 256.0 234.9 L 253.8 226.5 L 256.0 221.3 L 258.5 218.6 L 263.1 217.5 L 272.1 217.5 L 270.5 217.5 L 293.2 218.0 L 312.3 217.5 L 330.6 215.0 L 343.1 211.2 L 359.0 206.0 L 374.8 200.8 L 390.1 195.1 L 405.9 190.2 L 424.8 187.2 L 444.7 183.9 L 462.7 182.8 L 484.3 182.8 L 504.8 183.4 L 528.3 182.3 L 545.7 177.1 L 566.8 170.3 L 585.3 160.2 L 599.0 152.8 L 604.7 155.0 L 604.7 159.9 L 597.3 163.4 L 576.9 170.3 L 554.7 180.9 L 535.6 186.1 L 520.1 188.3 L 501.5 188.3 L 479.9 187.2 L 463.3 188.3 L 443.1 189.1 L 425.9 192.9 L 409.5 195.6 L 391.7 199.7 L 373.7 206.6 L 353.2 215.0 L 336.8 219.1 L 320.5 222.4 L 319.1 221.8 L 303.3 223.5 L 282.8 224.6 L 281.1 224.0 L 265.3 224.6 L 259.6 225.9 L 261.2 225.4 L 261.2 229.2 L 262.3 234.9 L 269.1 244.5 L 273.8 254.9 L 276.0 263.3 L 274.3 263.3 L 272.7 274.8 Z M 272.7 274.8 " fill="#000000"></path><path d="M 603.1 154.7 L 605.3 165.9 L 604.2 183.6 L 600.1 199.5 L 595.1 216.7 L 593.8 230.6 L 594.6 239.9 L 599.0 254.6 L 603.6 268.8 L 606.3 281.9 L 608.0 302.6 L 606.3 331.3 L 604.7 356.7 L 600.1 394.1 L 596.2 415.7 L 596.2 428.2 L 597.9 437.2 L 600.6 444.6 L 605.8 454.4 L 613.7 464.5 L 618.9 469.7 L 621.1 473.5 L 620.5 477.1 L 615.4 481.7 L 604.2 486.1 L 589.4 488.5 L 571.7 490.2 L 553.1 490.7 L 535.9 488.5 L 519.5 482.8 L 503.7 478.7 L 490.0 472.4 L 475.8 463.4 L 465.5 457.7 L 453.2 452.8 L 441.7 450.9 L 422.3 448.7 L 403.2 448.7 L 383.8 450.9 L 369.6 452.8 L 349.1 454.4 L 330.6 455.5 L 309.5 454.4 L 308.2 453.9 L 292.9 450.9 L 276.0 444.0 L 270.2 435.0 L 270.8 428.8 L 273.2 424.9 L 276.0 432.9 L 283.3 438.6 L 294.2 444.0 L 306.0 447.1 L 318.0 447.6 L 334.9 447.6 L 350.8 447.6 L 373.7 445.1 L 387.4 442.4 L 403.2 441.3 L 418.5 441.9 L 436.5 443.0 L 450.2 445.7 L 471.2 452.8 L 485.9 461.8 L 501.2 471.3 L 520.1 477.1 L 535.9 481.7 L 554.7 483.9 L 575.2 483.9 L 591.1 481.7 L 605.3 478.2 L 611.5 474.3 L 611.0 470.8 L 602.0 462.3 L 596.2 452.5 L 592.1 440.8 L 590.0 430.4 L 590.0 418.1 L 591.6 404.5 L 595.1 388.6 L 597.9 370.9 L 599.5 352.1 L 601.2 327.2 L 601.7 304.6 L 600.1 284.1 L 600.1 282.4 L 596.2 267.2 L 591.1 251.1 L 588.3 235.2 L 587.5 222.7 L 589.4 213.7 L 594.3 198.9 L 597.3 185.8 L 597.9 172.2 L 595.7 160.4 L 598.4 154.7 L 603.1 154.7 Z M 603.1 154.7 " fill="#000000"></path><path d="M 277.0 443.0 L 269.7 433.9 L 267.5 425.5 L 270.8 417.0 L 276.0 403.9 L 278.1 391.4 L 278.7 378.3 L 275.4 358.9 L 273.0 342.0 L 269.7 322.6 L 269.7 304.6 L 271.3 287.9 L 271.9 266.3 L 273.0 259.5 L 277.0 263.6 L 279.2 279.4 L 279.2 297.2 L 276.5 312.5 L 276.5 323.1 L 279.2 336.8 L 283.1 355.6 L 286.1 373.1 L 285.0 388.6 L 284.4 397.1 L 281.4 411.3 L 276.0 424.9 L 274.0 435.6 L 277.0 443.0 Z M 277.0 443.0 " fill="#000000"></path></g></g><image xlink:href="9B82A69FFC2824BA3214F3C33C2A0EAF.png" width="159.00" height="44.00" transform="matrix(1.00, 0.00, -0.00, -1.00, 352.0, 349.0)"></image><text xml:space="preserve" font-family="Arial-Black" font-weight="bold" font-size="58.6" fill="#FF9933" transform="matrix(1.00, 0.00, -0.00, -1.00, 350.0, 310.0)">W</text><text xml:space="preserve" font-family="Arial-Black" font-weight="bold" font-size="58.6" fill="#FF9933" transform="matrix(1.00, 0.00, -0.00, -1.00, 408.6, 310.0)">A</text><text xml:space="preserve" font-family="Arial-Black" font-weight="bold" font-size="58.6" fill="#FF9933" transform="matrix(1.00, 0.00, -0.00, -1.00, 454.1, 310.0)">M</text></g></svg>